<svg id="レイヤー_1" data-name="レイヤー 1" xmlns="http://www.w3.org/2000/svg" xmlns:xlink="http://www.w3.org/1999/xlink" viewBox="0 0 1417.32 510.24"><defs><style>.cls-1{fill:none;}.cls-2{clip-path:url(#clip-path);}.cls-3{fill:#e8588a;}.cls-4{fill:#fff;}</style><clipPath id="clip-path"><path class="cls-1" d="M146.08,180a56.44,56.44,0,1,0,56.44-56.43A56.44,56.44,0,0,0,146.08,180"/></clipPath></defs><g class="cls-2"><path class="cls-3" d="M89.14,195.69c5.57.13,11.14,1.63,16.72,1.54,5.57.23,11.14-1.88,16.71-1.81,5.57-.16,11.14,1.46,16.72,1.74a34,34,0,0,0,8.35-.49,45,45,0,0,1,8.36-1,2.2,2.2,0,0,1,2.25,2.16A2.23,2.23,0,0,1,156,199.9a45,45,0,0,1-8.36-1,34,34,0,0,0-8.35-.49c-5.58.28-11.15,1.9-16.72,1.74-5.57.07-11.14-2-16.71-1.81-5.58-.08-11.15,1.41-16.72,1.54a2.11,2.11,0,1,1-.12-4.21Z"/><path class="cls-3" d="M81.35,204.44c5.57.13,11.14,1.62,16.71,1.53,5.58.24,11.15-1.87,16.72-1.8,5.57-.16,11.14,1.45,16.71,1.74a34.56,34.56,0,0,0,8.36-.49,45,45,0,0,1,8.36-1,2.2,2.2,0,0,1,2.25,2.16,2.24,2.24,0,0,1-2.25,2.05,44.15,44.15,0,0,1-8.36-1,35.08,35.08,0,0,0-8.36-.49c-5.57.29-11.14,1.91-16.71,1.74-5.57.08-11.14-2-16.72-1.8-5.57-.09-11.14,1.41-16.71,1.54a2.11,2.11,0,1,1-.12-4.21h.12"/><path class="cls-3" d="M81.35,178.2c5.57.12,11.14,1.62,16.71,1.53,5.58.24,11.15-1.88,16.72-1.8,5.57-.16,11.14,1.45,16.71,1.74a34.56,34.56,0,0,0,8.36-.49,45,45,0,0,1,8.36-1,2.2,2.2,0,0,1,2.25,2.16,2.23,2.23,0,0,1-2.25,2,45,45,0,0,1-8.36-1,34.56,34.56,0,0,0-8.36-.49c-5.57.29-11.14,1.9-16.71,1.74-5.57.08-11.14-2-16.72-1.8-5.57-.09-11.14,1.41-16.71,1.53A2.22,2.22,0,0,1,79,180.35a2.2,2.2,0,0,1,2.25-2.15h.12"/><path class="cls-3" d="M37.58,169.71c5.57.13,11.14,1.63,16.71,1.54,5.57.23,11.14-1.88,16.72-1.8,5.57-.17,11.14,1.45,16.71,1.74a35.08,35.08,0,0,0,8.36-.49,44.06,44.06,0,0,1,8.36-1,2.11,2.11,0,1,1,0,4.21,44.86,44.86,0,0,1-8.36-1,34.56,34.56,0,0,0-8.36-.49c-5.57.29-11.14,1.9-16.71,1.74-5.58.07-11.15-2-16.72-1.8-5.57-.09-11.14,1.4-16.71,1.53a2.23,2.23,0,0,1-2.37-2,2.2,2.2,0,0,1,2.25-2.16h.12"/><path class="cls-3" d="M59,160.7c5.57.13,11.14,1.63,16.71,1.54,5.57.23,11.15-1.88,16.72-1.81,5.57-.16,11.14,1.46,16.71,1.74a34.07,34.07,0,0,0,8.36-.49,45,45,0,0,1,8.36-1,2.21,2.21,0,0,1,2.25,2.16,2.24,2.24,0,0,1-2.25,2,45,45,0,0,1-8.36-1,34.07,34.07,0,0,0-8.36-.49c-5.57.28-11.14,1.9-16.71,1.74-5.57.07-11.15-2-16.72-1.81-5.57-.08-11.14,1.41-16.71,1.54a2.11,2.11,0,1,1-.12-4.21H59"/><path class="cls-3" d="M37.58,152.22c5.57.13,11.14,1.62,16.71,1.53,5.57.24,11.14-1.87,16.72-1.8,5.57-.16,11.14,1.45,16.71,1.74a34.56,34.56,0,0,0,8.36-.49,44.86,44.86,0,0,1,8.36-1,2.19,2.19,0,0,1,2.24,2.16,2.23,2.23,0,0,1-2.24,2.05,44.06,44.06,0,0,1-8.36-1,35.08,35.08,0,0,0-8.36-.49c-5.57.29-11.14,1.91-16.71,1.75-5.58.07-11.15-2-16.72-1.81-5.57-.09-11.14,1.41-16.71,1.54a2.23,2.23,0,0,1-2.37-2.05,2.19,2.19,0,0,1,2.25-2.16h.12"/><path class="cls-3" d="M81.35,143.74c5.57.12,11.14,1.62,16.71,1.53,5.58.24,11.15-1.88,16.72-1.8,5.57-.16,11.14,1.45,16.71,1.74a34.56,34.56,0,0,0,8.36-.49,45,45,0,0,1,8.36-1,2.2,2.2,0,0,1,2.25,2.16,2.23,2.23,0,0,1-2.25,2,45,45,0,0,1-8.36-1,34.56,34.56,0,0,0-8.36-.49c-5.57.29-11.14,1.9-16.71,1.74-5.57.08-11.14-2-16.72-1.8-5.57-.09-11.14,1.41-16.71,1.53a2.11,2.11,0,1,1-.12-4.2Z"/><path class="cls-3" d="M59,135c5.57.13,11.14,1.62,16.71,1.53,5.57.24,11.15-1.87,16.72-1.8,5.57-.16,11.14,1.46,16.71,1.74a34.56,34.56,0,0,0,8.36-.49,45,45,0,0,1,8.36-1,2.21,2.21,0,0,1,2.25,2.16,2.24,2.24,0,0,1-2.25,2,44.15,44.15,0,0,1-8.36-1,35.08,35.08,0,0,0-8.36-.49c-5.57.29-11.14,1.91-16.71,1.75-5.57.07-11.15-2-16.72-1.81-5.57-.09-11.14,1.41-16.71,1.54a2.11,2.11,0,1,1-.12-4.21H59"/><path class="cls-3" d="M81.35,126.24c5.57.13,11.14,1.63,16.71,1.54,5.58.23,11.15-1.88,16.72-1.81,5.57-.16,11.14,1.46,16.71,1.74a34.56,34.56,0,0,0,8.36-.48,44.15,44.15,0,0,1,8.36-1,2.2,2.2,0,0,1,2.25,2.16,2.24,2.24,0,0,1-2.25,2,45,45,0,0,1-8.36-1,34.07,34.07,0,0,0-8.36-.49c-5.57.28-11.14,1.9-16.71,1.74-5.57.07-11.14-2-16.72-1.81-5.57-.08-11.14,1.41-16.71,1.54a2.11,2.11,0,1,1-.12-4.21h.12"/><path class="cls-3" d="M37.58,212.92c5.57.13,11.14,1.62,16.71,1.54,5.57.23,11.14-1.88,16.72-1.81,5.57-.16,11.14,1.46,16.71,1.74a34.07,34.07,0,0,0,8.36-.49,44.86,44.86,0,0,1,8.36-1,2.19,2.19,0,0,1,2.24,2.16,2.22,2.22,0,0,1-2.24,2,44.86,44.86,0,0,1-8.36-1,34.07,34.07,0,0,0-8.36-.49c-5.57.28-11.14,1.9-16.71,1.74-5.58.07-11.15-2-16.72-1.81-5.57-.09-11.14,1.41-16.71,1.54a2.23,2.23,0,0,1-2.37-2,2.2,2.2,0,0,1,2.25-2.16h.12"/><path class="cls-3" d="M81.35,221.67c5.57.13,11.14,1.62,16.71,1.53,5.58.24,11.15-1.87,16.72-1.8,5.57-.16,11.14,1.45,16.71,1.74a34.56,34.56,0,0,0,8.36-.49,45,45,0,0,1,8.36-1,2.2,2.2,0,0,1,2.25,2.16,2.24,2.24,0,0,1-2.25,2,44.15,44.15,0,0,1-8.36-1,35.08,35.08,0,0,0-8.36-.49c-5.57.29-11.14,1.91-16.71,1.74-5.57.08-11.14-2-16.72-1.8-5.57-.09-11.14,1.41-16.71,1.54a2.11,2.11,0,1,1-.12-4.21Z"/><path class="cls-3" d="M59,230.15c5.57.13,11.14,1.62,16.71,1.54,5.57.23,11.15-1.88,16.72-1.81,5.57-.16,11.14,1.46,16.71,1.74a34.07,34.07,0,0,0,8.36-.49,45,45,0,0,1,8.36-1,2.21,2.21,0,0,1,2.25,2.16,2.24,2.24,0,0,1-2.25,2.05,45,45,0,0,1-8.36-1,34.57,34.57,0,0,0-8.36-.5c-5.57.29-11.14,1.91-16.71,1.75-5.57.07-11.15-2-16.72-1.81-5.57-.09-11.14,1.41-16.71,1.54a2.11,2.11,0,1,1-.12-4.21H59"/><path class="cls-3" d="M59,191.27c5.57-.13,11.14-1.63,16.71-1.54,5.57-.23,11.15,1.88,16.72,1.81,5.57.16,11.14-1.46,16.71-1.74a34.07,34.07,0,0,1,8.36.49,45,45,0,0,0,8.36,1,2.21,2.21,0,0,0,2.25-2.16,2.24,2.24,0,0,0-2.25-2.05,45,45,0,0,0-8.36,1,34.07,34.07,0,0,1-8.36.49c-5.57-.28-11.14-1.9-16.71-1.74-5.57-.07-11.15,2-16.72,1.81-5.57.09-11.14-1.41-16.71-1.54a2.11,2.11,0,1,0-.12,4.21H59"/><path class="cls-3" d="M113.87,169.71c5.58.13,11.15,1.63,16.72,1.54,5.57.23,11.14-1.88,16.71-1.8,5.58-.17,11.15,1.45,16.72,1.74a35.11,35.11,0,0,0,8.36-.49,44,44,0,0,1,8.35-1,2.11,2.11,0,1,1,0,4.21,44.86,44.86,0,0,1-8.35-1,34.59,34.59,0,0,0-8.36-.49c-5.57.29-11.14,1.9-16.72,1.74-5.57.07-11.14-2-16.71-1.8-5.57-.09-11.14,1.4-16.72,1.53a2.24,2.24,0,0,1-2.37-2,2.21,2.21,0,0,1,2.26-2.16h.11"/><path class="cls-3" d="M178.73,184.81a29.22,29.22,0,0,1,4.66-3.71c-2.79-2.29-8.08-3.83-14.15-3.83-9,0-16.26,7.54-16.26,7.54s7.28,7.55,16.26,7.55c6.07,0,11.36-1.55,14.15-3.84a28.57,28.57,0,0,1-4.66-3.71"/><path class="cls-3" d="M135.31,160.7c5.57.13,11.14,1.63,16.71,1.54,5.57.23,11.14-1.88,16.72-1.81,5.57-.16,11.14,1.46,16.71,1.74a34.07,34.07,0,0,0,8.36-.49,44.86,44.86,0,0,1,8.36-1,2.19,2.19,0,0,1,2.24,2.16,2.22,2.22,0,0,1-2.24,2,44.86,44.86,0,0,1-8.36-1,34.07,34.07,0,0,0-8.36-.49c-5.57.28-11.14,1.9-16.71,1.74-5.58.07-11.15-2-16.72-1.81-5.57-.08-11.14,1.41-16.71,1.54a2.24,2.24,0,0,1-2.38-2,2.21,2.21,0,0,1,2.26-2.16h.12"/><path class="cls-3" d="M113.87,152.22c5.58.13,11.15,1.62,16.72,1.53,5.57.24,11.14-1.87,16.71-1.8,5.58-.16,11.15,1.45,16.72,1.74a34.59,34.59,0,0,0,8.36-.49,44.86,44.86,0,0,1,8.35-1,2.2,2.2,0,0,1,2.25,2.16,2.23,2.23,0,0,1-2.25,2.05,44,44,0,0,1-8.35-1A35.11,35.11,0,0,0,164,155c-5.57.29-11.14,1.91-16.72,1.75-5.57.07-11.14-2-16.71-1.81-5.57-.09-11.14,1.41-16.72,1.54a2.24,2.24,0,0,1-2.37-2.05,2.21,2.21,0,0,1,2.26-2.16h.11"/><path class="cls-3" d="M157.65,143.74c5.57.12,11.14,1.62,16.71,1.53,5.57.24,11.15-1.88,16.72-1.8,5.57-.16,11.14,1.45,16.71,1.74a34.56,34.56,0,0,0,8.36-.49,44.86,44.86,0,0,1,8.36-1,2.1,2.1,0,1,1,0,4.2,44.86,44.86,0,0,1-8.36-1,34.56,34.56,0,0,0-8.36-.49c-5.57.29-11.14,1.9-16.71,1.74-5.57.08-11.15-2-16.72-1.8-5.57-.09-11.14,1.41-16.71,1.53a2.22,2.22,0,0,1-2.37-2.05,2.19,2.19,0,0,1,2.25-2.15Z"/><path class="cls-3" d="M117.36,135c5.57.13,11.14,1.62,16.71,1.53,5.57.24,11.14-1.87,16.72-1.8,5.57-.16,11.14,1.46,16.71,1.74a34.56,34.56,0,0,0,8.36-.49,44.86,44.86,0,0,1,8.36-1,2.19,2.19,0,0,1,2.24,2.16,2.23,2.23,0,0,1-2.24,2,44.06,44.06,0,0,1-8.36-1,35.08,35.08,0,0,0-8.36-.49c-5.57.29-11.14,1.91-16.71,1.75-5.58.07-11.15-2-16.72-1.81-5.57-.09-11.14,1.41-16.71,1.54a2.23,2.23,0,0,1-2.37-2,2.19,2.19,0,0,1,2.25-2.16h.12"/><path class="cls-3" d="M202.83,136.87a17.11,17.11,0,0,1,2.74-2.17c-1.64-1.34-4.74-2.25-8.3-2.25-5.27,0-9.54,4.42-9.54,4.42s4.27,4.43,9.54,4.43c3.56,0,6.66-.91,8.3-2.25a16.8,16.8,0,0,1-2.74-2.18"/><path class="cls-3" d="M157.65,126.24c5.57.13,11.14,1.63,16.71,1.54,5.57.23,11.15-1.88,16.72-1.81,5.57-.16,11.14,1.46,16.71,1.74a34.56,34.56,0,0,0,8.36-.48,44.06,44.06,0,0,1,8.36-1,2.19,2.19,0,0,1,2.24,2.16,2.22,2.22,0,0,1-2.24,2,44.86,44.86,0,0,1-8.36-1,34.07,34.07,0,0,0-8.36-.49c-5.57.28-11.14,1.9-16.71,1.74-5.57.07-11.15-2-16.72-1.81-5.57-.08-11.14,1.41-16.71,1.54a2.23,2.23,0,0,1-2.37-2,2.2,2.2,0,0,1,2.25-2.16h.12"/><path class="cls-3" d="M160.13,211.85a29,29,0,0,1-4.67,3.71c2.79,2.29,8.09,3.83,14.16,3.83,9,0,16.25-7.54,16.25-7.54s-7.28-7.55-16.25-7.55c-6.07,0-11.37,1.55-14.16,3.84a28.41,28.41,0,0,1,4.67,3.71"/><path class="cls-3" d="M157.65,221.67c5.57.13,11.14,1.62,16.71,1.53,5.57.24,11.15-1.87,16.72-1.8,5.57-.16,11.14,1.45,16.71,1.74a34.56,34.56,0,0,0,8.36-.49,44.86,44.86,0,0,1,8.36-1,2.19,2.19,0,0,1,2.24,2.16,2.23,2.23,0,0,1-2.24,2,44.06,44.06,0,0,1-8.36-1,35.08,35.08,0,0,0-8.36-.49c-5.57.29-11.14,1.91-16.71,1.74-5.57.08-11.15-2-16.72-1.8-5.57-.09-11.14,1.41-16.71,1.54a2.23,2.23,0,0,1-2.37-2,2.19,2.19,0,0,1,2.25-2.16Z"/><path class="cls-3" d="M127.1,229.21c5.57.13,11.14,1.63,16.72,1.54,5.57.23,11.14-1.88,16.71-1.81,5.57-.16,11.14,1.46,16.72,1.75a35,35,0,0,0,8.35-.49,44.15,44.15,0,0,1,8.36-1,2.11,2.11,0,1,1,0,4.21,45,45,0,0,1-8.36-1,34.48,34.48,0,0,0-8.35-.49c-5.58.29-11.15,1.9-16.72,1.74-5.57.07-11.14-2-16.71-1.8-5.58-.09-11.15,1.4-16.72,1.53a2.11,2.11,0,1,1-.12-4.21h.12"/><path class="cls-3" d="M217,232.82a16.71,16.71,0,0,1,2.73-2.17c-1.64-1.34-4.74-2.25-8.3-2.25-5.26,0-9.53,4.42-9.53,4.42s4.27,4.43,9.53,4.43c3.56,0,6.66-.91,8.3-2.25a17,17,0,0,1-2.73-2.18"/><path class="cls-3" d="M165.44,195.69c5.57.13,11.14,1.63,16.71,1.54,5.58.23,11.15-1.88,16.72-1.81,5.57-.16,11.14,1.46,16.71,1.74a34.07,34.07,0,0,0,8.36-.49,45,45,0,0,1,8.36-1,2.21,2.21,0,0,1,2.25,2.16,2.24,2.24,0,0,1-2.25,2.05,45,45,0,0,1-8.36-1,34.07,34.07,0,0,0-8.36-.49c-5.57.28-11.14,1.9-16.71,1.74-5.57.07-11.14-2-16.72-1.81-5.57-.08-11.14,1.41-16.71,1.54a2.11,2.11,0,1,1-.12-4.21Z"/><path class="cls-3" d="M243.19,195.69c5.57.13,11.14,1.63,16.71,1.54,5.58.23,11.15-1.88,16.72-1.81,5.57-.16,11.14,1.46,16.71,1.74a34,34,0,0,0,8.36-.49,45,45,0,0,1,8.36-1,2.2,2.2,0,0,1,2.25,2.16,2.23,2.23,0,0,1-2.25,2.05,45,45,0,0,1-8.36-1,34,34,0,0,0-8.36-.49c-5.57.28-11.14,1.9-16.71,1.74-5.57.07-11.14-2-16.72-1.81-5.57-.08-11.14,1.41-16.71,1.54a2.11,2.11,0,1,1-.12-4.21Z"/><path class="cls-3" d="M235.4,204.44c5.57.13,11.14,1.62,16.71,1.53,5.58.24,11.15-1.87,16.72-1.8,5.57-.16,11.14,1.45,16.71,1.74a34.53,34.53,0,0,0,8.36-.49,45,45,0,0,1,8.36-1,2.2,2.2,0,0,1,2.25,2.16,2.24,2.24,0,0,1-2.25,2.05,44.15,44.15,0,0,1-8.36-1,35,35,0,0,0-8.36-.49c-5.57.29-11.14,1.91-16.71,1.74-5.57.08-11.14-2-16.72-1.8-5.57-.09-11.14,1.41-16.71,1.54a2.11,2.11,0,1,1-.12-4.21h.12"/><path class="cls-3" d="M235.4,178.2c5.57.12,11.14,1.62,16.71,1.53,5.58.24,11.15-1.88,16.72-1.8,5.57-.16,11.14,1.45,16.71,1.74a34.53,34.53,0,0,0,8.36-.49,45,45,0,0,1,8.36-1,2.11,2.11,0,1,1,0,4.2,45,45,0,0,1-8.36-1,34.53,34.53,0,0,0-8.36-.49c-5.57.29-11.14,1.9-16.71,1.74-5.57.08-11.14-2-16.72-1.8-5.57-.09-11.14,1.41-16.71,1.53a2.22,2.22,0,0,1-2.37-2.05,2.2,2.2,0,0,1,2.25-2.15h.12"/><path class="cls-3" d="M191.62,169.71c5.58.13,11.15,1.63,16.72,1.54,5.57.23,11.14-1.88,16.72-1.8,5.57-.17,11.14,1.45,16.71,1.74a35.11,35.11,0,0,0,8.36-.49,44,44,0,0,1,8.35-1,2.11,2.11,0,1,1,0,4.21,44.86,44.86,0,0,1-8.35-1,34.59,34.59,0,0,0-8.36-.49c-5.57.29-11.14,1.9-16.71,1.74-5.58.07-11.15-2-16.72-1.8-5.57-.09-11.14,1.4-16.72,1.53a2.22,2.22,0,0,1-2.36-2,2.2,2.2,0,0,1,2.25-2.16h.11"/><path class="cls-3" d="M213.06,160.7c5.57.13,11.14,1.63,16.71,1.54,5.57.23,11.14-1.88,16.72-1.81,5.57-.16,11.14,1.46,16.71,1.74a34.07,34.07,0,0,0,8.36-.49,45,45,0,0,1,8.36-1,2.19,2.19,0,0,1,2.24,2.16,2.22,2.22,0,0,1-2.24,2,45,45,0,0,1-8.36-1,34.07,34.07,0,0,0-8.36-.49c-5.57.28-11.14,1.9-16.71,1.74-5.58.07-11.15-2-16.72-1.81-5.57-.08-11.14,1.41-16.71,1.54a2.23,2.23,0,0,1-2.37-2,2.2,2.2,0,0,1,2.25-2.16h.12"/><path class="cls-3" d="M191.62,152.22c5.58.13,11.15,1.62,16.72,1.53,5.57.24,11.14-1.87,16.72-1.8,5.57-.16,11.14,1.45,16.71,1.74a34.59,34.59,0,0,0,8.36-.49,44.86,44.86,0,0,1,8.35-1,2.2,2.2,0,0,1,2.25,2.16,2.23,2.23,0,0,1-2.25,2.05,44,44,0,0,1-8.35-1,35.11,35.11,0,0,0-8.36-.49c-5.57.29-11.14,1.91-16.71,1.75-5.58.07-11.15-2-16.72-1.81-5.57-.09-11.14,1.41-16.72,1.54a2.22,2.22,0,0,1-2.36-2.05,2.19,2.19,0,0,1,2.25-2.16h.11"/><path class="cls-3" d="M235.4,143.74c5.57.12,11.14,1.62,16.71,1.53,5.58.24,11.15-1.88,16.72-1.8,5.57-.16,11.14,1.45,16.71,1.74a34.53,34.53,0,0,0,8.36-.49,45,45,0,0,1,8.36-1,2.11,2.11,0,1,1,0,4.2,45,45,0,0,1-8.36-1,34.53,34.53,0,0,0-8.36-.49c-5.57.29-11.14,1.9-16.71,1.74-5.57.08-11.14-2-16.72-1.8-5.57-.09-11.14,1.41-16.71,1.53a2.11,2.11,0,1,1-.12-4.2Z"/><path class="cls-3" d="M213.06,135c5.57.13,11.14,1.62,16.71,1.53,5.57.24,11.14-1.87,16.72-1.8,5.57-.16,11.14,1.46,16.71,1.74a34.56,34.56,0,0,0,8.36-.49,45,45,0,0,1,8.36-1,2.19,2.19,0,0,1,2.24,2.16,2.23,2.23,0,0,1-2.24,2,44.15,44.15,0,0,1-8.36-1,35.08,35.08,0,0,0-8.36-.49c-5.57.29-11.14,1.91-16.71,1.75-5.58.07-11.15-2-16.72-1.81-5.57-.09-11.14,1.41-16.71,1.54a2.23,2.23,0,0,1-2.37-2,2.19,2.19,0,0,1,2.25-2.16h.12"/><path class="cls-3" d="M235.4,126.24c5.57.13,11.14,1.63,16.71,1.54,5.58.23,11.15-1.88,16.72-1.81,5.57-.16,11.14,1.46,16.71,1.74a34.53,34.53,0,0,0,8.36-.48,44.15,44.15,0,0,1,8.36-1,2.2,2.2,0,0,1,2.25,2.16,2.23,2.23,0,0,1-2.25,2,45,45,0,0,1-8.36-1,34,34,0,0,0-8.36-.49c-5.57.28-11.14,1.9-16.71,1.74-5.57.07-11.14-2-16.72-1.81-5.57-.08-11.14,1.41-16.71,1.54a2.11,2.11,0,1,1-.12-4.21h.12"/><path class="cls-3" d="M191.62,212.92c5.58.13,11.15,1.62,16.72,1.54,5.57.23,11.14-1.88,16.72-1.81,5.57-.16,11.14,1.46,16.71,1.74a34.09,34.09,0,0,0,8.36-.49,44.86,44.86,0,0,1,8.35-1,2.2,2.2,0,0,1,2.25,2.16,2.22,2.22,0,0,1-2.25,2,44.86,44.86,0,0,1-8.35-1,34.09,34.09,0,0,0-8.36-.49c-5.57.28-11.14,1.9-16.71,1.74-5.58.07-11.15-2-16.72-1.81-5.57-.09-11.14,1.41-16.72,1.54a2.22,2.22,0,0,1-2.36-2,2.2,2.2,0,0,1,2.25-2.16h.11"/><path class="cls-3" d="M235.4,221.67c5.57.13,11.14,1.62,16.71,1.53,5.58.24,11.15-1.87,16.72-1.8,5.57-.16,11.14,1.45,16.71,1.74a34.53,34.53,0,0,0,8.36-.49,45,45,0,0,1,8.36-1,2.2,2.2,0,0,1,2.25,2.16,2.24,2.24,0,0,1-2.25,2,44.15,44.15,0,0,1-8.36-1,35,35,0,0,0-8.36-.49c-5.57.29-11.14,1.91-16.71,1.74-5.57.08-11.14-2-16.72-1.8-5.57-.09-11.14,1.41-16.71,1.54a2.11,2.11,0,1,1-.12-4.21Z"/><path class="cls-3" d="M213.06,191.27c5.57-.13,11.14-1.63,16.71-1.54,5.57-.23,11.14,1.88,16.72,1.81,5.57.16,11.14-1.46,16.71-1.74a34.07,34.07,0,0,1,8.36.49,45,45,0,0,0,8.36,1,2.19,2.19,0,0,0,2.24-2.16,2.22,2.22,0,0,0-2.24-2.05,45,45,0,0,0-8.36,1,34.07,34.07,0,0,1-8.36.49c-5.57-.28-11.14-1.9-16.71-1.74-5.58-.07-11.15,2-16.72,1.81-5.57.09-11.14-1.41-16.71-1.54a2.23,2.23,0,0,0-2.37,2.05,2.2,2.2,0,0,0,2.25,2.16h.12"/></g><path class="cls-4" d="M227.91,129.67a51,51,0,0,0,0,100.71,56.36,56.36,0,0,0,0-100.71"/><path class="cls-3" d="M227.91,231.24h-.13a51.82,51.82,0,0,1,0-102.42.81.81,0,0,1,.52.09,57.22,57.22,0,0,1,0,102.25.92.92,0,0,1-.39.09m-.14-100.67a50.08,50.08,0,0,0,0,98.91,55.49,55.49,0,0,0,0-98.91"/><path class="cls-3" d="M202.52,237.15A57.13,57.13,0,1,1,259.65,180a57.2,57.2,0,0,1-57.13,57.13m0-112.87A55.75,55.75,0,1,0,258.27,180a55.8,55.8,0,0,0-55.75-55.74"/><path class="cls-3" d="M260.23,185.76h0c5-1.64,10.81-7.59,10.08-9.85-.5-1.51-4.72-.49-5.08-1.6s3.66-2.76,3.16-4.28c-.73-2.25-8.9-3.67-13.94-2h0a20.07,20.07,0,0,0-7.74,5,56.29,56.29,0,0,0-4.4,5,58.08,58.08,0,0,0,3.4-5.61,20.33,20.33,0,0,0,2.37-9h0c0-5.29-3.88-12.63-6.25-12.63-1.6,0-1.93,4.34-3.09,4.34s-1.5-4.34-3.1-4.34c-2.37,0-6.24,7.34-6.24,12.63h0a20.12,20.12,0,0,0,2.33,8.9,55.5,55.5,0,0,0,3.37,5.72,58.21,58.21,0,0,0-4.28-5,20.18,20.18,0,0,0-7.8-5h0c-5-1.63-13.21-.21-13.94,2-.49,1.52,3.53,3.17,3.17,4.28s-4.59.09-5.08,1.6c-.74,2.26,5,8.21,10.08,9.85h0a20.14,20.14,0,0,0,9.19.53,55.16,55.16,0,0,0,6.48-1.44,55.59,55.59,0,0,0-6.05,2.55,20,20,0,0,0-7.19,5.86h0c-3.12,4.28-4.29,12.49-2.37,13.88,1.29.94,4.1-2.37,5.05-1.69s-1.34,4.39-.05,5.33c1.92,1.39,9.36-2.26,12.48-6.55h0a20.18,20.18,0,0,0,3.34-8.58,57.65,57.65,0,0,0,.64-6.61,54.26,54.26,0,0,0,.55,6.54,20.11,20.11,0,0,0,3.35,8.65h0c3.12,4.29,10.56,7.94,12.48,6.55,1.29-.94-1-4.64,0-5.33s3.76,2.63,5.06,1.69c1.91-1.39.74-9.6-2.37-13.88h0a20,20,0,0,0-7.12-5.83,57,57,0,0,0-6.09-2.65,57.88,57.88,0,0,0,6.38,1.5,20.17,20.17,0,0,0,9.26-.52m-5.51-9c4.21-1.15,4.85.87.73,2.33s-11.69,2.39-11.69,2.39,6.76-3.56,11-4.72m-4.33-2c3.83-2.09,4.91-.26,1.24,2.1s-10.83,5-10.83,5,5.76-5,9.59-7.11M227,174.61c3.83,2.09,9.59,7.1,9.59,7.1s-7.16-2.65-10.83-5-2.59-4.18,1.24-2.09m-4.31,2c4.19,1.24,10.87,4.93,10.87,4.93S226,180.49,221.91,179s-3.4-3.55.78-2.31m1.54,6.51c-4.33-.56-4.14-2.67.22-2.43S236.16,183,236.16,183s-7.61.67-11.93.11m2.66,8.5c3.17-3,9.72-6.93,9.72-6.93s-4.73,6-8.11,8.75-4.78,1.17-1.61-1.82m.6,4.72c2.47-3.59,8-8.81,8-8.81s-3.37,6.85-6.09,10.26-4.43,2.15-2-1.45m6.66.55c-1.87,3.94-3.81,3.11-2.23-1s5.81-10.42,5.81-10.42S236,193,234.15,196.92m.11-27.47c-.81-4.29,1.26-4.76,2.37-.54s1.42,11.85,1.42,11.85-3-7-3.79-11.31m4.38,8.38s-1.3-7.52-1.1-11.88,2.32-4.34,2.43,0-1.33,11.85-1.33,11.85m2.22-8.92c1.11-4.22,3.18-3.75,2.38.54s-3.8,11.31-3.8,11.31.31-7.63,1.42-11.85m2.2,28.1c-1.87-3.94-3.58-11.38-3.58-11.38s4.23,6.35,5.81,10.42-.36,4.91-2.23,1m4.68.89c-2.66-3.46-5.89-10.37-5.89-10.37s5.47,5.32,7.87,9,.68,4.87-2,1.41m2.58-6.16c3.17,3,1.77,4.59-1.6,1.82s-8.12-8.75-8.12-8.75,6.55,3.93,9.72,6.93m-9.09-8.56s7.35-2.06,11.7-2.31,4.56,1.86.23,2.42-11.93-.11-11.93-.11"/><path class="cls-3" d="M171.45,131.27h0c1.93-1.7,3.35-5.48,2.59-6.34-.52-.58-2.2.7-2.58.27s1.1-1.94.58-2.52c-.76-.87-4.68.08-6.61,1.79h0a9.75,9.75,0,0,0-2.49,3.72,27.15,27.15,0,0,0-1,3.07,29.89,29.89,0,0,0,.43-3.16,10,10,0,0,0-.68-4.46h0c-1-2.37-4.17-4.89-5.23-4.43-.71.31,0,2.31-.54,2.54s-1.51-1.65-2.22-1.34c-1.06.46-1.36,4.48-.34,6.85h0a9.86,9.86,0,0,0,2.77,3.52,30.05,30.05,0,0,0,2.61,1.9,26.88,26.88,0,0,0-2.87-1.39,9.89,9.89,0,0,0-4.45-.73h0c-2.56.25-5.93,2.46-5.82,3.61.07.77,2.19.73,2.24,1.3s-2,.92-2,1.7c.11,1.14,3.84,2.68,6.4,2.43h0a9.76,9.76,0,0,0,4.21-1.54,28,28,0,0,0,2.61-1.9,26.42,26.42,0,0,0-2.21,2.31,9.88,9.88,0,0,0-2.07,4h0c-.55,2.51.51,6.4,1.64,6.65.75.17,1.37-1.85,1.92-1.73s.25,2.22,1,2.39c1.13.25,3.74-2.83,4.3-5.34h0a9.72,9.72,0,0,0-.17-4.47,30.17,30.17,0,0,0-1-3.07A25.72,25.72,0,0,0,164,139.7a9.73,9.73,0,0,0,3.17,3.21h0c2.22,1.31,6.25,1.5,6.83.5.4-.67-1.34-1.88-1-2.36s2.19.44,2.58-.23c.59-1-1.53-4.43-3.75-5.74h0a9.83,9.83,0,0,0-4.31-1.22,28.78,28.78,0,0,0-3.23,0,26.2,26.2,0,0,0,3.14-.57,9.71,9.71,0,0,0,4-2"/><path class="cls-3" d="M212.13,115.06h0c1.4.3,3.57-.31,3.7-.94.09-.42-1-.76-1-1.07s1.24-.15,1.33-.57c.13-.63-1.59-2.08-3-2.38h0a5.47,5.47,0,0,0-2.5.12,15.87,15.87,0,0,0-1.71.56,14.89,14.89,0,0,0,1.56-.85,5.5,5.5,0,0,0,1.78-1.78h0c.72-1.24.81-3.49.25-3.81-.37-.22-1,.75-1.31.6s.24-1.23-.14-1.44c-.55-.33-2.46.87-3.18,2.11h0a5.61,5.61,0,0,0-.66,2.41c0,.47,0,1.13,0,1.8a13.77,13.77,0,0,0-.33-1.75,5.54,5.54,0,0,0-1.14-2.24h0c-1-1.07-3.07-1.85-3.55-1.42-.32.29.4,1.23.16,1.44s-1.08-.61-1.41-.32.07,2.62,1,3.69h0a5.44,5.44,0,0,0,2.09,1.37,14.11,14.11,0,0,0,1.72.55,16.29,16.29,0,0,0-1.77-.23,5.54,5.54,0,0,0-2.49.4h0c-1.31.58-2.71,2.35-2.45,2.94.18.4,1.29,0,1.42.29s-.91.85-.74,1.25c.27.58,2.51.74,3.83.16h0a5.46,5.46,0,0,0,1.95-1.56,14.76,14.76,0,0,0,1.05-1.47,15.58,15.58,0,0,0-.76,1.61,5.36,5.36,0,0,0-.39,2.49h0c.15,1.43,1.4,3.3,2,3.24.43,0,.4-1.23.71-1.26s.53,1.13,1,1.08c.64-.06,1.48-2.15,1.33-3.58h0a5.34,5.34,0,0,0-.88-2.34,14.62,14.62,0,0,0-1.07-1.45,15,15,0,0,0,1.3,1.22,5.55,5.55,0,0,0,2.24,1.14"/><path class="cls-3" d="M212.35,154.81a20.24,20.24,0,0,1-1.93,3.66c2.42.67,6.22.17,10.08-1.53,5.71-2.52,8.22-9.36,8.22-9.36s-6.75-2.75-12.45-.23c-3.86,1.7-6.8,4.16-7.93,6.4a19.89,19.89,0,0,1,4,1.06"/><path class="cls-3" d="M246.74,230.37a29.69,29.69,0,0,1,6.07-.54c-1.1-3.52-4.75-7.81-9.93-11.22-7.66-5.05-18.1-2.7-18.1-2.7s2,10.53,9.62,15.57c5.18,3.41,10.57,5.07,14.24,4.68a29.06,29.06,0,0,1-1.9-5.79"/><path class="cls-3" d="M220.72,243.09a16.22,16.22,0,0,1-.81,3.18c2,.08,4.82-1,7.49-3,3.94-3,4.61-8.74,4.61-8.74s-5.71-.88-9.65,2.12c-2.66,2-4.47,4.47-4.93,6.41a15.52,15.52,0,0,1,3.29.07"/><path class="cls-3" d="M144.64,276a8.85,8.85,0,0,1-.21,2.28A3.61,3.61,0,0,1,143.3,280a6.86,6.86,0,0,1-4.64,1.52,7.51,7.51,0,0,1-5.75-2.51c-.28.13-.54.78-.78,1.94h-.74v-6.72h.74c.78,4.37,2.86,6.56,6.21,6.56a4.82,4.82,0,0,0,3.2-1.05,3.75,3.75,0,0,0,1.37-3q0-2.39-3-3.9l-5.48-2.65a5.67,5.67,0,0,1-3-5,4.9,4.9,0,0,1,1.57-3.8A5.6,5.6,0,0,1,137,259.9a7,7,0,0,1,3.44.94c1.31.71,2,1.58,2,2.6a1.46,1.46,0,0,1-.28.8.75.75,0,0,1-.61.43.59.59,0,0,1-.66-.68,3.24,3.24,0,0,1,.08-.55,3,3,0,0,0,.08-.54,1,1,0,0,0-.21-.63,4.28,4.28,0,0,0-3.65-1.53,3.93,3.93,0,0,0-2.54.78,4.42,4.42,0,0,0-1.05,1.28,3.24,3.24,0,0,0-.53,1.62q0,2.25,3,3.72l5.59,2.69a6,6,0,0,1,3,5.2"/><path class="cls-3" d="M168.32,280.85h-7.81v-.65c.45,0,.91,0,1.36,0,.8-.12,1.21-.46,1.21-1t-.24-.84a7.83,7.83,0,0,1-.26-.84,11.8,11.8,0,0,0-3.05-5.07,15.64,15.64,0,0,0-4.76-3.49L153,273.09q-1.81,4.17-1.81,5.22a1.71,1.71,0,0,0,.65,1.42,2.47,2.47,0,0,0,1.6.47v.65h-6.24v-.65a3.75,3.75,0,0,0,3-2.29c.58-1.5,1-2.63,1.34-3.4q.24-.58,2.49-5.8a6.53,6.53,0,0,0-3.67-.74,9.73,9.73,0,0,0-4,.82c.74-1.21,2.28-1.81,4.64-1.81a12.39,12.39,0,0,1,3.47.5l3.25-7.64.18,0,1.63,3.7c.49,1.22,1.59,3.92,3.3,8.08a81.06,81.06,0,0,0,3.44,7.58c.26.45.94.77,2,1Zm-9.08-11.19-2.41-5.87-1.57,3.93a14.17,14.17,0,0,1,4,1.94"/><path class="cls-3" d="M199.67,281h-10.6v-.68c.53,0,1.08,0,1.68-.06.91-.05,1.36-.37,1.36-.94q0-.55-1.35-1.95l-6.87-6.95-1.46,1.33v6.58c0,1.34.8,2,2.39,2h.66V281h-9v-.6a4.29,4.29,0,0,0,2.54-.48,2.85,2.85,0,0,0,.81-2.39V263.28a3.76,3.76,0,0,0-.36-1.91,1.88,1.88,0,0,0-1.73-.74,5.61,5.61,0,0,0-4.27,1.58,6.09,6.09,0,0,0-1.5,4.37,8.66,8.66,0,0,0,1.3,4.84,6.61,6.61,0,0,0,4,2.85,7.69,7.69,0,0,1-5-1.87q-1.59-1.61-1.59-5v-1.95c.21-1.61,1.26-3,3.15-4.1a8.91,8.91,0,0,1,4.51-1.41h7.24v.76a7.28,7.28,0,0,0-2.21.21,1.67,1.67,0,0,0-1,1.74v8l4.7-4.17c2.6-2.33,3.91-3.84,3.91-4.51s-.75-1.22-2.23-1.33v-.71h7.92v.71a5.54,5.54,0,0,0-3.57,1.32,30.58,30.58,0,0,0-3.54,3.18,15.91,15.91,0,0,1-2.25,1.86l-1.71,1.16,5.77,6a58.47,58.47,0,0,0,5.8,5.4,5.25,5.25,0,0,0,2.44.53Z"/><path class="cls-3" d="M230.8,260.58c-2,.23-2.94,1.11-2.94,2.65v10q0,7.63-8.31,7.64a8.77,8.77,0,0,1-5.19-1.52,5.92,5.92,0,0,1-2.5-5.19V262.8c0-1.06-.3-1.72-.91-2a7.46,7.46,0,0,0-1.92-.13q-6.27,0-6.27,5.44c0,2.48.92,4.2,2.76,5.18a5.2,5.2,0,0,1-3.1-1.7,4.86,4.86,0,0,1-1.15-3.3,5.63,5.63,0,0,1,2.86-5,9.07,9.07,0,0,1,5-1.46h8.47v.68a5.58,5.58,0,0,0-2.44.34c-.49.28-.73.9-.73,1.86V274q0,5.93,5.87,5.92a7.38,7.38,0,0,0,4.78-1.49,5.39,5.39,0,0,0,2-4.45V263.17c0-1.61-1-2.47-3.09-2.59v-.68h6.84Z"/><path class="cls-3" d="M261.23,281h-5c-.12,0-.51-.35-1.18-1.05a13.44,13.44,0,0,1-1.1-1.28l-2.65-3.72a21.5,21.5,0,0,0-3.15-3.6,1.66,1.66,0,0,0-1.18-.24,12.72,12.72,0,0,0,4.75-1.7,4.39,4.39,0,0,0,1.6-3.75c0-2-.58-3.32-1.74-4a7.79,7.79,0,0,0-4-.79h-1.35v16.31a18.58,18.58,0,0,0,.13,1.87,1.61,1.61,0,0,0,1.52,1.31h1.95V281h-9.37v-.68c1.42.09,2.35-.14,2.81-.68a4.08,4.08,0,0,0,.47-2.36V263.91a5.27,5.27,0,0,0-.24-2,1.75,1.75,0,0,0-1.76-.87,12.62,12.62,0,0,0-5.55,1.05,4.7,4.7,0,0,0-2.81,4.52q0,5.26,5.93,7.71a7.2,7.2,0,0,1-5.3-1.75,6.46,6.46,0,0,1-2.05-5.07q0-6.12,7.82-7c2.29-.26,4-.41,5.24-.44l2.5-.08c3-.09,5.2.31,6.58,1.21a4.63,4.63,0,0,1,2.07,4.19,4.53,4.53,0,0,1-1.81,3.73,6.62,6.62,0,0,1-3.46,1.52,4.85,4.85,0,0,1,1.18,1.28c.88,1.26,1.38,2,1.52,2.15q1.95,2.54,3.25,3.91a8.26,8.26,0,0,0,2.31,1.74,4.73,4.73,0,0,0,2.05.57s0,0-.06-.05l.06,0Z"/><path class="cls-3" d="M284.39,280.85h-7.82v-.65c.46,0,.91,0,1.37,0q1.2-.18,1.2-1s-.07-.3-.23-.84-.23-.69-.27-.84a11.77,11.77,0,0,0-3-5.07,15.76,15.76,0,0,0-4.76-3.49l-1.8,4.18c-1.2,2.78-1.81,4.52-1.81,5.22a1.69,1.69,0,0,0,.66,1.42,2.45,2.45,0,0,0,1.6.47v.65h-6.24v-.65a3.75,3.75,0,0,0,3-2.29c.57-1.5,1-2.63,1.34-3.4.15-.39,1-2.32,2.49-5.8a6.56,6.56,0,0,0-3.67-.74,9.73,9.73,0,0,0-4,.82q1.09-1.82,4.64-1.81a12.32,12.32,0,0,1,3.46.5l3.26-7.64.18,0,1.63,3.7c.48,1.22,1.59,3.92,3.3,8.08a78.5,78.5,0,0,0,3.44,7.58c.26.45.93.77,2,1Zm-9.09-11.19-2.4-5.87-1.57,3.93a14,14,0,0,1,4,1.94"/><path class="cls-3" d="M155.9,299.57a4.16,4.16,0,0,1-1,2.85,3.45,3.45,0,0,1-2.73,1.18,2.91,2.91,0,0,1-2.45-1.3c-.13.11-.48.46-1,1.06a1.39,1.39,0,0,1-.92.55c-.41,0-.62-.19-.62-.59s.42-.77,1.24-.74V289.06a.54.54,0,0,0-.4-.52,1.44,1.44,0,0,0-.78-.13V288a6.42,6.42,0,0,0,2.33-.42h.16v13a2.84,2.84,0,0,0,.52,1.79,1.94,1.94,0,0,0,1.65.74q2.47,0,2.47-3.67,0-3.44-2.73-3.44a4.67,4.67,0,0,0-1,.08,3.4,3.4,0,0,1,4.3.68,4.12,4.12,0,0,1,.93,2.76"/><path class="cls-3" d="M164.92,298.48h-5.23v.88q0,3.78,2.52,3.78a2.7,2.7,0,0,0,2.61-1.25,2.54,2.54,0,0,1-1.19,1.29,3.56,3.56,0,0,1-1.74.46,3.46,3.46,0,0,1-2.66-1.13,3.94,3.94,0,0,1-1-2.78,4.26,4.26,0,0,1,1-2.83,3.36,3.36,0,0,1,2.69-1.21,3.3,3.3,0,0,1,2.07.74,2.32,2.32,0,0,1,1,1.89Zm-1.57-.36v-.83a1,1,0,0,0-.55-.84,2,2,0,0,0-1.08-.34,1.91,1.91,0,0,0-1.35.56,1.75,1.75,0,0,0-.58,1.31v.14Z"/><path class="cls-3" d="M175.31,302.42a1.1,1.1,0,0,1-.49.91,1.72,1.72,0,0,1-1,.37,1.51,1.51,0,0,1-1.51-1.32,5.51,5.51,0,0,1-3,1.32,2,2,0,0,1-1.3-.46,1.49,1.49,0,0,1-.55-1.2c0-.89.56-1.6,1.67-2.15l2.43-1.13c-1.71,1-2.57,2-2.57,3a1.42,1.42,0,0,0,.29.89.93.93,0,0,0,.79.37,3.73,3.73,0,0,0,2.27-1.18v-4.29c0-1-.59-1.48-1.78-1.48a1.58,1.58,0,0,0-1.33.48s-.11.33-.3.92a.62.62,0,0,1-.63.49c-.39,0-.58-.18-.58-.56,0-.66.45-1.14,1.35-1.45a5.25,5.25,0,0,1,1.69-.3c2,0,2.93.75,2.93,2.23v4.4c0,.49.19.74.58.74s.71-.3.73-.9h.34Z"/><path class="cls-3" d="M183.87,302.14a3,3,0,0,1-2.71,1.56,2.65,2.65,0,0,1-1.69-.57,1.91,1.91,0,0,1-.69-1.55v-4.41a.9.9,0,0,0-.35-.82,1.94,1.94,0,0,0-.91-.16v-.44h2.57v5.75a1.38,1.38,0,0,0,1.54,1.58,3.54,3.54,0,0,0,2.24-.94m3.45.58a.65.65,0,0,1-.5.62c-.14,0-.43.08-.85.14-.78.1-1.25.18-1.42.22a5.88,5.88,0,0,1-.32-2.4V297c0-.57-.36-.86-1.07-.86h-.28v-.42h2.67v6a2.87,2.87,0,0,0,.31,1.28,1.37,1.37,0,0,0,.4-.6c.11-.24.23-.36.38-.36a.82.82,0,0,1,.68.68"/><path class="cls-3" d="M195,302.32a1.85,1.85,0,0,1-.81,1,2.36,2.36,0,0,1-1.26.36,1.81,1.81,0,0,1-1.42-.62,2.2,2.2,0,0,1-.55-1.52v-5.69h-1.16v-.36a2,2,0,0,0,1.54-.83A3.41,3.41,0,0,0,192,293h.31v8.58a1.61,1.61,0,0,0,.32,1,1,1,0,0,0,.86.43c.36,0,.75-.27,1.17-.8l.3.16m-.14-6.27c0,.24-.23.36-.7.36a7.53,7.53,0,0,1-1.43-.3,9.17,9.17,0,0,1,1.55-.44c.39,0,.58.13.58.38"/><path class="cls-3" d="M205.41,296.43a5.92,5.92,0,0,0-1.81,2.7c-.25.62-1,2.45-2.34,5.51L200,307.58c-1.32,3.08-2.4,4.61-3.27,4.61-.44,0-.65-.18-.65-.56s.31-.81.93-1.14a3,3,0,0,0,1.17-.86l2.93-6.51a44.75,44.75,0,0,0,2.53-6.21c0-.35-.38-.52-1.13-.52v-.46h2.92Zm-4,5.15-.62,1.54a7.9,7.9,0,0,0-.24-1.55,13.66,13.66,0,0,0-.91-2.53c-.66-1.53-1.24-2.29-1.73-2.29s-.52.62-.48,1.87a8.25,8.25,0,0,1-.28-1.33c0-.91.34-1.36,1-1.36s1.6.9,2.33,2.71a19.8,19.8,0,0,1,.91,2.94"/><path class="cls-3" d="M219.64,301.49A2,2,0,0,1,219,303a2.21,2.21,0,0,1-1.58.6,2.29,2.29,0,0,1-1.8-.82,2.83,2.83,0,0,0-.38.82h-.33v-2.41h.33c.4,1.36,1.12,2,2.16,2a1.17,1.17,0,0,0,1.33-1.32,1.62,1.62,0,0,0-1-1.41l-1.83-1a2,2,0,0,1-.42-3.15,1.84,1.84,0,0,1,1.4-.61,2.23,2.23,0,0,1,1.35.46,1.39,1.39,0,0,1,.72,1.16.59.59,0,0,1-.13.36.35.35,0,0,1-.29.19c-.15,0-.24-.15-.28-.45a2.1,2.1,0,0,0-.22-.86,1.23,1.23,0,0,0-1.13-.46c-.81,0-1.22.36-1.22,1.09,0,.48.39.94,1.16,1.37l1.77.9a2.31,2.31,0,0,1,1,2"/><path class="cls-3" d="M227.11,302.32a1.85,1.85,0,0,1-.81,1,2.36,2.36,0,0,1-1.26.36,1.81,1.81,0,0,1-1.42-.62,2.2,2.2,0,0,1-.55-1.52v-5.69h-1.15v-.36a2,2,0,0,0,1.53-.83,3.31,3.31,0,0,0,.69-1.68h.32v8.58a1.61,1.61,0,0,0,.32,1,1,1,0,0,0,.86.43c.36,0,.75-.27,1.17-.8l.3.16m-.14-6.27c0,.24-.23.36-.7.36a7.53,7.53,0,0,1-1.43-.3,9.17,9.17,0,0,1,1.55-.44c.39,0,.58.13.58.38"/><path class="cls-3" d="M235.63,302.14a3,3,0,0,1-2.71,1.56,2.65,2.65,0,0,1-1.69-.57,1.92,1.92,0,0,1-.7-1.55v-4.41a.9.9,0,0,0-.34-.82,1.94,1.94,0,0,0-.91-.16v-.44h2.57v5.75a1.38,1.38,0,0,0,1.54,1.58,3.54,3.54,0,0,0,2.24-.94m3.45.58a.65.65,0,0,1-.5.62c-.14,0-.43.08-.85.14-.78.1-1.25.18-1.42.22a5.7,5.7,0,0,1-.32-2.4V297c0-.57-.36-.86-1.07-.86h-.28v-.42h2.66v6a2.88,2.88,0,0,0,.32,1.28,1.46,1.46,0,0,0,.4-.6c.11-.24.23-.36.38-.36a.85.85,0,0,1,.68.68"/><path class="cls-3" d="M251,302.94a.62.62,0,0,1-.25.49.81.81,0,0,1-.53.21h-1.15a5.52,5.52,0,0,0-1,.15,10.06,10.06,0,0,1-.18-1.27,3.73,3.73,0,0,1-2.78,1.27,3.13,3.13,0,0,1-2.55-1.25,4.09,4.09,0,0,1-1-2.72,4.25,4.25,0,0,1,.94-2.8,3.34,3.34,0,0,1,2.67-1.19,4.66,4.66,0,0,1,1.31.26q-3.4-.13-3.4,3.67c0,2.29.81,3.44,2.44,3.44a3,3,0,0,0,2.29-1.22V289c0-.26-.2-.44-.6-.51a1.69,1.69,0,0,0-.65,0v-.44l2.25-.36h.32v14.77c0,.36.14.54.32.54s.21-.11.41-.33a.77.77,0,0,1,.5-.33.64.64,0,0,1,.44.18.56.56,0,0,1,.2.42"/><path class="cls-3" d="M258.21,300.79a10.32,10.32,0,0,1-.52,1.67c-.37.78-.87,1.18-1.47,1.18-.87,0-1.3-.58-1.3-1.72v-4.83c0-.55-.14-.82-.42-.82s-.52.29-.85.88v-.25A1.39,1.39,0,0,1,254,296a1.15,1.15,0,0,1,.89-.44,1,1,0,0,1,.88.6,2.29,2.29,0,0,1,.26,1.1v4.32c0,.89.18,1.33.55,1.33s.76-.33,1.12-1a5.1,5.1,0,0,0,.48-1.1"/><path class="cls-3" d="M268.6,299.69a4,4,0,0,1-1.16,3,4,4,0,0,1-3,1.14,4.13,4.13,0,1,1,4.12-4.1m-1.58,0q0-3.71-2.52-3.7T262,299.71a5.72,5.72,0,0,0,.38,2.41,2.14,2.14,0,0,0,2.15,1.24q2.52,0,2.52-3.63"/></svg>