<svg id="レイヤー_1" data-name="レイヤー 1" xmlns="http://www.w3.org/2000/svg" xmlns:xlink="http://www.w3.org/1999/xlink" width="220.43" height="210.22" viewBox="0 0 277.43 210.22">
  <defs>
    <style>
      .cls-1 {
        fill: none;
      }

      .cls-2 {
        clip-path: url(#clip-path);
      }

      .cls-3 {
        fill: #e8588a;
      }

      .cls-4 {
        fill: #fff;
      }
    </style>
    <clipPath id="clip-path" transform="translate(-33.53 -100.49)">
      <path class="cls-1" d="M144.54,177.18a56.51,56.51,0,1,0,56.51-56.51,56.5,56.5,0,0,0-56.51,56.51"/>
    </clipPath>
  </defs>
  <g>
    <g class="cls-2">
      <path class="cls-3" d="M87.53,192.86c5.58.13,11.16,1.63,16.73,1.54,5.58.24,11.16-1.88,16.74-1.8,5.58-.16,11.16,1.45,16.74,1.74a34.59,34.59,0,0,0,8.36-.49,46,46,0,0,1,8.37-1,2.11,2.11,0,1,1,0,4.22,44.25,44.25,0,0,1-8.37-1,35.11,35.11,0,0,0-8.36-.49c-5.58.29-11.16,1.91-16.74,1.75-5.58.07-11.16-2-16.74-1.81-5.57-.09-11.15,1.41-16.73,1.54a2.12,2.12,0,1,1-.12-4.22Z" transform="translate(-33.53 -100.49)"/>
      <path class="cls-3" d="M79.73,201.62c5.58.13,11.16,1.63,16.73,1.54,5.58.24,11.16-1.88,16.74-1.8,5.58-.17,11.16,1.45,16.74,1.74a34.56,34.56,0,0,0,8.36-.49,44.25,44.25,0,0,1,8.37-1,2.11,2.11,0,1,1,0,4.22,44.25,44.25,0,0,1-8.37-1,34.56,34.56,0,0,0-8.36-.49c-5.58.29-11.16,1.91-16.74,1.75-5.58.07-11.16-2-16.74-1.81-5.57-.09-11.15,1.41-16.73,1.54a2.23,2.23,0,0,1-2.37-2.06,2.2,2.2,0,0,1,2.25-2.16h.12" transform="translate(-33.53 -100.49)"/>
      <path class="cls-3" d="M79.73,175.35c5.58.13,11.16,1.63,16.73,1.54,5.58.23,11.16-1.88,16.74-1.81,5.58-.16,11.16,1.46,16.74,1.74a34.07,34.07,0,0,0,8.36-.49,45.07,45.07,0,0,1,8.37-1,2.11,2.11,0,1,1,0,4.21,45.07,45.07,0,0,1-8.37-1,34.56,34.56,0,0,0-8.36-.49c-5.58.28-11.16,1.9-16.74,1.74-5.58.08-11.16-2-16.74-1.8-5.57-.09-11.15,1.4-16.73,1.53a2.23,2.23,0,0,1-2.37-2.05,2.2,2.2,0,0,1,2.25-2.16h.12" transform="translate(-33.53 -100.49)"/>
      <path class="cls-3" d="M35.9,166.86c5.58.12,11.16,1.62,16.74,1.53,5.58.24,11.15-1.88,16.73-1.8,5.58-.16,11.16,1.45,16.74,1.74a34.65,34.65,0,0,0,8.37-.49,44.86,44.86,0,0,1,8.36-1A2.21,2.21,0,0,1,105.1,169a2.24,2.24,0,0,1-2.26,2,44.86,44.86,0,0,1-8.36-1,34.65,34.65,0,0,0-8.37-.5c-5.58.29-11.16,1.91-16.74,1.75-5.58.07-11.15-2-16.73-1.81-5.58-.09-11.16,1.41-16.74,1.54a2.12,2.12,0,1,1-.11-4.21h.11" transform="translate(-33.53 -100.49)"/>
      <path class="cls-3" d="M57.36,157.83c5.58.13,11.16,1.63,16.73,1.54,5.58.23,11.16-1.88,16.74-1.8,5.58-.17,11.16,1.45,16.74,1.74a34.59,34.59,0,0,0,8.36-.49,44.25,44.25,0,0,1,8.37-1,2.21,2.21,0,0,1,2.25,2.17,2.23,2.23,0,0,1-2.25,2.05,44.25,44.25,0,0,1-8.37-1,34.59,34.59,0,0,0-8.36-.49c-5.58.29-11.16,1.91-16.74,1.75-5.58.07-11.16-2-16.74-1.81-5.57-.09-11.15,1.41-16.73,1.54A2.23,2.23,0,0,1,55,160a2.2,2.2,0,0,1,2.25-2.16h.12" transform="translate(-33.53 -100.49)"/>
      <path class="cls-3" d="M35.9,149.34c5.58.13,11.16,1.63,16.74,1.54,5.58.23,11.15-1.88,16.73-1.81,5.58-.16,11.16,1.46,16.74,1.75a35.16,35.16,0,0,0,8.37-.49,44.06,44.06,0,0,1,8.36-1,2.11,2.11,0,1,1,0,4.21,44.86,44.86,0,0,1-8.36-1,34.65,34.65,0,0,0-8.37-.49c-5.58.29-11.16,1.9-16.74,1.74-5.58.08-11.15-2-16.73-1.8-5.58-.09-11.16,1.41-16.74,1.53a2.12,2.12,0,1,1-.11-4.21h.11" transform="translate(-33.53 -100.49)"/>
      <path class="cls-3" d="M79.73,140.85c5.58.13,11.16,1.62,16.73,1.54,5.58.23,11.16-1.89,16.74-1.81,5.58-.16,11.16,1.46,16.74,1.74a34.56,34.56,0,0,0,8.36-.49,45.07,45.07,0,0,1,8.37-1,2.2,2.2,0,0,1,2.25,2.16,2.22,2.22,0,0,1-2.25,2.05,45.07,45.07,0,0,1-8.37-1,34.07,34.07,0,0,0-8.36-.49c-5.58.28-11.16,1.9-16.74,1.74-5.58.07-11.16-2-16.74-1.81-5.57-.09-11.15,1.41-16.73,1.54A2.23,2.23,0,0,1,77.36,143a2.19,2.19,0,0,1,2.25-2.16Z" transform="translate(-33.53 -100.49)"/>
      <path class="cls-3" d="M57.36,132.09c5.58.13,11.16,1.63,16.73,1.54,5.58.23,11.16-1.88,16.74-1.81,5.58-.16,11.16,1.46,16.74,1.74a34.09,34.09,0,0,0,8.36-.49,45.07,45.07,0,0,1,8.37-1,2.11,2.11,0,1,1,0,4.21,45.07,45.07,0,0,1-8.37-1,34.59,34.59,0,0,0-8.36-.49c-5.58.28-11.16,1.9-16.74,1.74-5.58.08-11.16-2-16.74-1.8-5.57-.09-11.15,1.4-16.73,1.53a2.11,2.11,0,1,1-.12-4.21h.12" transform="translate(-33.53 -100.49)"/>
      <path class="cls-3" d="M79.73,123.33c5.58.13,11.16,1.63,16.73,1.54,5.58.23,11.16-1.88,16.74-1.81,5.58-.16,11.16,1.46,16.74,1.75a35.08,35.08,0,0,0,8.36-.49,44.25,44.25,0,0,1,8.37-1,2.11,2.11,0,1,1,0,4.21,44.24,44.24,0,0,1-8.37-1,34.56,34.56,0,0,0-8.36-.49c-5.58.29-11.16,1.91-16.74,1.74-5.58.08-11.16-2-16.74-1.8-5.57-.09-11.15,1.41-16.73,1.53a2.23,2.23,0,0,1-2.37-2.05,2.2,2.2,0,0,1,2.25-2.16h.12" transform="translate(-33.53 -100.49)"/>
      <path class="cls-3" d="M35.9,210.12c5.58.12,11.16,1.62,16.74,1.53,5.58.24,11.15-1.88,16.73-1.8,5.58-.16,11.16,1.45,16.74,1.74a34.65,34.65,0,0,0,8.37-.49,44.86,44.86,0,0,1,8.36-1,2.21,2.21,0,0,1,2.26,2.16,2.24,2.24,0,0,1-2.26,2.05,44.86,44.86,0,0,1-8.36-1,34.15,34.15,0,0,0-8.37-.49c-5.58.28-11.16,1.9-16.74,1.74-5.58.07-11.15-2-16.73-1.81-5.58-.09-11.16,1.41-16.74,1.54a2.12,2.12,0,1,1-.11-4.21h.11" transform="translate(-33.53 -100.49)"/>
      <path class="cls-3" d="M79.73,218.87c5.58.13,11.16,1.63,16.73,1.54,5.58.24,11.16-1.88,16.74-1.8,5.58-.17,11.16,1.45,16.74,1.74a34.56,34.56,0,0,0,8.36-.49,44.25,44.25,0,0,1,8.37-1,2.11,2.11,0,1,1,0,4.22,44.25,44.25,0,0,1-8.37-1,35.08,35.08,0,0,0-8.36-.49c-5.58.29-11.16,1.91-16.74,1.75-5.58.07-11.16-2-16.74-1.81-5.57-.09-11.15,1.41-16.73,1.54A2.23,2.23,0,0,1,77.36,221a2.2,2.2,0,0,1,2.25-2.16Z" transform="translate(-33.53 -100.49)"/>
      <path class="cls-3" d="M57.36,227.37c5.58.13,11.16,1.62,16.73,1.53,5.58.24,11.16-1.88,16.74-1.8,5.58-.16,11.16,1.46,16.74,1.74a34.59,34.59,0,0,0,8.36-.49,45.07,45.07,0,0,1,8.37-1,2.2,2.2,0,0,1,2.25,2.16,2.22,2.22,0,0,1-2.25,2.05,45.07,45.07,0,0,1-8.37-1,34.09,34.09,0,0,0-8.36-.49c-5.58.28-11.16,1.9-16.74,1.74-5.58.07-11.16-2-16.74-1.81-5.57-.09-11.15,1.41-16.73,1.54A2.23,2.23,0,0,1,55,229.53a2.2,2.2,0,0,1,2.25-2.16h.12" transform="translate(-33.53 -100.49)"/>
      <path class="cls-3" d="M57.36,188.44c5.58-.13,11.16-1.63,16.73-1.54,5.58-.23,11.16,1.88,16.74,1.81,5.58.16,11.16-1.46,16.74-1.75a35.11,35.11,0,0,1,8.36.49,44.25,44.25,0,0,0,8.37,1,2.11,2.11,0,1,0,0-4.21,45.07,45.07,0,0,0-8.37,1,34.59,34.59,0,0,1-8.36.49c-5.58-.29-11.16-1.9-16.74-1.74-5.58-.08-11.16,2-16.74,1.8-5.57.09-11.15-1.41-16.73-1.53a2.11,2.11,0,1,0-.12,4.21h.12" transform="translate(-33.53 -100.49)"/>
      <path class="cls-3" d="M112.29,166.86c5.58.12,11.16,1.62,16.74,1.53,5.58.24,11.16-1.88,16.73-1.8,5.58-.16,11.16,1.45,16.74,1.74a34.65,34.65,0,0,0,8.37-.49,45,45,0,0,1,8.36-1,2.2,2.2,0,0,1,2.25,2.16,2.22,2.22,0,0,1-2.25,2,45,45,0,0,1-8.36-1,34.65,34.65,0,0,0-8.37-.5c-5.58.29-11.16,1.91-16.74,1.75-5.57.07-11.15-2-16.73-1.81-5.58-.09-11.16,1.41-16.74,1.54a2.12,2.12,0,1,1-.11-4.21h.11" transform="translate(-33.53 -100.49)"/>
      <path class="cls-3" d="M177.23,182a29,29,0,0,1,4.67-3.71c-2.8-2.29-8.1-3.84-14.17-3.84-9,0-16.28,7.55-16.28,7.55s7.29,7.56,16.28,7.56c6.07,0,11.37-1.55,14.17-3.84a28.74,28.74,0,0,1-4.67-3.72" transform="translate(-33.53 -100.49)"/>
      <path class="cls-3" d="M133.75,157.83c5.58.13,11.16,1.63,16.74,1.54,5.57.23,11.15-1.88,16.73-1.8,5.58-.17,11.16,1.45,16.74,1.74a34.53,34.53,0,0,0,8.36-.49,44.25,44.25,0,0,1,8.37-1,2.21,2.21,0,0,1,2.25,2.17,2.23,2.23,0,0,1-2.25,2.05,44.25,44.25,0,0,1-8.37-1,34.53,34.53,0,0,0-8.36-.49c-5.58.29-11.16,1.91-16.74,1.75-5.58.07-11.16-2-16.73-1.81-5.58-.09-11.16,1.41-16.74,1.54a2.12,2.12,0,1,1-.12-4.22h.12" transform="translate(-33.53 -100.49)"/>
      <path class="cls-3" d="M112.29,149.34c5.58.13,11.16,1.63,16.74,1.54,5.58.23,11.16-1.88,16.73-1.81,5.58-.16,11.16,1.46,16.74,1.75a35.16,35.16,0,0,0,8.37-.49,44.15,44.15,0,0,1,8.36-1,2.11,2.11,0,1,1,0,4.21,45,45,0,0,1-8.36-1,34.65,34.65,0,0,0-8.37-.49c-5.58.29-11.16,1.9-16.74,1.74-5.57.08-11.15-2-16.73-1.8-5.58-.09-11.16,1.41-16.74,1.53a2.12,2.12,0,1,1-.11-4.21h.11" transform="translate(-33.53 -100.49)"/>
      <path class="cls-3" d="M156.12,140.85c5.58.13,11.16,1.62,16.74,1.54,5.57.23,11.15-1.89,16.73-1.81,5.58-.16,11.16,1.46,16.74,1.74a34.59,34.59,0,0,0,8.36-.49,45.07,45.07,0,0,1,8.37-1,2.2,2.2,0,0,1,2.25,2.16,2.22,2.22,0,0,1-2.25,2.05,45.07,45.07,0,0,1-8.37-1,34.09,34.09,0,0,0-8.36-.49c-5.58.28-11.16,1.9-16.74,1.74-5.58.07-11.16-2-16.73-1.81-5.58-.09-11.16,1.41-16.74,1.54a2.23,2.23,0,0,1-2.37-2.05,2.2,2.2,0,0,1,2.25-2.16Z" transform="translate(-33.53 -100.49)"/>
      <path class="cls-3" d="M115.78,132.09c5.58.13,11.16,1.63,16.74,1.54,5.57.23,11.15-1.88,16.73-1.81,5.58-.16,11.16,1.46,16.74,1.74a34.07,34.07,0,0,0,8.36-.49,45.07,45.07,0,0,1,8.37-1,2.11,2.11,0,1,1,0,4.21,45.07,45.07,0,0,1-8.37-1,34.56,34.56,0,0,0-8.36-.49c-5.58.28-11.16,1.9-16.74,1.74-5.58.08-11.16-2-16.73-1.8-5.58-.09-11.16,1.4-16.74,1.53a2.11,2.11,0,1,1-.12-4.21h.12" transform="translate(-33.53 -100.49)"/>
      <path class="cls-3" d="M201.36,134a16.8,16.8,0,0,1,2.74-2.18c-1.64-1.34-4.75-2.25-8.31-2.25-5.27,0-9.55,4.43-9.55,4.43s4.28,4.43,9.55,4.43c3.56,0,6.67-.91,8.31-2.25a17.46,17.46,0,0,1-2.74-2.18" transform="translate(-33.53 -100.49)"/>
      <path class="cls-3" d="M156.12,123.33c5.58.13,11.16,1.63,16.74,1.54,5.57.23,11.15-1.88,16.73-1.81,5.58-.16,11.16,1.46,16.74,1.75a35.11,35.11,0,0,0,8.36-.49,44.25,44.25,0,0,1,8.37-1,2.11,2.11,0,1,1,0,4.21,44.24,44.24,0,0,1-8.37-1,34.59,34.59,0,0,0-8.36-.49c-5.58.29-11.16,1.91-16.74,1.74-5.58.08-11.16-2-16.73-1.8-5.58-.09-11.16,1.41-16.74,1.53a2.11,2.11,0,1,1-.12-4.21h.12" transform="translate(-33.53 -100.49)"/>
      <path class="cls-3" d="M158.6,209a28.74,28.74,0,0,1-4.67,3.72c2.8,2.29,8.1,3.84,14.18,3.84,9,0,16.27-7.56,16.27-7.56s-7.29-7.55-16.27-7.55c-6.08,0-11.38,1.54-14.18,3.84A28.41,28.41,0,0,1,158.6,209" transform="translate(-33.53 -100.49)"/>
      <path class="cls-3" d="M156.12,218.87c5.58.13,11.16,1.63,16.74,1.54,5.57.24,11.15-1.88,16.73-1.8,5.58-.17,11.16,1.45,16.74,1.74a34.59,34.59,0,0,0,8.36-.49,44.25,44.25,0,0,1,8.37-1,2.11,2.11,0,1,1,0,4.22,44.25,44.25,0,0,1-8.37-1,35.11,35.11,0,0,0-8.36-.49c-5.58.29-11.16,1.91-16.74,1.75-5.58.07-11.16-2-16.73-1.81-5.58-.09-11.16,1.41-16.74,1.54a2.23,2.23,0,0,1-2.37-2.06,2.2,2.2,0,0,1,2.25-2.16Z" transform="translate(-33.53 -100.49)"/>
      <path class="cls-3" d="M125.54,226.43c5.58.13,11.15,1.62,16.73,1.54,5.58.23,11.16-1.88,16.74-1.81,5.58-.16,11.15,1.46,16.73,1.74a34.15,34.15,0,0,0,8.37-.49,45.07,45.07,0,0,1,8.37-1,2.11,2.11,0,1,1,0,4.21,45.07,45.07,0,0,1-8.37-1,34.15,34.15,0,0,0-8.37-.49c-5.58.28-11.15,1.9-16.73,1.74-5.58.08-11.16-2-16.74-1.8-5.58-.09-11.15,1.4-16.73,1.53a2.24,2.24,0,0,1-2.38-2,2.21,2.21,0,0,1,2.26-2.16h.12" transform="translate(-33.53 -100.49)"/>
      <path class="cls-3" d="M215.55,230a17.46,17.46,0,0,1,2.74-2.18c-1.64-1.34-4.75-2.25-8.31-2.25-5.27,0-9.54,4.43-9.54,4.43s4.27,4.43,9.54,4.43c3.56,0,6.67-.9,8.31-2.25a16.8,16.8,0,0,1-2.74-2.18" transform="translate(-33.53 -100.49)"/>
      <path class="cls-3" d="M163.92,192.86c5.58.13,11.16,1.63,16.74,1.54,5.58.24,11.15-1.88,16.73-1.8,5.58-.16,11.16,1.45,16.74,1.74a34.53,34.53,0,0,0,8.36-.49,46,46,0,0,1,8.37-1,2.11,2.11,0,1,1,0,4.22,44.25,44.25,0,0,1-8.37-1,35,35,0,0,0-8.36-.49c-5.58.29-11.16,1.91-16.74,1.75-5.58.07-11.15-2-16.73-1.81-5.58-.09-11.16,1.41-16.74,1.54a2.12,2.12,0,1,1-.12-4.22Z" transform="translate(-33.53 -100.49)"/>
      <path class="cls-3" d="M241.77,192.86c5.58.13,11.16,1.63,16.73,1.54,5.58.24,11.16-1.88,16.74-1.8,5.58-.16,11.15,1.45,16.73,1.74a34.65,34.65,0,0,0,8.37-.49,46,46,0,0,1,8.37-1,2.11,2.11,0,1,1,0,4.22,44.25,44.25,0,0,1-8.37-1,35.16,35.16,0,0,0-8.37-.49c-5.58.29-11.15,1.91-16.73,1.75-5.58.07-11.16-2-16.74-1.81-5.57-.09-11.15,1.41-16.73,1.54a2.12,2.12,0,1,1-.12-4.22Z" transform="translate(-33.53 -100.49)"/>
      <path class="cls-3" d="M234,201.62c5.58.13,11.15,1.63,16.73,1.54,5.58.24,11.16-1.88,16.74-1.8,5.58-.17,11.15,1.45,16.73,1.74a34.65,34.65,0,0,0,8.37-.49,44.25,44.25,0,0,1,8.37-1,2.11,2.11,0,1,1,0,4.22,44.25,44.25,0,0,1-8.37-1,34.65,34.65,0,0,0-8.37-.49c-5.58.29-11.15,1.91-16.73,1.75-5.58.07-11.16-2-16.74-1.81-5.58-.09-11.15,1.41-16.73,1.54a2.23,2.23,0,0,1-2.37-2.06,2.2,2.2,0,0,1,2.25-2.16H234" transform="translate(-33.53 -100.49)"/>
      <path class="cls-3" d="M234,175.35c5.58.13,11.15,1.63,16.73,1.54,5.58.23,11.16-1.88,16.74-1.81,5.58-.16,11.15,1.46,16.73,1.74a34.15,34.15,0,0,0,8.37-.49,45.07,45.07,0,0,1,8.37-1,2.11,2.11,0,1,1,0,4.21,45.07,45.07,0,0,1-8.37-1,34.65,34.65,0,0,0-8.37-.49c-5.58.28-11.15,1.9-16.73,1.74-5.58.08-11.16-2-16.74-1.8-5.58-.09-11.15,1.4-16.73,1.53a2.23,2.23,0,0,1-2.37-2.05,2.2,2.2,0,0,1,2.25-2.16H234" transform="translate(-33.53 -100.49)"/>
      <path class="cls-3" d="M190.14,166.86c5.58.12,11.16,1.62,16.74,1.53,5.58.24,11.15-1.88,16.73-1.8,5.58-.16,11.16,1.45,16.74,1.74a34.59,34.59,0,0,0,8.36-.49,45.07,45.07,0,0,1,8.37-1,2.2,2.2,0,0,1,2.25,2.16,2.22,2.22,0,0,1-2.25,2,45.07,45.07,0,0,1-8.37-1,34.6,34.6,0,0,0-8.36-.5c-5.58.29-11.16,1.91-16.74,1.75-5.58.07-11.15-2-16.73-1.81-5.58-.09-11.16,1.41-16.74,1.54a2.11,2.11,0,1,1-.12-4.21h.12" transform="translate(-33.53 -100.49)"/>
      <path class="cls-3" d="M211.6,157.83c5.58.13,11.15,1.63,16.73,1.54,5.58.23,11.16-1.88,16.74-1.8,5.58-.17,11.16,1.45,16.73,1.74a34.65,34.65,0,0,0,8.37-.49,44.25,44.25,0,0,1,8.37-1,2.11,2.11,0,1,1,0,4.22,44.25,44.25,0,0,1-8.37-1,34.65,34.65,0,0,0-8.37-.49c-5.57.29-11.15,1.91-16.73,1.75-5.58.07-11.16-2-16.74-1.81-5.58-.09-11.15,1.41-16.73,1.54a2.23,2.23,0,0,1-2.37-2.06,2.2,2.2,0,0,1,2.25-2.16h.12" transform="translate(-33.53 -100.49)"/>
      <path class="cls-3" d="M190.14,149.34c5.58.13,11.16,1.63,16.74,1.54,5.58.23,11.15-1.88,16.73-1.81,5.58-.16,11.16,1.46,16.74,1.75a35.11,35.11,0,0,0,8.36-.49,44.25,44.25,0,0,1,8.37-1,2.11,2.11,0,1,1,0,4.21,45.07,45.07,0,0,1-8.37-1,34.59,34.59,0,0,0-8.36-.49c-5.58.29-11.16,1.9-16.74,1.74-5.58.08-11.15-2-16.73-1.8-5.58-.09-11.16,1.41-16.74,1.53a2.11,2.11,0,1,1-.12-4.21h.12" transform="translate(-33.53 -100.49)"/>
      <path class="cls-3" d="M234,140.85c5.58.13,11.15,1.62,16.73,1.54,5.58.23,11.16-1.89,16.74-1.81,5.58-.16,11.15,1.46,16.73,1.74a34.65,34.65,0,0,0,8.37-.49,45.07,45.07,0,0,1,8.37-1,2.2,2.2,0,0,1,2.25,2.16,2.23,2.23,0,0,1-2.25,2.05,45.07,45.07,0,0,1-8.37-1,34.15,34.15,0,0,0-8.37-.49c-5.58.28-11.15,1.9-16.73,1.74-5.58.07-11.16-2-16.74-1.81-5.58-.09-11.15,1.41-16.73,1.54A2.23,2.23,0,0,1,231.6,143a2.19,2.19,0,0,1,2.25-2.16Z" transform="translate(-33.53 -100.49)"/>
      <path class="cls-3" d="M211.6,132.09c5.58.13,11.15,1.63,16.73,1.54,5.58.23,11.16-1.88,16.74-1.81,5.58-.16,11.16,1.46,16.73,1.74a34.15,34.15,0,0,0,8.37-.49,45.07,45.07,0,0,1,8.37-1,2.11,2.11,0,1,1,0,4.21,45.07,45.07,0,0,1-8.37-1,34.65,34.65,0,0,0-8.37-.49c-5.57.28-11.15,1.9-16.73,1.74-5.58.08-11.16-2-16.74-1.8-5.58-.09-11.15,1.4-16.73,1.53a2.23,2.23,0,0,1-2.37-2.05,2.2,2.2,0,0,1,2.25-2.16h.12" transform="translate(-33.53 -100.49)"/>
      <path class="cls-3" d="M234,123.33c5.58.13,11.15,1.63,16.73,1.54,5.58.23,11.16-1.88,16.74-1.81,5.58-.16,11.15,1.46,16.73,1.75a35.16,35.16,0,0,0,8.37-.49,44.25,44.25,0,0,1,8.37-1,2.11,2.11,0,1,1,0,4.21,44.24,44.24,0,0,1-8.37-1,34.65,34.65,0,0,0-8.37-.49c-5.58.29-11.15,1.91-16.73,1.74-5.58.08-11.16-2-16.74-1.8-5.58-.09-11.15,1.41-16.73,1.53a2.23,2.23,0,0,1-2.37-2.05,2.2,2.2,0,0,1,2.25-2.16H234" transform="translate(-33.53 -100.49)"/>
      <path class="cls-3" d="M190.14,210.12c5.58.12,11.16,1.62,16.74,1.53,5.58.24,11.15-1.88,16.73-1.8,5.58-.16,11.16,1.45,16.74,1.74a34.59,34.59,0,0,0,8.36-.49,45.07,45.07,0,0,1,8.37-1,2.2,2.2,0,0,1,2.25,2.16,2.22,2.22,0,0,1-2.25,2.05,45.07,45.07,0,0,1-8.37-1,34.09,34.09,0,0,0-8.36-.49c-5.58.28-11.16,1.9-16.74,1.74-5.58.07-11.15-2-16.73-1.81-5.58-.09-11.16,1.41-16.74,1.54a2.11,2.11,0,1,1-.12-4.21h.12" transform="translate(-33.53 -100.49)"/>
      <path class="cls-3" d="M234,218.87c5.58.13,11.15,1.63,16.73,1.54,5.58.24,11.16-1.88,16.74-1.8,5.58-.17,11.15,1.45,16.73,1.74a34.65,34.65,0,0,0,8.37-.49,44.25,44.25,0,0,1,8.37-1,2.11,2.11,0,1,1,0,4.22,44.25,44.25,0,0,1-8.37-1,35.16,35.16,0,0,0-8.37-.49c-5.58.29-11.15,1.91-16.73,1.75-5.58.07-11.16-2-16.74-1.81-5.58-.09-11.15,1.41-16.73,1.54A2.23,2.23,0,0,1,231.6,221a2.2,2.2,0,0,1,2.25-2.16Z" transform="translate(-33.53 -100.49)"/>
      <path class="cls-3" d="M211.6,188.44c5.58-.13,11.15-1.63,16.73-1.54,5.58-.23,11.16,1.88,16.74,1.81,5.58.16,11.16-1.46,16.73-1.75a35.16,35.16,0,0,1,8.37.49,44.25,44.25,0,0,0,8.37,1,2.11,2.11,0,1,0,0-4.21,45.07,45.07,0,0,0-8.37,1,34.65,34.65,0,0,1-8.37.49c-5.57-.29-11.15-1.9-16.73-1.74-5.58-.08-11.16,2-16.74,1.8-5.58.09-11.15-1.41-16.73-1.53a2.23,2.23,0,0,0-2.37,2.05,2.2,2.2,0,0,0,2.25,2.16h.12" transform="translate(-33.53 -100.49)"/>
    </g>
    <path class="cls-4" d="M226.47,126.76a51,51,0,0,0,0,100.83,56.43,56.43,0,0,0,0-100.83" transform="translate(-33.53 -100.49)"/>
    <path class="cls-3" d="M226.47,228.46h-.13a51.88,51.88,0,0,1,0-102.54.8.8,0,0,1,.52.08,57.29,57.29,0,0,1,0,102.37.81.81,0,0,1-.39.1m-.14-100.8a50.14,50.14,0,0,0,0,99,55.56,55.56,0,0,0,0-99" transform="translate(-33.53 -100.49)"/>
    <path class="cls-3" d="M201.05,234.38a57.2,57.2,0,1,1,57.2-57.2,57.27,57.27,0,0,1-57.2,57.2m0-113a55.81,55.81,0,1,0,55.81,55.81,55.87,55.87,0,0,0-55.81-55.81" transform="translate(-33.53 -100.49)"/>
    <path class="cls-3" d="M258.83,182.92h0c5.05-1.64,10.83-7.6,10.1-9.86-.5-1.52-4.73-.49-5.09-1.6s3.67-2.77,3.17-4.29c-.73-2.25-8.91-3.67-14-2h0a20,20,0,0,0-7.75,5,56.29,56.29,0,0,0-4.4,5,56.91,56.91,0,0,0,3.4-5.62,20.06,20.06,0,0,0,2.37-9h0c0-5.31-3.88-12.65-6.25-12.65-1.6,0-1.93,4.34-3.1,4.34s-1.5-4.34-3.1-4.34c-2.37,0-6.25,7.34-6.25,12.65h0a20,20,0,0,0,2.34,8.91,57.72,57.72,0,0,0,3.37,5.73,57.12,57.12,0,0,0-4.29-5,20,20,0,0,0-7.81-5h0c-5-1.63-13.22-.21-13.95,2-.5,1.52,3.53,3.18,3.17,4.29s-4.6.08-5.09,1.6c-.73,2.26,5.05,8.22,10.09,9.86h0a19.93,19.93,0,0,0,9.2.53,56.64,56.64,0,0,0,6.49-1.43,56.61,56.61,0,0,0-6.05,2.54,20.13,20.13,0,0,0-7.2,5.87h0c-3.12,4.29-4.3,12.51-2.38,13.9,1.3.94,4.11-2.38,5.06-1.69s-1.34,4.39,0,5.33c1.92,1.4,9.37-2.26,12.49-6.55h0a20.11,20.11,0,0,0,3.35-8.59,55.48,55.48,0,0,0,.64-6.61,56.39,56.39,0,0,0,.55,6.54,20.1,20.1,0,0,0,3.35,8.66h0c3.12,4.29,10.57,7.95,12.49,6.55,1.3-.94-1-4.64,0-5.33s3.76,2.63,5,1.69c1.92-1.39.75-9.61-2.37-13.9h0a20.23,20.23,0,0,0-7.14-5.84,57,57,0,0,0-6.09-2.65,57.47,57.47,0,0,0,6.39,1.5,20.07,20.07,0,0,0,9.27-.52m-5.51-9c4.21-1.16,4.84.86.72,2.32s-11.7,2.4-11.7,2.4,6.76-3.56,11-4.72m-4.35-2c3.84-2.09,4.92-.26,1.25,2.1s-10.85,5-10.85,5,5.77-5,9.6-7.12m-23.41-.14c3.83,2.09,9.6,7.11,9.6,7.11s-7.17-2.65-10.85-5-2.59-4.19,1.25-2.09m-4.32,2c4.19,1.24,10.88,4.94,10.88,4.94s-7.56-1.09-11.65-2.63-3.42-3.55.77-2.31m1.54,6.52c-4.33-.56-4.14-2.68.22-2.43s11.73,2.32,11.73,2.32-7.62.67-11.95.11m2.67,8.5c3.17-3,9.73-6.93,9.73-6.93s-4.74,6-8.12,8.77-4.79,1.16-1.61-1.84m.6,4.74c2.47-3.6,8.06-8.82,8.06-8.82s-3.37,6.86-6.1,10.27-4.43,2.15-2-1.45m6.67.55c-1.87,4-3.82,3.11-2.24-1s5.83-10.43,5.83-10.43-1.72,7.45-3.59,11.4m.1-27.51c-.8-4.29,1.27-4.76,2.38-.53s1.42,11.86,1.42,11.86-3-7-3.8-11.33m4.39,8.4s-1.3-7.53-1.1-11.9,2.32-4.34,2.44,0S237.21,175,237.21,175m2.23-8.93c1.11-4.23,3.18-3.76,2.37.53s-3.8,11.33-3.8,11.33.31-7.64,1.43-11.86m2.2,28.13c-1.88-3.95-3.59-11.4-3.59-11.4s4.24,6.36,5.82,10.43-.36,4.92-2.23,1m4.68.89c-2.66-3.47-5.89-10.39-5.89-10.39s5.47,5.33,7.88,9,.67,4.88-2,1.41m2.59-6.17c3.18,3,1.77,4.59-1.61,1.83s-8.12-8.77-8.12-8.77,6.55,3.93,9.73,6.94m-9.11-8.57s7.36-2.07,11.72-2.31,4.56,1.86.23,2.42-11.95-.11-11.95-.11" transform="translate(-33.53 -100.49)"/>
    <path class="cls-3" d="M169.94,128.36h0c1.93-1.71,3.36-5.49,2.59-6.35-.51-.58-2.2.69-2.58.27s1.1-2,.58-2.53c-.76-.86-4.68.09-6.62,1.8h0a9.75,9.75,0,0,0-2.49,3.72,26.73,26.73,0,0,0-1,3.08,30,30,0,0,0,.43-3.17,9.8,9.8,0,0,0-.69-4.46h0c-1-2.36-4.18-4.89-5.24-4.43-.71.31,0,2.31-.54,2.54s-1.51-1.65-2.22-1.34c-1.06.46-1.37,4.49-.34,6.86h0a9.78,9.78,0,0,0,2.77,3.52,25.47,25.47,0,0,0,2.62,1.9,29.76,29.76,0,0,0-2.88-1.38,9.64,9.64,0,0,0-4.46-.73h0c-2.57.24-5.94,2.46-5.83,3.61.07.78,2.19.73,2.24,1.3s-2,.93-2,1.7c.12,1.15,3.85,2.69,6.42,2.44h0a9.7,9.7,0,0,0,4.21-1.55,28.18,28.18,0,0,0,2.61-1.89,29.42,29.42,0,0,0-2.2,2.3,9.91,9.91,0,0,0-2.08,4h0c-.56,2.52.51,6.41,1.64,6.66.76.17,1.37-1.86,1.93-1.73s.25,2.22,1,2.38c1.12.26,3.74-2.82,4.3-5.34h0a9.76,9.76,0,0,0-.17-4.48,28.23,28.23,0,0,0-1-3.08,26.66,26.66,0,0,0,1.52,2.82,9.83,9.83,0,0,0,3.17,3.21h0c2.22,1.31,6.25,1.5,6.84.5.39-.67-1.34-1.88-1.06-2.37s2.19.45,2.59-.22c.58-1-1.53-4.43-3.76-5.74h0A9.87,9.87,0,0,0,166,131a28.8,28.8,0,0,0-3.23,0,27,27,0,0,0,3.14-.57,9.67,9.67,0,0,0,4-2" transform="translate(-33.53 -100.49)"/>
    <path class="cls-3" d="M210.67,112.14h0c1.4.3,3.57-.31,3.71-.94.09-.43-1-.76-1-1.07s1.24-.15,1.33-.58c.14-.63-1.59-2.07-3-2.38h0a5.47,5.47,0,0,0-2.5.12,14.55,14.55,0,0,0-1.71.56,14.11,14.11,0,0,0,1.56-.85,5.43,5.43,0,0,0,1.78-1.79h0c.72-1.24.81-3.5.26-3.82-.38-.22-1,.76-1.32.6s.24-1.22-.14-1.44c-.56-.33-2.47.87-3.19,2.11h0a5.34,5.34,0,0,0-.66,2.41,13.61,13.61,0,0,0,0,1.8c-.1-.64-.21-1.31-.33-1.75a5.43,5.43,0,0,0-1.15-2.24h0c-1-1.08-3.08-1.86-3.56-1.43-.32.29.4,1.23.16,1.44s-1.09-.6-1.41-.31c-.48.43.07,2.61,1,3.68h0a5.44,5.44,0,0,0,2.09,1.37,14.11,14.11,0,0,0,1.72.55,16.29,16.29,0,0,0-1.77-.23,5.54,5.54,0,0,0-2.49.4h0c-1.32.59-2.71,2.36-2.45,2.94.17.4,1.29,0,1.42.3s-.92.85-.74,1.24c.26.59,2.51.75,3.82.16h0a5.35,5.35,0,0,0,1.95-1.56,15.74,15.74,0,0,0,1.05-1.46,15.72,15.72,0,0,0-.76,1.61,5.32,5.32,0,0,0-.39,2.49h0c.15,1.43,1.4,3.31,2,3.24.43,0,.4-1.23.72-1.26s.52,1.13,1,1.09c.64-.07,1.49-2.16,1.34-3.59h0a5.42,5.42,0,0,0-.88-2.34,14.62,14.62,0,0,0-1.07-1.46,15,15,0,0,0,1.3,1.22,5.39,5.39,0,0,0,2.24,1.15" transform="translate(-33.53 -100.49)"/>
    <path class="cls-3" d="M210.89,151.93A20.49,20.49,0,0,1,209,155.6c2.42.67,6.22.17,10.09-1.53,5.71-2.52,8.23-9.37,8.23-9.37s-6.75-2.76-12.47-.24c-3.86,1.71-6.8,4.18-7.93,6.42a20.33,20.33,0,0,1,4,1.05" transform="translate(-33.53 -100.49)"/>
    <path class="cls-3" d="M245.32,227.59a29.74,29.74,0,0,1,6.08-.54c-1.1-3.53-4.75-7.83-9.94-11.24-7.67-5.05-18.13-2.7-18.13-2.7s2,10.54,9.64,15.59c5.19,3.41,10.58,5.07,14.25,4.69a30.08,30.08,0,0,1-1.9-5.8" transform="translate(-33.53 -100.49)"/>
    <path class="cls-3" d="M219.27,240.32a15.87,15.87,0,0,1-.82,3.19c2,.07,4.84-1,7.51-3,3.94-3,4.62-8.75,4.62-8.75s-5.72-.88-9.66,2.12c-2.67,2-4.48,4.48-4.94,6.42a15.52,15.52,0,0,1,3.29.07" transform="translate(-33.53 -100.49)"/>
  </g>
  <g>
    <path class="cls-3" d="M143.53,276a8.85,8.85,0,0,1-.21,2.28,3.61,3.61,0,0,1-1.13,1.65,6.86,6.86,0,0,1-4.64,1.52A7.51,7.51,0,0,1,131.8,279c-.28.13-.54.78-.78,1.94h-.74v-6.72H131q1.17,6.56,6.21,6.56a4.82,4.82,0,0,0,3.2-1.05,3.75,3.75,0,0,0,1.37-3q0-2.39-3-3.9l-5.48-2.65a5.67,5.67,0,0,1-3-5,4.9,4.9,0,0,1,1.57-3.8,5.6,5.6,0,0,1,3.93-1.43,7,7,0,0,1,3.44.94c1.31.71,2,1.58,2,2.6a1.55,1.55,0,0,1-.28.8.75.75,0,0,1-.62.43c-.43,0-.65-.23-.65-.68a3.24,3.24,0,0,1,.08-.55,3,3,0,0,0,.08-.54,1,1,0,0,0-.21-.63,4.28,4.28,0,0,0-3.65-1.53,3.91,3.91,0,0,0-2.54.78,4.42,4.42,0,0,0-1,1.28,3.24,3.24,0,0,0-.53,1.62q0,2.25,3,3.72l5.59,2.69a6,6,0,0,1,3,5.2" transform="translate(-33.53 -100.49)"/>
    <path class="cls-3" d="M167.21,280.85H159.4v-.65c.45,0,.91,0,1.36,0,.8-.12,1.21-.46,1.21-1t-.24-.84a7.83,7.83,0,0,1-.26-.84,11.8,11.8,0,0,0-3.05-5.07,15.76,15.76,0,0,0-4.76-3.49l-1.8,4.18q-1.8,4.17-1.8,5.22a1.71,1.71,0,0,0,.65,1.42,2.45,2.45,0,0,0,1.6.47v.65h-6.24v-.65a3.75,3.75,0,0,0,3-2.29c.58-1.5,1-2.63,1.34-3.4q.24-.58,2.49-5.8a6.56,6.56,0,0,0-3.67-.74,9.73,9.73,0,0,0-4,.82c.74-1.21,2.28-1.81,4.64-1.81a12.44,12.44,0,0,1,3.47.5l3.25-7.64.18,0,1.63,3.7c.49,1.22,1.59,3.92,3.3,8.08a78.5,78.5,0,0,0,3.44,7.58c.26.45.94.77,2,1Zm-9.08-11.19-2.41-5.87-1.57,3.93a14.17,14.17,0,0,1,4,1.94" transform="translate(-33.53 -100.49)"/>
    <path class="cls-3" d="M198.56,281H188v-.68q.78,0,1.68-.06c.91-.05,1.36-.37,1.36-.94,0-.37-.45-1-1.36-1.95l-6.86-6.95-1.46,1.33v6.58c0,1.34.8,2,2.39,2h.66V281h-9v-.6a4.29,4.29,0,0,0,2.54-.48,2.85,2.85,0,0,0,.81-2.39V263.28a3.76,3.76,0,0,0-.36-1.91,1.88,1.88,0,0,0-1.73-.74,5.61,5.61,0,0,0-4.27,1.58,6.09,6.09,0,0,0-1.51,4.37,8.67,8.67,0,0,0,1.31,4.84,6.61,6.61,0,0,0,4,2.85,7.74,7.74,0,0,1-5-1.87q-1.58-1.61-1.58-5v-1.95c.21-1.61,1.26-3,3.15-4.1a8.91,8.91,0,0,1,4.51-1.41h7.24v.76a7.28,7.28,0,0,0-2.21.21,1.67,1.67,0,0,0-1,1.74v8l4.7-4.17c2.6-2.33,3.91-3.84,3.91-4.51s-.75-1.22-2.23-1.33v-.71h7.92v.71a5.54,5.54,0,0,0-3.57,1.32,30.58,30.58,0,0,0-3.54,3.18,15.48,15.48,0,0,1-2.26,1.86l-1.7,1.16,5.77,6a58.47,58.47,0,0,0,5.8,5.4,5.25,5.25,0,0,0,2.44.53Z" transform="translate(-33.53 -100.49)"/>
    <path class="cls-3" d="M229.69,260.58c-2,.23-2.94,1.11-2.94,2.65v10q0,7.63-8.31,7.64a8.82,8.82,0,0,1-5.2-1.52,5.94,5.94,0,0,1-2.49-5.19V262.8c0-1.06-.3-1.72-.92-2a7.36,7.36,0,0,0-1.91-.13q-6.27,0-6.27,5.44c0,2.48.92,4.2,2.75,5.18a5.2,5.2,0,0,1-3.09-1.7,4.86,4.86,0,0,1-1.15-3.3,5.63,5.63,0,0,1,2.86-5,9,9,0,0,1,5-1.46h8.47v.68a5.58,5.58,0,0,0-2.44.34c-.49.28-.73.9-.73,1.86V274q0,5.93,5.87,5.92a7.38,7.38,0,0,0,4.78-1.49,5.39,5.39,0,0,0,2-4.45V263.17c0-1.61-1-2.47-3.09-2.59v-.68h6.84Z" transform="translate(-33.53 -100.49)"/>
    <path class="cls-3" d="M260.12,281h-5c-.12,0-.52-.35-1.18-1.05a13.44,13.44,0,0,1-1.1-1.28l-2.65-3.72a21.5,21.5,0,0,0-3.15-3.6,1.66,1.66,0,0,0-1.18-.24,12.72,12.72,0,0,0,4.75-1.7,4.39,4.39,0,0,0,1.6-3.75c0-2-.58-3.32-1.74-4a7.83,7.83,0,0,0-4-.79h-1.34v16.31a18.58,18.58,0,0,0,.13,1.87,1.6,1.6,0,0,0,1.52,1.31h1.94V281h-9.36v-.68c1.42.09,2.35-.14,2.81-.68a4.08,4.08,0,0,0,.47-2.36V263.91a5.27,5.27,0,0,0-.24-2,1.75,1.75,0,0,0-1.76-.87,12.66,12.66,0,0,0-5.56,1.05,4.7,4.7,0,0,0-2.8,4.52q0,5.26,5.93,7.71a7.2,7.2,0,0,1-5.3-1.75,6.46,6.46,0,0,1-2-5.07q0-6.12,7.82-7c2.29-.26,4-.41,5.24-.44l2.5-.08c3-.09,5.2.31,6.58,1.21a4.63,4.63,0,0,1,2.07,4.19,4.53,4.53,0,0,1-1.81,3.73,6.62,6.62,0,0,1-3.46,1.52,4.85,4.85,0,0,1,1.18,1.28c.88,1.26,1.38,2,1.52,2.15a50.14,50.14,0,0,0,3.25,3.91,8.26,8.26,0,0,0,2.31,1.74,4.73,4.73,0,0,0,2.05.57s0,0-.06-.05l.06,0Z" transform="translate(-33.53 -100.49)"/>
    <path class="cls-3" d="M283.28,280.85h-7.82v-.65c.46,0,.91,0,1.37,0q1.2-.18,1.2-1s-.08-.3-.23-.84-.23-.69-.27-.84a11.8,11.8,0,0,0-3-5.07,15.61,15.61,0,0,0-4.75-3.49l-1.8,4.18c-1.2,2.78-1.81,4.52-1.81,5.22a1.69,1.69,0,0,0,.66,1.42,2.45,2.45,0,0,0,1.6.47v.65h-6.24v-.65a3.76,3.76,0,0,0,3-2.29c.57-1.5,1-2.63,1.34-3.4q.22-.58,2.49-5.8a6.56,6.56,0,0,0-3.67-.74,9.73,9.73,0,0,0-4,.82q1.09-1.82,4.64-1.81a12.32,12.32,0,0,1,3.46.5l3.26-7.64.18,0,1.62,3.7c.49,1.22,1.6,3.92,3.31,8.08a78.5,78.5,0,0,0,3.44,7.58c.26.45.93.77,2,1Zm-9.09-11.19-2.41-5.87-1.56,3.93a14,14,0,0,1,4,1.94" transform="translate(-33.53 -100.49)"/>
  </g>
  <g>
    <path class="cls-3" d="M152.37,298.09a4.17,4.17,0,0,1-1,2.85,3.44,3.44,0,0,1-2.73,1.17,2.9,2.9,0,0,1-2.45-1.29c-.13.11-.48.46-1,1.06a1.42,1.42,0,0,1-.92.55c-.41,0-.62-.2-.62-.59s.41-.77,1.24-.74V287.58a.56.56,0,0,0-.4-.53,1.53,1.53,0,0,0-.78-.12v-.38a6.46,6.46,0,0,0,2.33-.42h.16v13a2.84,2.84,0,0,0,.52,1.79,1.94,1.94,0,0,0,1.65.74q2.48,0,2.47-3.67,0-3.43-2.73-3.44a4.67,4.67,0,0,0-1,.08,3.37,3.37,0,0,1,1.65-.48,3.31,3.31,0,0,1,2.65,1.16,4.12,4.12,0,0,1,.93,2.76" transform="translate(-33.53 -100.49)"/>
    <path class="cls-3" d="M161.39,297h-5.23v.87q0,3.79,2.52,3.79a2.68,2.68,0,0,0,2.61-1.26,2.56,2.56,0,0,1-1.19,1.3,3.55,3.55,0,0,1-1.74.45A3.45,3.45,0,0,1,155.7,301a3.92,3.92,0,0,1-1-2.78,4.26,4.26,0,0,1,1-2.83,3.34,3.34,0,0,1,2.68-1.21,3.26,3.26,0,0,1,2.07.74,2.3,2.3,0,0,1,1,1.89Zm-1.57-.36v-.84a1,1,0,0,0-.55-.83,2,2,0,0,0-1.09-.34,1.86,1.86,0,0,0-1.34.56,1.76,1.76,0,0,0-.59,1.31v.14Z" transform="translate(-33.53 -100.49)"/>
    <path class="cls-3" d="M171.78,300.94a1.1,1.1,0,0,1-.49.91,1.71,1.71,0,0,1-1,.36,1.49,1.49,0,0,1-1.51-1.31,5.48,5.48,0,0,1-3,1.31,2,2,0,0,1-1.3-.45,1.49,1.49,0,0,1-.55-1.2c0-.89.56-1.6,1.67-2.15l2.43-1.13c-1.71,1-2.57,2-2.57,3a1.42,1.42,0,0,0,.29.89.93.93,0,0,0,.79.37,3.73,3.73,0,0,0,2.27-1.18V296c0-1-.6-1.47-1.78-1.47a1.57,1.57,0,0,0-1.33.48s-.11.33-.3.91a.63.63,0,0,1-.64.5.5.5,0,0,1-.57-.56c0-.66.45-1.15,1.35-1.45a5.2,5.2,0,0,1,1.69-.3c2,0,2.93.74,2.93,2.23v4.4c0,.49.19.74.58.74s.71-.3.73-.9h.34Z" transform="translate(-33.53 -100.49)"/>
    <path class="cls-3" d="M180.34,300.66a3,3,0,0,1-2.71,1.55,2.65,2.65,0,0,1-1.69-.56,1.91,1.91,0,0,1-.69-1.55v-4.41a.9.9,0,0,0-.35-.82,1.82,1.82,0,0,0-.91-.16v-.44h2.57V300a1.38,1.38,0,0,0,1.54,1.58,3.59,3.59,0,0,0,2.24-.94m3.44.58a.62.62,0,0,1-.49.61,6.54,6.54,0,0,1-.85.14c-.78.11-1.25.19-1.42.22a5.78,5.78,0,0,1-.32-2.39v-4.27c0-.57-.36-.86-1.07-.86h-.28v-.42H182v6a2.88,2.88,0,0,0,.32,1.28,1.54,1.54,0,0,0,.4-.6c.11-.24.23-.36.38-.36a.7.7,0,0,1,.45.23.64.64,0,0,1,.22.45" transform="translate(-33.53 -100.49)"/>
    <path class="cls-3" d="M191.43,300.84a1.89,1.89,0,0,1-.81,1,2.36,2.36,0,0,1-1.26.36,1.81,1.81,0,0,1-1.42-.62,2.2,2.2,0,0,1-.55-1.52v-5.69h-1.16V294a2,2,0,0,0,1.54-.83,3.31,3.31,0,0,0,.69-1.68h.32v8.58a1.61,1.61,0,0,0,.32,1,1,1,0,0,0,.86.43c.36,0,.75-.27,1.17-.8l.3.16m-.14-6.27c0,.24-.23.36-.7.36a7.53,7.53,0,0,1-1.43-.3,8.21,8.21,0,0,1,1.55-.44c.39,0,.58.13.58.38" transform="translate(-33.53 -100.49)"/>
    <path class="cls-3" d="M201.88,295a5.92,5.92,0,0,0-1.81,2.7c-.25.62-1,2.45-2.34,5.51l-1.28,2.94q-2,4.61-3.27,4.61c-.44,0-.66-.18-.66-.56s.32-.81.94-1.14a3,3,0,0,0,1.17-.87l2.93-6.5a44.75,44.75,0,0,0,2.53-6.21c0-.35-.38-.52-1.13-.52v-.46h2.92Zm-4,5.15-.62,1.54a8.05,8.05,0,0,0-.24-1.56,14.19,14.19,0,0,0-.91-2.53c-.67-1.52-1.24-2.28-1.73-2.28s-.52.62-.48,1.87a8.06,8.06,0,0,1-.28-1.34c0-.9.34-1.35,1-1.35.83,0,1.6.9,2.33,2.71a18.37,18.37,0,0,1,.92,2.94" transform="translate(-33.53 -100.49)"/>
    <path class="cls-3" d="M216.11,300a2,2,0,0,1-.62,1.55,2.41,2.41,0,0,1-3.38-.22,2.77,2.77,0,0,0-.38.81h-.33v-2.41h.33c.4,1.37,1.12,2.06,2.15,2.06a1.18,1.18,0,0,0,1.34-1.32,1.62,1.62,0,0,0-1-1.41l-1.83-1a2,2,0,0,1-1-1.71,2,2,0,0,1,.56-1.44,1.84,1.84,0,0,1,1.41-.61,2.3,2.3,0,0,1,1.35.45,1.41,1.41,0,0,1,.72,1.17.66.66,0,0,1-.13.36.35.35,0,0,1-.29.19c-.15,0-.24-.15-.28-.45a2.34,2.34,0,0,0-.22-.87,1.27,1.27,0,0,0-1.13-.45c-.81,0-1.22.36-1.22,1.09,0,.48.39.93,1.16,1.37l1.77.89a2.34,2.34,0,0,1,1,2" transform="translate(-33.53 -100.49)"/>
    <path class="cls-3" d="M223.58,300.84a1.89,1.89,0,0,1-.81,1,2.36,2.36,0,0,1-1.26.36,1.81,1.81,0,0,1-1.42-.62,2.2,2.2,0,0,1-.55-1.52v-5.69h-1.15V294a2,2,0,0,0,1.53-.83,3.31,3.31,0,0,0,.69-1.68h.32v8.58a1.61,1.61,0,0,0,.32,1,1,1,0,0,0,.86.43c.35,0,.75-.27,1.17-.8l.3.16m-.14-6.27c0,.24-.23.36-.7.36a7.53,7.53,0,0,1-1.43-.3,8.21,8.21,0,0,1,1.55-.44c.39,0,.58.13.58.38" transform="translate(-33.53 -100.49)"/>
    <path class="cls-3" d="M232.1,300.66a3,3,0,0,1-2.71,1.55,2.65,2.65,0,0,1-1.69-.56,1.89,1.89,0,0,1-.7-1.55v-4.41a.9.9,0,0,0-.34-.82,1.84,1.84,0,0,0-.91-.16v-.44h2.57V300a1.38,1.38,0,0,0,1.54,1.58,3.59,3.59,0,0,0,2.24-.94m3.44.58a.62.62,0,0,1-.49.61,6.54,6.54,0,0,1-.85.14l-1.43.22a5.84,5.84,0,0,1-.31-2.39v-4.27c0-.57-.36-.86-1.07-.86h-.28v-.42h2.66v6a2.88,2.88,0,0,0,.32,1.28,1.54,1.54,0,0,0,.4-.6c.11-.24.23-.36.38-.36a.66.66,0,0,1,.44.23.62.62,0,0,1,.23.45" transform="translate(-33.53 -100.49)"/>
    <path class="cls-3" d="M247.47,301.46a.61.61,0,0,1-.25.48.81.81,0,0,1-.53.21h-1.15a5.74,5.74,0,0,0-1,.16,10.42,10.42,0,0,1-.18-1.27,3.74,3.74,0,0,1-2.78,1.27,3.12,3.12,0,0,1-2.55-1.25,4.11,4.11,0,0,1-1-2.72,4.18,4.18,0,0,1,.94-2.8,3.33,3.33,0,0,1,2.67-1.19,4.66,4.66,0,0,1,1.31.26q-3.4-.14-3.4,3.67c0,2.29.81,3.43,2.43,3.43a3,3,0,0,0,2.3-1.21V287.56c0-.26-.2-.44-.6-.52a2.21,2.21,0,0,0-.65,0v-.43c.7-.13,1.45-.24,2.25-.36h.32V301c0,.36.14.54.32.54s.21-.11.4-.33.37-.33.51-.33a.66.66,0,0,1,.44.18.56.56,0,0,1,.2.42" transform="translate(-33.53 -100.49)"/>
    <path class="cls-3" d="M254.67,299.31a11,11,0,0,1-.51,1.67c-.38.78-.87,1.17-1.48,1.17q-1.29,0-1.29-1.71V295.6q0-.81-.42-.81c-.24,0-.52.29-.85.87v-.24a1.43,1.43,0,0,1,.37-.95,1.19,1.19,0,0,1,.9-.44,1,1,0,0,1,.87.6,2.18,2.18,0,0,1,.27,1.09V300c0,.89.18,1.34.55,1.34s.76-.33,1.12-1a4.32,4.32,0,0,0,.47-1.09" transform="translate(-33.53 -100.49)"/>
    <path class="cls-3" d="M265.07,298.21a4,4,0,0,1-1.16,3,4,4,0,0,1-3,1.14,4.13,4.13,0,1,1,4.12-4.1m-1.58,0q0-3.71-2.53-3.7t-2.52,3.68a5.91,5.91,0,0,0,.37,2.41,2.16,2.16,0,0,0,2.15,1.24q2.54,0,2.53-3.63" transform="translate(-33.53 -100.49)"/>
  </g>
</svg>
