<svg id="レイヤー_1" data-name="レイヤー 1" xmlns="http://www.w3.org/2000/svg" xmlns:xlink="http://www.w3.org/1999/xlink" width="383.31" height="60" viewBox="0 0 383.31 60">
  <defs>
    <style>
      .cls-1 {
        fill: none;
      }

      .cls-2 {
        clip-path: url(#clip-path);
      }

      .cls-3 {
        fill: #e8588a;
      }

      .cls-4 {
        fill: #fff;
      }

      .cls-5 {
        fill: #888;
      }
    </style>
    <clipPath id="clip-path" transform="translate(-27.47 -228.8)">
      <path class="cls-1" d="M74,261a23.71,23.71,0,1,0,23.71-23.7A23.71,23.71,0,0,0,74,261"/>
    </clipPath>
  </defs>
  <g>
    <g class="cls-2">
      <path class="cls-3" d="M50.12,267.54c2.34.06,4.68.68,7,.65s4.68-.79,7-.76,4.68.61,7,.73a14.79,14.79,0,0,0,3.51-.2,18.28,18.28,0,0,1,3.51-.42.89.89,0,1,1,0,1.77,19.09,19.09,0,0,1-3.51-.41,14.8,14.8,0,0,0-3.51-.21c-2.34.12-4.68.8-7,.73s-4.68-.85-7-.75-4.68.59-7,.64a.89.89,0,1,1,0-1.77Z" transform="translate(-27.47 -228.8)"/>
      <path class="cls-3" d="M46.85,271.22c2.34,0,4.68.68,7,.64s4.68-.79,7-.76,4.68.61,7,.74a14.8,14.8,0,0,0,3.51-.21,18.26,18.26,0,0,1,3.51-.41.88.88,0,1,1,0,1.76,18.26,18.26,0,0,1-3.51-.41,14.8,14.8,0,0,0-3.51-.21c-2.34.13-4.68.8-7,.74s-4.68-.86-7-.76-4.68.59-7,.64a.93.93,0,0,1-1-.86.92.92,0,0,1,.95-.9h.05" transform="translate(-27.47 -228.8)"/>
      <path class="cls-3" d="M46.85,260.2c2.34.05,4.68.68,7,.64s4.68-.79,7-.76,4.68.61,7,.73a14.28,14.28,0,0,0,3.51-.2,18.26,18.26,0,0,1,3.51-.41.88.88,0,1,1,0,1.76,19.09,19.09,0,0,1-3.51-.41,14.8,14.8,0,0,0-3.51-.21c-2.34.12-4.68.8-7,.74s-4.68-.86-7-.76-4.68.59-7,.64a.94.94,0,0,1-1-.86.92.92,0,0,1,.95-.9h.05" transform="translate(-27.47 -228.8)"/>
      <path class="cls-3" d="M28.47,256.63c2.34.06,4.67.69,7,.65s4.67-.79,7-.76,4.68.61,7,.73a14.28,14.28,0,0,0,3.51-.2,18.28,18.28,0,0,1,3.51-.42.89.89,0,1,1,0,1.77A19.09,19.09,0,0,1,53,258a14.8,14.8,0,0,0-3.51-.21c-2.34.12-4.68.8-7,.73s-4.68-.85-7-.75-4.68.59-7,.64a.89.89,0,1,1,0-1.77h0" transform="translate(-27.47 -228.8)"/>
      <path class="cls-3" d="M37.47,252.85c2.34.05,4.68.68,7,.64s4.68-.79,7-.75,4.67.61,7,.73a14.8,14.8,0,0,0,3.51-.21,19.09,19.09,0,0,1,3.51-.41.93.93,0,0,1,.95.91,1,1,0,0,1-.95.86A18.28,18.28,0,0,1,62,254.2a14.28,14.28,0,0,0-3.51-.2c-2.34.12-4.67.8-7,.73s-4.68-.86-7-.76-4.68.59-7,.65a.94.94,0,0,1-1-.87.93.93,0,0,1,1-.9h0" transform="translate(-27.47 -228.8)"/>
      <path class="cls-3" d="M28.47,249.29c2.34.05,4.67.68,7,.64s4.67-.79,7-.76,4.68.61,7,.73a14.28,14.28,0,0,0,3.51-.2,18.26,18.26,0,0,1,3.51-.41.93.93,0,0,1,1,.9.94.94,0,0,1-1,.86,18.26,18.26,0,0,1-3.51-.41,14.8,14.8,0,0,0-3.51-.21c-2.34.13-4.68.8-7,.74s-4.68-.86-7-.76-4.68.59-7,.64a.88.88,0,1,1,0-1.76h0" transform="translate(-27.47 -228.8)"/>
      <path class="cls-3" d="M46.85,245.72c2.34.06,4.68.69,7,.65s4.68-.79,7-.76,4.68.61,7,.73a14.28,14.28,0,0,0,3.51-.2,18.28,18.28,0,0,1,3.51-.42.89.89,0,1,1,0,1.77,19.09,19.09,0,0,1-3.51-.41,14.8,14.8,0,0,0-3.51-.21c-2.34.12-4.68.8-7,.73s-4.68-.85-7-.75-4.68.59-7,.64a.89.89,0,1,1-.05-1.77Z" transform="translate(-27.47 -228.8)"/>
      <path class="cls-3" d="M37.47,242.05c2.34,0,4.68.68,7,.64s4.68-.78,7-.75,4.67.61,7,.73a14.29,14.29,0,0,0,3.51-.21,19.09,19.09,0,0,1,3.51-.41.93.93,0,0,1,.95.91,1,1,0,0,1-.95.86A18.28,18.28,0,0,1,62,243.4a14.79,14.79,0,0,0-3.51-.2c-2.34.12-4.67.8-7,.73s-4.68-.86-7-.76-4.68.59-7,.65a.94.94,0,0,1-1-.86.93.93,0,0,1,1-.91h0" transform="translate(-27.47 -228.8)"/>
      <path class="cls-3" d="M46.85,238.38c2.34.05,4.68.68,7,.64s4.68-.79,7-.76,4.68.62,7,.74a14.8,14.8,0,0,0,3.51-.21,19.09,19.09,0,0,1,3.51-.41.88.88,0,1,1,0,1.76,18.26,18.26,0,0,1-3.51-.41,14.28,14.28,0,0,0-3.51-.2c-2.34.12-4.68.79-7,.73s-4.68-.86-7-.76-4.68.59-7,.64a.93.93,0,0,1-1-.86.92.92,0,0,1,.95-.9h.05" transform="translate(-27.47 -228.8)"/>
      <path class="cls-3" d="M28.47,274.78c2.34.05,4.67.68,7,.64s4.67-.79,7-.75,4.68.61,7,.73a14.8,14.8,0,0,0,3.51-.21,19.09,19.09,0,0,1,3.51-.41.93.93,0,0,1,1,.91,1,1,0,0,1-1,.86,18.28,18.28,0,0,1-3.51-.42,14.28,14.28,0,0,0-3.51-.2c-2.34.12-4.68.8-7,.73s-4.68-.86-7-.76-4.68.59-7,.65a.94.94,0,0,1-1-.87.93.93,0,0,1,1-.9h0" transform="translate(-27.47 -228.8)"/>
      <path class="cls-3" d="M46.85,278.45c2.34.06,4.68.68,7,.65s4.68-.79,7-.76,4.68.61,7,.73a14.79,14.79,0,0,0,3.51-.2,18.28,18.28,0,0,1,3.51-.42.89.89,0,1,1,0,1.77,19.09,19.09,0,0,1-3.51-.41,14.29,14.29,0,0,0-3.51-.21c-2.34.12-4.68.8-7,.73s-4.68-.85-7-.76-4.68.6-7,.65a.94.94,0,0,1-1-.86.93.93,0,0,1,.95-.91Z" transform="translate(-27.47 -228.8)"/>
      <path class="cls-3" d="M37.47,282c2.34.06,4.68.69,7,.65s4.68-.79,7-.76,4.67.61,7,.73a14.28,14.28,0,0,0,3.51-.2,19.11,19.11,0,0,1,3.51-.42.89.89,0,1,1,0,1.77,19.09,19.09,0,0,1-3.51-.41,14.8,14.8,0,0,0-3.51-.21c-2.34.12-4.67.8-7,.73s-4.68-.85-7-.75-4.68.59-7,.64a.89.89,0,1,1,0-1.77h0" transform="translate(-27.47 -228.8)"/>
      <path class="cls-3" d="M37.47,265.69c2.34-.06,4.68-.69,7-.65s4.68.79,7,.76,4.67-.61,7-.73a14.28,14.28,0,0,1,3.51.2,18.28,18.28,0,0,0,3.51.42.89.89,0,1,0,0-1.77,19.09,19.09,0,0,0-3.51.41,14.8,14.8,0,0,1-3.51.21c-2.34-.12-4.67-.8-7-.73s-4.68.85-7,.75-4.68-.59-7-.64a.89.89,0,1,0,0,1.77h0" transform="translate(-27.47 -228.8)"/>
      <path class="cls-3" d="M60.51,256.63c2.34.06,4.68.69,7,.65s4.68-.79,7-.76,4.68.61,7,.73a14.28,14.28,0,0,0,3.51-.2,18.28,18.28,0,0,1,3.51-.42.89.89,0,1,1,0,1.77,19.09,19.09,0,0,1-3.51-.41,14.8,14.8,0,0,0-3.51-.21c-2.34.12-4.68.8-7,.73s-4.68-.85-7-.75-4.68.59-7,.64a.89.89,0,1,1,0-1.77h0" transform="translate(-27.47 -228.8)"/>
      <path class="cls-3" d="M87.74,263a12.26,12.26,0,0,1,2-1.55,9.89,9.89,0,0,0-5.94-1.61c-3.77,0-6.83,3.16-6.83,3.16s3.06,3.17,6.83,3.17a9.89,9.89,0,0,0,5.94-1.61,12,12,0,0,1-2-1.56" transform="translate(-27.47 -228.8)"/>
      <path class="cls-3" d="M69.51,252.85c2.34.05,4.68.68,7,.64s4.68-.79,7-.75,4.68.61,7,.73a14.8,14.8,0,0,0,3.51-.21,19.09,19.09,0,0,1,3.51-.41.89.89,0,1,1,0,1.77,18.28,18.28,0,0,1-3.51-.42,14.28,14.28,0,0,0-3.51-.2c-2.34.12-4.68.8-7,.73s-4.68-.86-7-.76-4.68.59-7,.65a1,1,0,0,1-1-.87.93.93,0,0,1,.95-.9h.05" transform="translate(-27.47 -228.8)"/>
      <path class="cls-3" d="M60.51,249.29c2.34.05,4.68.68,7,.64s4.68-.79,7-.76,4.68.61,7,.73a14.28,14.28,0,0,0,3.51-.2,18.26,18.26,0,0,1,3.51-.41.88.88,0,1,1,0,1.76,18.26,18.26,0,0,1-3.51-.41,14.8,14.8,0,0,0-3.51-.21c-2.34.13-4.68.8-7,.74s-4.68-.86-7-.76-4.68.59-7,.64a.93.93,0,0,1-1-.86.92.92,0,0,1,1-.9h0" transform="translate(-27.47 -228.8)"/>
      <path class="cls-3" d="M78.89,245.72c2.34.06,4.68.69,7,.65s4.68-.79,7-.76,4.68.61,7,.73a14.28,14.28,0,0,0,3.51-.2,18.28,18.28,0,0,1,3.51-.42.89.89,0,1,1,0,1.77,19.09,19.09,0,0,1-3.51-.41,14.8,14.8,0,0,0-3.51-.21c-2.34.12-4.68.8-7,.73s-4.68-.85-7-.75-4.68.59-7,.64a.89.89,0,1,1,0-1.77Z" transform="translate(-27.47 -228.8)"/>
      <path class="cls-3" d="M62,242.05c2.34,0,4.68.68,7,.64s4.68-.78,7-.75,4.68.61,7,.73a14.29,14.29,0,0,0,3.51-.21,19.09,19.09,0,0,1,3.51-.41A.92.92,0,0,1,91,243a.93.93,0,0,1-.94.86,18.28,18.28,0,0,1-3.51-.42,14.79,14.79,0,0,0-3.51-.2c-2.34.12-4.68.8-7,.73s-4.68-.86-7-.76-4.68.59-7,.65a1,1,0,0,1-1-.86.93.93,0,0,1,1-.91h0" transform="translate(-27.47 -228.8)"/>
      <path class="cls-3" d="M97.87,242.84a6.93,6.93,0,0,1,1.14-.91,5.73,5.73,0,0,0-3.48-1,6.37,6.37,0,0,0-4,1.86,6.37,6.37,0,0,0,4,1.86,5.81,5.81,0,0,0,3.48-.94,6.65,6.65,0,0,1-1.14-.92" transform="translate(-27.47 -228.8)"/>
      <path class="cls-3" d="M78.89,238.38c2.34.05,4.68.68,7,.64s4.68-.79,7-.76,4.68.62,7,.74a14.8,14.8,0,0,0,3.51-.21,19.09,19.09,0,0,1,3.51-.41.88.88,0,1,1,0,1.76,18.26,18.26,0,0,1-3.51-.41,14.28,14.28,0,0,0-3.51-.2c-2.34.12-4.68.79-7,.73s-4.68-.86-7-.76-4.68.59-7,.64a.88.88,0,1,1,0-1.76h0" transform="translate(-27.47 -228.8)"/>
      <path class="cls-3" d="M79.93,274.33a12.62,12.62,0,0,1-2,1.56,9.92,9.92,0,0,0,6,1.61c3.77,0,6.82-3.17,6.82-3.17s-3-3.17-6.82-3.17a9.92,9.92,0,0,0-6,1.61,12,12,0,0,1,2,1.56" transform="translate(-27.47 -228.8)"/>
      <path class="cls-3" d="M78.89,278.45c2.34.06,4.68.68,7,.65s4.68-.79,7-.76,4.68.61,7,.73a14.79,14.79,0,0,0,3.51-.2,18.28,18.28,0,0,1,3.51-.42.89.89,0,1,1,0,1.77,19.09,19.09,0,0,1-3.51-.41,14.29,14.29,0,0,0-3.51-.21c-2.34.12-4.68.8-7,.73s-4.68-.85-7-.76-4.68.6-7,.65a.89.89,0,1,1,0-1.77Z" transform="translate(-27.47 -228.8)"/>
      <path class="cls-3" d="M66.06,281.62c2.34.05,4.68.68,7,.65s4.68-.79,7-.76,4.68.61,7,.73a14.29,14.29,0,0,0,3.51-.21,19.09,19.09,0,0,1,3.51-.41.91.91,0,0,1,.94.91.93.93,0,0,1-.94.86,19.09,19.09,0,0,1-3.51-.41,14.29,14.29,0,0,0-3.51-.21c-2.34.12-4.68.8-7,.73s-4.68-.86-7-.76-4.68.59-7,.65a.94.94,0,0,1-1-.86.92.92,0,0,1,.94-.91h0" transform="translate(-27.47 -228.8)"/>
      <path class="cls-3" d="M103.82,283.14a7,7,0,0,1,1.15-.92,5.84,5.84,0,0,0-3.49-.94,6.37,6.37,0,0,0-4,1.86,6.38,6.38,0,0,0,4,1.85,5.84,5.84,0,0,0,3.49-.94,7.33,7.33,0,0,1-1.15-.91" transform="translate(-27.47 -228.8)"/>
      <path class="cls-3" d="M82.16,267.54c2.34.06,4.68.68,7,.65s4.68-.79,7-.76,4.68.61,7,.73a14.79,14.79,0,0,0,3.51-.2,18.28,18.28,0,0,1,3.51-.42.89.89,0,1,1,0,1.77,19.09,19.09,0,0,1-3.51-.41,14.8,14.8,0,0,0-3.51-.21c-2.34.12-4.68.8-7,.73s-4.68-.85-7-.75-4.68.59-7,.64a.89.89,0,1,1,0-1.77Z" transform="translate(-27.47 -228.8)"/>
      <path class="cls-3" d="M114.82,267.54c2.34.06,4.68.68,7,.65s4.68-.79,7-.76,4.68.61,7,.73a14.79,14.79,0,0,0,3.51-.2,18.28,18.28,0,0,1,3.51-.42.89.89,0,1,1,0,1.77,19.09,19.09,0,0,1-3.51-.41,14.8,14.8,0,0,0-3.51-.21c-2.34.12-4.68.8-7,.73s-4.67-.85-7-.75-4.67.59-7,.64a.89.89,0,1,1,0-1.77Z" transform="translate(-27.47 -228.8)"/>
      <path class="cls-3" d="M111.54,271.22c2.34,0,4.68.68,7,.64s4.68-.79,7-.76,4.68.61,7,.74a14.8,14.8,0,0,0,3.51-.21,18.26,18.26,0,0,1,3.51-.41.88.88,0,1,1,0,1.76,18.26,18.26,0,0,1-3.51-.41,14.8,14.8,0,0,0-3.51-.21c-2.34.13-4.68.8-7,.74s-4.68-.86-7-.76-4.68.59-7,.64a.93.93,0,0,1-1-.86.91.91,0,0,1,.94-.9h.05" transform="translate(-27.47 -228.8)"/>
      <path class="cls-3" d="M111.54,260.2c2.34.05,4.68.68,7,.64s4.68-.79,7-.76,4.68.61,7,.73a14.28,14.28,0,0,0,3.51-.2,18.26,18.26,0,0,1,3.51-.41.93.93,0,0,1,.95.9.94.94,0,0,1-.95.86,19.09,19.09,0,0,1-3.51-.41,14.8,14.8,0,0,0-3.51-.21c-2.34.12-4.68.8-7,.74s-4.68-.86-7-.76-4.68.59-7,.64a.93.93,0,0,1-1-.86.91.91,0,0,1,.94-.9h.05" transform="translate(-27.47 -228.8)"/>
      <path class="cls-3" d="M93.16,256.63c2.34.06,4.68.69,7,.65s4.68-.79,7-.76,4.68.61,7,.73a14.28,14.28,0,0,0,3.51-.2,18.28,18.28,0,0,1,3.51-.42.89.89,0,1,1,0,1.77,19.09,19.09,0,0,1-3.51-.41,14.8,14.8,0,0,0-3.51-.21c-2.34.12-4.68.8-7,.73s-4.68-.85-7-.75-4.68.59-7,.64a.89.89,0,1,1,0-1.77h0" transform="translate(-27.47 -228.8)"/>
      <path class="cls-3" d="M102.16,252.85c2.34.05,4.68.68,7,.64s4.68-.79,7-.75,4.68.61,7,.73a14.8,14.8,0,0,0,3.51-.21,19.09,19.09,0,0,1,3.51-.41.91.91,0,0,1,.94.91.93.93,0,0,1-.94.86,18.28,18.28,0,0,1-3.51-.42,14.28,14.28,0,0,0-3.51-.2c-2.34.12-4.68.8-7,.73s-4.68-.86-7-.76-4.68.59-7,.65a.93.93,0,0,1-1-.87.92.92,0,0,1,.94-.9h0" transform="translate(-27.47 -228.8)"/>
      <path class="cls-3" d="M93.16,249.29c2.34.05,4.68.68,7,.64s4.68-.79,7-.76,4.68.61,7,.73a14.28,14.28,0,0,0,3.51-.2,18.26,18.26,0,0,1,3.51-.41.88.88,0,1,1,0,1.76,18.26,18.26,0,0,1-3.51-.41,14.8,14.8,0,0,0-3.51-.21c-2.34.13-4.68.8-7,.74s-4.68-.86-7-.76-4.68.59-7,.64a.88.88,0,1,1,0-1.76h0" transform="translate(-27.47 -228.8)"/>
      <path class="cls-3" d="M111.54,245.72c2.34.06,4.68.69,7,.65s4.68-.79,7-.76,4.68.61,7,.73a14.28,14.28,0,0,0,3.51-.2,18.28,18.28,0,0,1,3.51-.42.89.89,0,1,1,0,1.77,19.09,19.09,0,0,1-3.51-.41,14.8,14.8,0,0,0-3.51-.21c-2.34.12-4.68.8-7,.73s-4.68-.85-7-.75-4.68.59-7,.64a.89.89,0,1,1-.05-1.77Z" transform="translate(-27.47 -228.8)"/>
      <path class="cls-3" d="M102.16,242.05c2.34,0,4.68.68,7,.64s4.68-.78,7-.75,4.68.61,7,.73a14.29,14.29,0,0,0,3.51-.21,19.09,19.09,0,0,1,3.51-.41.91.91,0,0,1,.94.91.93.93,0,0,1-.94.86,18.28,18.28,0,0,1-3.51-.42,14.79,14.79,0,0,0-3.51-.2c-2.34.12-4.68.8-7,.73s-4.68-.86-7-.76-4.68.59-7,.65a.93.93,0,0,1-1-.86.92.92,0,0,1,.94-.91h0" transform="translate(-27.47 -228.8)"/>
      <path class="cls-3" d="M111.54,238.38c2.34.05,4.68.68,7,.64s4.68-.79,7-.76,4.68.62,7,.74a14.8,14.8,0,0,0,3.51-.21,19.09,19.09,0,0,1,3.51-.41.88.88,0,1,1,0,1.76,18.26,18.26,0,0,1-3.51-.41,14.28,14.28,0,0,0-3.51-.2c-2.34.12-4.68.79-7,.73s-4.68-.86-7-.76-4.68.59-7,.64a.93.93,0,0,1-1-.86.91.91,0,0,1,.94-.9h.05" transform="translate(-27.47 -228.8)"/>
      <path class="cls-3" d="M93.16,274.78c2.34.05,4.68.68,7,.64s4.68-.79,7-.75,4.68.61,7,.73a14.8,14.8,0,0,0,3.51-.21,19.09,19.09,0,0,1,3.51-.41.92.92,0,0,1,.94.91.93.93,0,0,1-.94.86,18.28,18.28,0,0,1-3.51-.42,14.28,14.28,0,0,0-3.51-.2c-2.34.12-4.68.8-7,.73s-4.68-.86-7-.76-4.68.59-7,.65a.93.93,0,0,1-1-.87.92.92,0,0,1,.94-.9h0" transform="translate(-27.47 -228.8)"/>
      <path class="cls-3" d="M111.54,278.45c2.34.06,4.68.68,7,.65s4.68-.79,7-.76,4.68.61,7,.73a14.79,14.79,0,0,0,3.51-.2,18.28,18.28,0,0,1,3.51-.42.89.89,0,1,1,0,1.77,19.09,19.09,0,0,1-3.51-.41,14.29,14.29,0,0,0-3.51-.21c-2.34.12-4.68.8-7,.73s-4.68-.85-7-.76-4.68.6-7,.65a.93.93,0,0,1-1-.86.92.92,0,0,1,.94-.91Z" transform="translate(-27.47 -228.8)"/>
      <path class="cls-3" d="M102.16,265.69c2.34-.06,4.68-.69,7-.65s4.68.79,7,.76,4.68-.61,7-.73a14.28,14.28,0,0,1,3.51.2,18.28,18.28,0,0,0,3.51.42.89.89,0,1,0,0-1.77,19.09,19.09,0,0,0-3.51.41,14.8,14.8,0,0,1-3.51.21c-2.34-.12-4.68-.8-7-.73s-4.68.85-7,.75-4.68-.59-7-.64a.89.89,0,1,0,0,1.77h0" transform="translate(-27.47 -228.8)"/>
    </g>
    <path class="cls-4" d="M108.4,239.82a21.39,21.39,0,0,0,0,42.29,23.66,23.66,0,0,0,0-42.29" transform="translate(-27.47 -228.8)"/>
    <path class="cls-3" d="M108.4,282.47h-.06a21.76,21.76,0,0,1,0-43,.33.33,0,0,1,.22,0,24,24,0,0,1,0,42.94.32.32,0,0,1-.16,0m-.06-42.28a21,21,0,0,0,0,41.54,23.31,23.31,0,0,0,0-41.54" transform="translate(-27.47 -228.8)"/>
    <path class="cls-3" d="M97.74,285a24,24,0,1,1,24-24,24,24,0,0,1-24,24m0-47.41A23.41,23.41,0,1,0,121.15,261a23.43,23.43,0,0,0-23.41-23.41" transform="translate(-27.47 -228.8)"/>
    <path class="cls-3" d="M122,263.37h0c2.11-.69,4.54-3.19,4.23-4.13-.21-.64-2-.21-2.13-.68s1.54-1.16,1.33-1.79c-.31-.95-3.74-1.55-5.86-.86h0A8.42,8.42,0,0,0,116.3,258a23.86,23.86,0,0,0-1.85,2.09,24,24,0,0,0,1.43-2.36,8.41,8.41,0,0,0,1-3.76h0c0-2.22-1.63-5.3-2.62-5.3-.67,0-.81,1.82-1.3,1.82s-.63-1.82-1.3-1.82c-1,0-2.62,3.08-2.62,5.3h0a8.4,8.4,0,0,0,1,3.73,23.54,23.54,0,0,0,1.41,2.41,21.19,21.19,0,0,0-1.8-2.09,8.43,8.43,0,0,0-3.27-2.11h0c-2.11-.69-5.54-.09-5.85.86-.21.63,1.48,1.33,1.33,1.79s-1.93,0-2.13.68c-.31.94,2.12,3.44,4.23,4.13h0a8.31,8.31,0,0,0,3.86.22,22.37,22.37,0,0,0,2.73-.6,22.94,22.94,0,0,0-2.54,1.07,8.38,8.38,0,0,0-3,2.46h0c-1.3,1.8-1.8,5.25-1,5.84.54.39,1.72-1,2.12-.71s-.56,1.84,0,2.23c.81.59,3.93-.95,5.24-2.75h0a8.3,8.3,0,0,0,1.41-3.6,25.47,25.47,0,0,0,.27-2.77,23.71,23.71,0,0,0,.23,2.74,8.41,8.41,0,0,0,1.4,3.63h0c1.3,1.8,4.43,3.34,5.24,2.75.54-.39-.42-1.95,0-2.23s1.58,1.1,2.12.71c.8-.59.31-4-1-5.84h0a8.52,8.52,0,0,0-3-2.45A24.85,24.85,0,0,0,115.4,263a25.31,25.31,0,0,0,2.68.63,8.42,8.42,0,0,0,3.89-.22m-2.31-3.76c1.77-.49,2,.36.3,1a31,31,0,0,1-4.9,1,30,30,0,0,1,4.6-2m-1.82-.86c1.61-.88,2.06-.11.52.88a30.64,30.64,0,0,1-4.55,2.1,31.11,31.11,0,0,1,4-3m-9.82-.06a31.5,31.5,0,0,1,4,3,31.13,31.13,0,0,1-4.55-2.1c-1.54-1-1.08-1.76.53-.88m-1.81.85a31.06,31.06,0,0,1,4.56,2.07,30.26,30.26,0,0,1-4.89-1.1c-1.71-.64-1.43-1.49.33-1m.64,2.73c-1.82-.23-1.73-1.12.1-1a30.19,30.19,0,0,1,4.91,1,30.49,30.49,0,0,1-5,0m1.12,3.57a30.22,30.22,0,0,1,4.08-2.9,31,31,0,0,1-3.41,3.67c-1.41,1.16-2,.49-.67-.77m.25,2a31,31,0,0,1,3.38-3.7,30.07,30.07,0,0,1-2.56,4.31c-1.14,1.43-1.86.9-.82-.61m2.8.23c-.78,1.66-1.6,1.3-.94-.4a31.48,31.48,0,0,1,2.44-4.38,30.22,30.22,0,0,1-1.5,4.78m0-11.54c-.33-1.8.53-2,1-.22a30.46,30.46,0,0,1,.6,5,30.79,30.79,0,0,1-1.6-4.75M112.9,260a31.22,31.22,0,0,1-.46-5c.09-1.83,1-1.82,1,0a30.41,30.41,0,0,1-.56,5m.94-3.74c.46-1.77,1.33-1.58,1,.22a30,30,0,0,1-1.59,4.75,30.46,30.46,0,0,1,.6-5m.92,11.8a30.22,30.22,0,0,1-1.5-4.78,31.78,31.78,0,0,1,2.44,4.37c.66,1.71-.15,2.06-.94.41m2,.37a30.33,30.33,0,0,1-2.48-4.36,31.08,31.08,0,0,1,3.31,3.77c1,1.53.28,2.05-.83.59m1.08-2.59c1.33,1.26.74,1.93-.67.77a30.76,30.76,0,0,1-3.41-3.68,30.64,30.64,0,0,1,4.08,2.91M114,262.29a30.4,30.4,0,0,1,4.92-1c1.83-.11,1.91.78.09,1a31.32,31.32,0,0,1-5,0" transform="translate(-27.47 -228.8)"/>
    <path class="cls-3" d="M84.69,240.49h0c.81-.72,1.41-2.31,1.09-2.67s-.93.29-1.08.12.46-.82.24-1.06-2,0-2.78.75h0a4,4,0,0,0-1,1.56,10.33,10.33,0,0,0-.42,1.29c.08-.48.16-1,.18-1.33a4.14,4.14,0,0,0-.29-1.87h0c-.43-1-1.75-2.05-2.2-1.86-.3.13,0,1-.22,1.06s-.64-.69-.94-.56-.57,1.89-.14,2.88h0a4.19,4.19,0,0,0,1.16,1.48,12.82,12.82,0,0,0,1.1.8,10.07,10.07,0,0,0-1.21-.59,4.11,4.11,0,0,0-1.87-.3h0c-1.07.1-2.49,1-2.44,1.51s.92.31.94.55-.85.39-.82.71c0,.48,1.61,1.13,2.69,1h0a4,4,0,0,0,1.76-.65,9.93,9.93,0,0,0,1.1-.79,13.19,13.19,0,0,0-.93,1,4.23,4.23,0,0,0-.87,1.68h0c-.23,1.06.22,2.69.69,2.8.32.07.58-.78.81-.73s.11.93.42,1c.48.11,1.57-1.19,1.81-2.24h0a4.15,4.15,0,0,0-.07-1.88,13.45,13.45,0,0,0-.42-1.29c.21.44.45.89.63,1.18a4.19,4.19,0,0,0,1.33,1.35h0c.93.55,2.62.62,2.87.21s-.57-.79-.44-1,.91.19,1.08-.09-.64-1.86-1.58-2.41h0a4,4,0,0,0-1.81-.51,10.07,10.07,0,0,0-1.35,0,12.34,12.34,0,0,0,1.32-.24,4.15,4.15,0,0,0,1.69-.85" transform="translate(-27.47 -228.8)"/>
    <path class="cls-3" d="M101.77,233.68h0c.59.13,1.5-.13,1.56-.39s-.44-.32-.41-.45.52-.06.56-.24-.67-.87-1.26-1h0a2.35,2.35,0,0,0-1,.05,5.76,5.76,0,0,0-.72.23c.25-.12.5-.25.66-.35a2.44,2.44,0,0,0,.75-.75h0c.3-.53.34-1.47.1-1.61s-.44.32-.55.25.1-.51-.06-.6-1,.37-1.34.89h0a2.23,2.23,0,0,0-.27,1,4.79,4.79,0,0,0,0,.76c0-.27-.09-.55-.14-.74a2.27,2.27,0,0,0-.48-.94h0c-.4-.45-1.29-.78-1.49-.6s.16.52.07.61-.46-.26-.6-.13,0,1.09.43,1.54h0a2.22,2.22,0,0,0,.87.58,6.91,6.91,0,0,0,.72.23,4.61,4.61,0,0,0-.74-.09,2.24,2.24,0,0,0-1,.16h0c-.56.25-1.14,1-1,1.24s.54,0,.59.12-.38.35-.31.52,1.06.31,1.61.07h0a2.33,2.33,0,0,0,.82-.66,5.15,5.15,0,0,0,.44-.61c-.13.24-.25.5-.32.67A2.29,2.29,0,0,0,99,234.5h0c.06.6.58,1.39.85,1.36s.17-.51.3-.53.22.48.4.46.63-.91.56-1.51h0a2.08,2.08,0,0,0-.37-1,6.81,6.81,0,0,0-.44-.61,6,6,0,0,0,.54.51,2.22,2.22,0,0,0,.94.48" transform="translate(-27.47 -228.8)"/>
    <path class="cls-3" d="M101.86,250.37a8.61,8.61,0,0,1-.81,1.54,7,7,0,0,0,4.24-.64,7.61,7.61,0,0,0,3.45-3.93,7.55,7.55,0,0,0-5.23-.1,6.94,6.94,0,0,0-3.33,2.69,8.55,8.55,0,0,1,1.68.44" transform="translate(-27.47 -228.8)"/>
    <path class="cls-3" d="M116.31,282.11a12.43,12.43,0,0,1,2.54-.23,10.1,10.1,0,0,0-4.16-4.71c-3.22-2.12-7.61-1.14-7.61-1.14s.83,4.42,4,6.54a10.05,10.05,0,0,0,6,2,12.38,12.38,0,0,1-.79-2.43" transform="translate(-27.47 -228.8)"/>
    <path class="cls-3" d="M105.38,287.45a6.74,6.74,0,0,1-.34,1.34,5.47,5.47,0,0,0,3.14-1.28,6,6,0,0,0,1.94-3.67,6,6,0,0,0-4.05.89,5.39,5.39,0,0,0-2.07,2.69,6.74,6.74,0,0,1,1.38,0" transform="translate(-27.47 -228.8)"/>
  </g>
  <g>
    <path class="cls-3" d="M143.53,276a8.85,8.85,0,0,1-.21,2.28,3.61,3.61,0,0,1-1.13,1.65,6.86,6.86,0,0,1-4.64,1.52A7.51,7.51,0,0,1,131.8,279c-.28.13-.54.78-.78,1.94h-.74v-6.72H131q1.17,6.56,6.21,6.56a4.82,4.82,0,0,0,3.2-1.05,3.75,3.75,0,0,0,1.37-3q0-2.39-3-3.9l-5.48-2.65a5.67,5.67,0,0,1-3-5,4.9,4.9,0,0,1,1.57-3.8,5.6,5.6,0,0,1,3.93-1.43,7,7,0,0,1,3.44.94c1.31.71,2,1.58,2,2.6a1.55,1.55,0,0,1-.28.8.75.75,0,0,1-.62.43c-.43,0-.65-.23-.65-.68a3.24,3.24,0,0,1,.08-.55,3,3,0,0,0,.08-.54,1,1,0,0,0-.21-.63,4.28,4.28,0,0,0-3.65-1.53,3.91,3.91,0,0,0-2.54.78,4.42,4.42,0,0,0-1,1.28,3.24,3.24,0,0,0-.53,1.62q0,2.25,3,3.72l5.59,2.69a6,6,0,0,1,3,5.2" transform="translate(-27.47 -228.8)"/>
    <path class="cls-3" d="M167.21,280.85H159.4v-.65c.45,0,.91,0,1.36,0,.8-.12,1.21-.46,1.21-1t-.24-.84a7.83,7.83,0,0,1-.26-.84,11.8,11.8,0,0,0-3.05-5.07,15.76,15.76,0,0,0-4.76-3.49l-1.8,4.18q-1.8,4.17-1.8,5.22a1.71,1.71,0,0,0,.65,1.42,2.45,2.45,0,0,0,1.6.47v.65h-6.24v-.65a3.75,3.75,0,0,0,3-2.29c.58-1.5,1-2.63,1.34-3.4q.24-.58,2.49-5.8a6.56,6.56,0,0,0-3.67-.74,9.73,9.73,0,0,0-4,.82c.74-1.21,2.28-1.81,4.64-1.81a12.44,12.44,0,0,1,3.47.5l3.25-7.64.18,0,1.63,3.7c.49,1.22,1.59,3.92,3.3,8.08a78.5,78.5,0,0,0,3.44,7.58c.26.45.94.77,2,1Zm-9.08-11.19-2.41-5.87-1.57,3.93a14.17,14.17,0,0,1,4,1.94" transform="translate(-27.47 -228.8)"/>
    <path class="cls-3" d="M198.56,281H188v-.68q.78,0,1.68-.06c.91-.05,1.36-.37,1.36-.94,0-.37-.45-1-1.36-1.95l-6.86-6.95-1.46,1.33v6.58c0,1.34.8,2,2.39,2h.66V281h-9v-.6a4.29,4.29,0,0,0,2.54-.48,2.85,2.85,0,0,0,.81-2.39V263.28a3.76,3.76,0,0,0-.36-1.91,1.88,1.88,0,0,0-1.73-.74,5.61,5.61,0,0,0-4.27,1.58,6.09,6.09,0,0,0-1.51,4.37,8.67,8.67,0,0,0,1.31,4.84,6.61,6.61,0,0,0,4,2.85,7.74,7.74,0,0,1-5-1.87q-1.58-1.61-1.58-5v-1.95c.21-1.61,1.26-3,3.15-4.1a8.91,8.91,0,0,1,4.51-1.41h7.24v.76a7.28,7.28,0,0,0-2.21.21,1.67,1.67,0,0,0-1,1.74v8l4.7-4.17c2.6-2.33,3.91-3.84,3.91-4.51s-.75-1.22-2.23-1.33v-.71h7.92v.71a5.54,5.54,0,0,0-3.57,1.32,30.58,30.58,0,0,0-3.54,3.18,15.48,15.48,0,0,1-2.26,1.86l-1.7,1.16,5.77,6a58.47,58.47,0,0,0,5.8,5.4,5.25,5.25,0,0,0,2.44.53Z" transform="translate(-27.47 -228.8)"/>
    <path class="cls-3" d="M229.69,260.58c-2,.23-2.94,1.11-2.94,2.65v10q0,7.63-8.31,7.64a8.82,8.82,0,0,1-5.2-1.52,5.94,5.94,0,0,1-2.49-5.19V262.8c0-1.06-.3-1.72-.92-2a7.36,7.36,0,0,0-1.91-.13q-6.27,0-6.27,5.44c0,2.48.92,4.2,2.75,5.18a5.2,5.2,0,0,1-3.09-1.7,4.86,4.86,0,0,1-1.15-3.3,5.63,5.63,0,0,1,2.86-5,9,9,0,0,1,5-1.46h8.47v.68a5.58,5.58,0,0,0-2.44.34c-.49.28-.73.9-.73,1.86V274q0,5.93,5.87,5.92a7.38,7.38,0,0,0,4.78-1.49,5.39,5.39,0,0,0,2-4.45V263.17c0-1.61-1-2.47-3.09-2.59v-.68h6.84Z" transform="translate(-27.47 -228.8)"/>
    <path class="cls-3" d="M260.12,281h-5c-.12,0-.52-.35-1.18-1.05a13.44,13.44,0,0,1-1.1-1.28l-2.65-3.72a21.5,21.5,0,0,0-3.15-3.6,1.66,1.66,0,0,0-1.18-.24,12.72,12.72,0,0,0,4.75-1.7,4.39,4.39,0,0,0,1.6-3.75c0-2-.58-3.32-1.74-4a7.83,7.83,0,0,0-4-.79h-1.34v16.31a18.58,18.58,0,0,0,.13,1.87,1.6,1.6,0,0,0,1.52,1.31h1.94V281h-9.36v-.68c1.42.09,2.35-.14,2.81-.68a4.08,4.08,0,0,0,.47-2.36V263.91a5.27,5.27,0,0,0-.24-2,1.75,1.75,0,0,0-1.76-.87,12.66,12.66,0,0,0-5.56,1.05,4.7,4.7,0,0,0-2.8,4.52q0,5.26,5.93,7.71a7.2,7.2,0,0,1-5.3-1.75,6.46,6.46,0,0,1-2-5.07q0-6.12,7.82-7c2.29-.26,4-.41,5.24-.44l2.5-.08c3-.09,5.2.31,6.58,1.21a4.63,4.63,0,0,1,2.07,4.19,4.53,4.53,0,0,1-1.81,3.73,6.62,6.62,0,0,1-3.46,1.52,4.85,4.85,0,0,1,1.18,1.28c.88,1.26,1.38,2,1.52,2.15a50.14,50.14,0,0,0,3.25,3.91,8.26,8.26,0,0,0,2.31,1.74,4.73,4.73,0,0,0,2.05.57s0,0-.06-.05l.06,0Z" transform="translate(-27.47 -228.8)"/>
    <path class="cls-3" d="M283.28,280.85h-7.82v-.65c.46,0,.91,0,1.37,0q1.2-.18,1.2-1s-.08-.3-.23-.84-.23-.69-.27-.84a11.8,11.8,0,0,0-3-5.07,15.61,15.61,0,0,0-4.75-3.49l-1.8,4.18c-1.2,2.78-1.81,4.52-1.81,5.22a1.69,1.69,0,0,0,.66,1.42,2.45,2.45,0,0,0,1.6.47v.65h-6.24v-.65a3.76,3.76,0,0,0,3-2.29c.57-1.5,1-2.63,1.34-3.4q.22-.58,2.49-5.8a6.56,6.56,0,0,0-3.67-.74,9.73,9.73,0,0,0-4,.82q1.09-1.82,4.64-1.81a12.32,12.32,0,0,1,3.46.5l3.26-7.64.18,0,1.62,3.7c.49,1.22,1.6,3.92,3.31,8.08a78.5,78.5,0,0,0,3.44,7.58c.26.45.93.77,2,1Zm-9.09-11.19-2.41-5.87-1.56,3.93a14,14,0,0,1,4,1.94" transform="translate(-27.47 -228.8)"/>
  </g>
  <g>
    <path class="cls-3" d="M298.09,276.18a4.15,4.15,0,0,1-1,2.84,3.38,3.38,0,0,1-2.72,1.18,2.87,2.87,0,0,1-2.45-1.3c-.13.11-.48.46-1,1.06a1.4,1.4,0,0,1-.91.56.54.54,0,0,1-.62-.6c0-.52.41-.76,1.23-.74V265.67a.56.56,0,0,0-.39-.53,1.53,1.53,0,0,0-.78-.13v-.38a6.46,6.46,0,0,0,2.33-.42h.16v13a2.82,2.82,0,0,0,.52,1.79,1.94,1.94,0,0,0,1.65.74c1.64,0,2.47-1.22,2.47-3.66s-.91-3.45-2.73-3.45a4.78,4.78,0,0,0-1,.08,3.39,3.39,0,0,1,1.66-.47,3.3,3.3,0,0,1,2.64,1.15,4.08,4.08,0,0,1,.94,2.77" transform="translate(-27.47 -228.8)"/>
    <path class="cls-3" d="M307.11,275.08h-5.24V276q0,3.78,2.53,3.78a2.7,2.7,0,0,0,2.61-1.25,2.49,2.49,0,0,1-1.2,1.29,3.53,3.53,0,0,1-1.73.46,3.47,3.47,0,0,1-2.67-1.13,3.94,3.94,0,0,1-1-2.78,4.27,4.27,0,0,1,.95-2.82A3.34,3.34,0,0,1,304,272.3a3.25,3.25,0,0,1,2.07.73,2.32,2.32,0,0,1,1,1.89Zm-1.58-.36v-.83a1,1,0,0,0-.54-.84,2.13,2.13,0,0,0-1.09-.34,1.9,1.9,0,0,0-1.34.56,1.76,1.76,0,0,0-.59,1.31v.14Z" transform="translate(-27.47 -228.8)"/>
    <path class="cls-3" d="M317.5,279a1.1,1.1,0,0,1-.49.91,1.72,1.72,0,0,1-1,.37,1.51,1.51,0,0,1-1.52-1.32,5.49,5.49,0,0,1-3,1.32,2,2,0,0,1-1.31-.46,1.49,1.49,0,0,1-.55-1.19,2.44,2.44,0,0,1,1.68-2.15l2.43-1.14c-1.72,1-2.57,2-2.57,3a1.33,1.33,0,0,0,.29.88.92.92,0,0,0,.78.37,3.71,3.71,0,0,0,2.27-1.17v-4.3c0-1-.59-1.48-1.77-1.48a1.55,1.55,0,0,0-1.33.48s-.12.33-.3.92a.64.64,0,0,1-.64.5.51.51,0,0,1-.58-.56c0-.66.45-1.15,1.36-1.45a5.2,5.2,0,0,1,1.69-.3c1.95,0,2.93.74,2.93,2.23v4.4c0,.49.19.73.57.73s.71-.3.74-.9h.34Z" transform="translate(-27.47 -228.8)"/>
    <path class="cls-3" d="M326.06,278.75a3,3,0,0,1-2.71,1.55,2.58,2.58,0,0,1-1.69-.57,1.89,1.89,0,0,1-.7-1.55v-4.41a.9.9,0,0,0-.34-.82,2,2,0,0,0-.91-.16v-.44h2.56v5.75a1.39,1.39,0,0,0,1.55,1.58,3.58,3.58,0,0,0,2.24-.93m3.44.57a.63.63,0,0,1-.49.62,6.88,6.88,0,0,1-.85.14c-.78.1-1.26.18-1.43.22a5.93,5.93,0,0,1-.31-2.4v-4.27c0-.57-.36-.86-1.07-.86h-.29v-.42h2.67v6a2.73,2.73,0,0,0,.32,1.28,1.49,1.49,0,0,0,.4-.6c.1-.23.23-.35.38-.35a.64.64,0,0,1,.44.22.7.7,0,0,1,.23.45" transform="translate(-27.47 -228.8)"/>
    <path class="cls-3" d="M337.15,278.92a1.85,1.85,0,0,1-.81,1,2.36,2.36,0,0,1-1.26.36,1.83,1.83,0,0,1-1.43-.62,2.23,2.23,0,0,1-.55-1.52v-5.69H332v-.35a1.94,1.94,0,0,0,1.53-.84,3.24,3.24,0,0,0,.7-1.67h.32v8.58a1.54,1.54,0,0,0,.32,1,1,1,0,0,0,.85.43c.36,0,.75-.26,1.18-.79l.3.15m-.14-6.27c0,.24-.24.36-.7.36a7.53,7.53,0,0,1-1.43-.3,8.43,8.43,0,0,1,1.55-.43c.38,0,.58.12.58.37" transform="translate(-27.47 -228.8)"/>
    <path class="cls-3" d="M347.6,273a5.83,5.83,0,0,0-1.81,2.71q-.37.92-2.34,5.5l-1.29,2.94q-2,4.62-3.26,4.62c-.44,0-.66-.19-.66-.56s.31-.81.94-1.15a3.06,3.06,0,0,0,1.17-.86l2.93-6.51a45.73,45.73,0,0,0,2.53-6.21c0-.34-.38-.52-1.14-.52v-.46h2.93Zm-4,5.16-.62,1.53a10.05,10.05,0,0,0-.24-1.55,14.45,14.45,0,0,0-.92-2.53c-.66-1.52-1.24-2.29-1.73-2.29s-.52.63-.48,1.87a8.71,8.71,0,0,1-.27-1.33c0-.91.33-1.36,1-1.36s1.6.91,2.33,2.71a19.57,19.57,0,0,1,.92,2.95" transform="translate(-27.47 -228.8)"/>
    <path class="cls-3" d="M361.83,278.09a2,2,0,0,1-.63,1.55,2.17,2.17,0,0,1-1.58.6,2.22,2.22,0,0,1-1.79-.82,2.7,2.7,0,0,0-.38.82h-.34v-2.41h.34c.4,1.37,1.12,2.05,2.15,2.05a1.17,1.17,0,0,0,1.33-1.31,1.63,1.63,0,0,0-1-1.42l-1.83-1a2,2,0,0,1-.43-3.16,1.87,1.87,0,0,1,1.4-.61,2.34,2.34,0,0,1,1.36.46,1.4,1.4,0,0,1,.71,1.16.64.64,0,0,1-.13.37.35.35,0,0,1-.29.18c-.14,0-.23-.14-.27-.45a2.48,2.48,0,0,0-.22-.86,1.28,1.28,0,0,0-1.14-.46c-.81,0-1.21.37-1.21,1.1,0,.47.38.93,1.15,1.36l1.77.9a2.32,2.32,0,0,1,1,2" transform="translate(-27.47 -228.8)"/>
    <path class="cls-3" d="M369.3,278.92a1.85,1.85,0,0,1-.81,1,2.36,2.36,0,0,1-1.26.36,1.83,1.83,0,0,1-1.43-.62,2.23,2.23,0,0,1-.55-1.52v-5.69H364.1v-.35a1.94,1.94,0,0,0,1.53-.84,3.24,3.24,0,0,0,.7-1.67h.32v8.58a1.54,1.54,0,0,0,.32,1,1,1,0,0,0,.85.43c.36,0,.75-.26,1.18-.79l.3.15m-.14-6.27c0,.24-.24.36-.7.36a7.53,7.53,0,0,1-1.43-.3,8.43,8.43,0,0,1,1.55-.43c.38,0,.58.12.58.37" transform="translate(-27.47 -228.8)"/>
    <path class="cls-3" d="M377.82,278.75a3.07,3.07,0,0,1-2.71,1.55,2.56,2.56,0,0,1-1.69-.57,1.89,1.89,0,0,1-.7-1.55v-4.41a.92.92,0,0,0-.34-.82,2,2,0,0,0-.92-.16v-.44H374v5.75a1.38,1.38,0,0,0,1.54,1.58,3.58,3.58,0,0,0,2.25-.93m3.44.57a.63.63,0,0,1-.49.62,6.8,6.8,0,0,1-.86.14c-.77.1-1.25.18-1.42.22a5.88,5.88,0,0,1-.32-2.4v-4.27c0-.57-.35-.86-1.07-.86h-.28v-.42h2.67v6a2.85,2.85,0,0,0,.32,1.28,1.49,1.49,0,0,0,.4-.6c.1-.23.23-.35.37-.35a.64.64,0,0,1,.45.22.7.7,0,0,1,.23.45" transform="translate(-27.47 -228.8)"/>
    <path class="cls-3" d="M393.18,279.54a.63.63,0,0,1-.24.49.83.83,0,0,1-.53.21h-1.16a4.89,4.89,0,0,0-1,.16,10.76,10.76,0,0,1-.18-1.28,3.76,3.76,0,0,1-2.79,1.28,3.17,3.17,0,0,1-2.55-1.25,4.52,4.52,0,0,1,0-5.52,3.34,3.34,0,0,1,2.67-1.2,4.79,4.79,0,0,1,1.32.26c-2.27-.09-3.41,1.13-3.41,3.68,0,2.28.81,3.43,2.44,3.43a3,3,0,0,0,2.3-1.21V265.64c0-.26-.2-.43-.61-.51a1.68,1.68,0,0,0-.65,0v-.44l2.25-.36h.32v14.77c0,.36.15.54.32.54s.22-.11.41-.33a.76.76,0,0,1,.51-.33.66.66,0,0,1,.44.18.55.55,0,0,1,.19.42" transform="translate(-27.47 -228.8)"/>
    <path class="cls-3" d="M400.39,277.39a9.38,9.38,0,0,1-.52,1.67c-.37.79-.86,1.18-1.47,1.18q-1.29,0-1.29-1.71v-4.84c0-.54-.14-.82-.42-.82s-.53.29-.86.88v-.24a1.46,1.46,0,0,1,.38-1,1.14,1.14,0,0,1,.9-.43,1,1,0,0,1,.87.59,2.32,2.32,0,0,1,.26,1.1v4.32c0,.89.19,1.33.56,1.33s.75-.32,1.11-1a4.25,4.25,0,0,0,.48-1.1" transform="translate(-27.47 -228.8)"/>
    <path class="cls-3" d="M410.78,276.3a4,4,0,0,1-1.15,2.95,4,4,0,0,1-3,1.15,4.15,4.15,0,0,1-2.93-7,4.12,4.12,0,0,1,7,2.94m-1.57,0c0-2.46-.84-3.7-2.53-3.7s-2.53,1.23-2.53,3.69a5.92,5.92,0,0,0,.38,2.41,2.16,2.16,0,0,0,2.15,1.23q2.54,0,2.53-3.63" transform="translate(-27.47 -228.8)"/>
  </g>
  <g>
    <path class="cls-5" d="M143.55,251.31h-5.41c.92,1.69,2.79,2.53,5.59,2.81a3.39,3.39,0,0,0-.58.87c-3.05-.41-5-1.49-6-3.68H137c-.69,1.83-2.19,3.05-6,3.67a2.53,2.53,0,0,0-.47-.85c3.26-.47,4.71-1.38,5.41-2.82h-5.24v-.86h5.54a8.79,8.79,0,0,0,.27-1.39h-5.74v-.86h5.8v-1.28h-4.42v-.83h4.42v-1.23h-5.17V244h3a6.54,6.54,0,0,0-1.14-1.71l.79-.33a6.09,6.09,0,0,1,1.27,1.82l-.49.22H139a1.84,1.84,0,0,0-.38-.16A13,13,0,0,0,140,242l1.1.43c0,.09-.14.11-.28.11a17.13,17.13,0,0,1-1.22,1.5h3.28v.87h-5.25v1.23h4.54v.83h-4.54v1.28h5.85v.86H137.8a.39.39,0,0,1-.28.16c-.07.43-.14.84-.24,1.23h6.27Z" transform="translate(-27.47 -228.8)"/>
    <path class="cls-5" d="M147.59,250.82a19.55,19.55,0,0,1-2,1.14,4.87,4.87,0,0,0-.54-.77,16,16,0,0,0,6-4.69l1.38.09a.33.33,0,0,1-.28.18,17.63,17.63,0,0,0,6,4.26,5.16,5.16,0,0,0-.61.84,21.12,21.12,0,0,1-2.08-1.17v4.22h-1v-.44h-6V255h-.92Zm-1-6.57v1.63h-.91v-2.5H151V242l1.24.08c0,.1-.1.17-.28.18v1.17h5.42v2.5h-1v-1.63Zm3.67,1.17a.33.33,0,0,1-.31.13,13.59,13.59,0,0,1-3.6,2.9,5.68,5.68,0,0,0-.62-.69,11.16,11.16,0,0,0,3.45-2.76Zm4.5,4.82a16.49,16.49,0,0,1-3.24-2.81,15.13,15.13,0,0,1-3,2.81Zm-6.21,3.39h6V251.1h-6Zm8-5.21a20.88,20.88,0,0,0-3.71-2.87l.63-.56a21.06,21.06,0,0,1,3.78,2.79Z" transform="translate(-27.47 -228.8)"/>
    <path class="cls-5" d="M163.36,246.49a12.51,12.51,0,0,1,1.58,2.85l-.74.37a6.46,6.46,0,0,0-.31-.8c-.48,0-.94.06-1.39.07v6h-.84v-6l-2,.09a.27.27,0,0,1-.21.18l-.26-1h1c.31-.38.63-.83,1-1.29a12.68,12.68,0,0,0-1.8-2.09l.51-.6.45.42a21.75,21.75,0,0,0,1.31-2.72l1,.41c0,.08-.14.12-.29.12a25.73,25.73,0,0,1-1.52,2.74,8.57,8.57,0,0,1,.82,1c.6-.91,1.16-1.88,1.57-2.66l1,.46a.37.37,0,0,1-.31.11,37.16,37.16,0,0,1-2.83,4.09l2.48,0a14.54,14.54,0,0,0-.85-1.38Zm-2.24,3.79c0,.1-.12.16-.28.16a12.72,12.72,0,0,1-.93,3.34c-.18-.11-.49-.25-.7-.35a11.78,11.78,0,0,0,.88-3.4ZM164,253a12.36,12.36,0,0,0-.89-2.73l.71-.24a12,12,0,0,1,.94,2.7Zm2.12-1.79a5.21,5.21,0,0,1-1.29,3.19l-.67-.45a4.7,4.7,0,0,0,1.19-2.88Zm1.6-8.89c-.05.12-.17.14-.3.13a10,10,0,0,1-2.42,3.67,4.69,4.69,0,0,0-.69-.56,8.74,8.74,0,0,0,2.31-3.56Zm-1.57,5.52a25.62,25.62,0,0,0,1.33-3.41l1.12.35a.32.32,0,0,1-.31.14,29.36,29.36,0,0,1-1.26,2.88l3.08-.11a15.3,15.3,0,0,0-1.12-1.36l.69-.41a16.13,16.13,0,0,1,2.22,2.89l-.74.49a6.67,6.67,0,0,0-.54-.9c-1.88.13-3.79.24-5.05.31a.2.2,0,0,1-.19.18l-.35-1Zm1.44,5.82c0,.32.07.37.46.37h1.31c.33,0,.4-.19.44-1.51a2.23,2.23,0,0,0,.76.32c-.08,1.56-.32,1.95-1.11,1.95h-1.51c-1,0-1.22-.24-1.22-1.12v-3l1.14.07c0,.1-.09.17-.27.2Zm1.55-2.54a7.58,7.58,0,0,0-2.32-1.74l.59-.53a7.75,7.75,0,0,1,2.35,1.68ZM170,242a7.87,7.87,0,0,0,2.67,3.32,4,4,0,0,0-.66.7,9.84,9.84,0,0,1-2.78-3.74Zm1.8,12.48a10.15,10.15,0,0,0-1.66-3.23l.72-.37a10.16,10.16,0,0,1,1.73,3.18Z" transform="translate(-27.47 -228.8)"/>
    <path class="cls-5" d="M181,242c0,.13-.14.18-.3.21a17.66,17.66,0,0,0,6.14,4.89,3.86,3.86,0,0,0-.62.81,19.49,19.49,0,0,1-6.1-5,18.29,18.29,0,0,1-6,5.13,5,5,0,0,0-.59-.75,16.33,16.33,0,0,0,6.05-5.36Zm-5.14,13v-5.67h8.63V255h-1v-.6h-6.75v.6Zm.71-8.38h7.17v.86h-7.17Zm7,3.57h-6.75v3.35h6.75Z" transform="translate(-27.47 -228.8)"/>
    <path class="cls-5" d="M200.34,246.56h-2.92v1a7,7,0,0,1-4.49,7,4.79,4.79,0,0,0-.72-.7,6.27,6.27,0,0,0,4.21-6.33v-1H191.9V250h-1v-3.48h-2.74v-1h2.74v-3l1.35.09a.36.36,0,0,1-.35.29v2.66h4.52v-3.22l1.35.09c0,.12-.13.23-.35.26v2.87h2.92Z" transform="translate(-27.47 -228.8)"/>
    <path class="cls-5" d="M212.7,244.27v9.25h-1v-.88H204v.91h-1v-9.28Zm-1,7.43v-6.49H204v6.49Z" transform="translate(-27.47 -228.8)"/>
    <path class="cls-5" d="M215.65,243.49a17.65,17.65,0,0,1,4.17,1.9l-.53.89a17.66,17.66,0,0,0-4.09-1.95Zm-.06,9.71c5-1.54,8.28-4.33,10-8.21a5,5,0,0,0,.91.57,16.07,16.07,0,0,1-9.92,8.41.45.45,0,0,1-.19.32Z" transform="translate(-27.47 -228.8)"/>
  </g>
</svg>
