<?xml version="1.0" encoding="utf-8"?>
<!-- Generator: Adobe Illustrator 25.0.1, SVG Export Plug-In . SVG Version: 6.00 Build 0)  -->
<svg version="1.1" id="レイヤー_1" xmlns="http://www.w3.org/2000/svg" xmlns:xlink="http://www.w3.org/1999/xlink" x="0px"
	 y="0px" viewBox="0 0 383.3 60" style="enable-background:new 0 0 383.3 60;" xml:space="preserve"  width="383.31" height="60">
<style type="text/css">
	.st0{clip-path:url(#SVGID_2_);}
	.st1{fill:#E8588A;}
	.st2{fill:#FFFFFF;}
	.st3{fill:#888888;}
</style>
<g>
	<g>
		<defs>
			<path id="SVGID_1_" d="M1.5,32.2c0,13.1,10.6,23.7,23.7,23.7s23.7-10.6,23.7-23.7C49,19.1,38.3,8.5,25.2,8.5c0,0,0,0,0,0
				C12.1,8.5,1.5,19.1,1.5,32.2"/>
		</defs>
		<clipPath id="SVGID_2_">
			<use xlink:href="#SVGID_1_"  style="overflow:visible;"/>
		</clipPath>
		<g class="st0">
			<path class="st1" d="M-22.4,38.7c2.3,0.1,4.7,0.7,7,0.6s4.7-0.8,7-0.8c2.3,0,4.7,0.6,7,0.7c1.2,0.1,2.4,0,3.5-0.2
				c1.2-0.3,2.3-0.4,3.5-0.4c0.5-0.1,0.9,0.3,1,0.8c0.1,0.5-0.3,0.9-0.8,1c-0.1,0-0.1,0-0.2,0c-1.2,0-2.4-0.2-3.5-0.4
				c-1.2-0.2-2.3-0.3-3.5-0.2c-2.3,0.1-4.7,0.8-7,0.7s-4.7-0.9-7-0.8s-4.7,0.6-7,0.6c-0.5,0.1-0.9-0.3-1-0.8c-0.1-0.5,0.3-0.9,0.8-1
				C-22.5,38.7-22.4,38.7-22.4,38.7z"/>
			<path class="st1" d="M-25.6,42.4c2.3,0,4.7,0.7,7,0.6s4.7-0.8,7-0.8s4.7,0.6,7,0.7c1.2,0.1,2.4,0,3.5-0.2
				c1.2-0.2,2.3-0.4,3.5-0.4c0.5,0,0.9,0.4,0.9,0.9s-0.4,0.9-0.9,0.9c-1.2,0-2.4-0.2-3.5-0.4c-1.2-0.2-2.3-0.3-3.5-0.2
				c-2.3,0.1-4.7,0.8-7,0.7s-4.7-0.9-7-0.8s-4.7,0.6-7,0.6c-0.5,0-1-0.3-1-0.9c0,0,0,0,0,0C-26.6,42.8-26.2,42.4-25.6,42.4
				C-25.7,42.4-25.7,42.4-25.6,42.4L-25.6,42.4"/>
			<path class="st1" d="M-25.6,31.4c2.3,0,4.7,0.7,7,0.6s4.7-0.8,7-0.8s4.7,0.6,7,0.7c1.2,0.1,2.4,0,3.5-0.2
				c1.2-0.2,2.3-0.4,3.5-0.4c0.5,0,0.9,0.4,0.9,0.9s-0.4,0.9-0.9,0.9c-1.2,0-2.4-0.2-3.5-0.4c-1.2-0.2-2.3-0.3-3.5-0.2
				c-2.3,0.1-4.7,0.8-7,0.7s-4.7-0.9-7-0.8s-4.7,0.6-7,0.6c-0.5,0-1-0.3-1-0.9C-26.6,31.8-26.2,31.4-25.6,31.4
				C-25.7,31.4-25.7,31.4-25.6,31.4L-25.6,31.4"/>
			<path class="st1" d="M-44,27.8c2.3,0.1,4.7,0.7,7,0.6s4.7-0.8,7-0.8s4.7,0.6,7,0.7c1.2,0.1,2.4,0,3.5-0.2
				c1.2-0.3,2.3-0.4,3.5-0.4c0.5-0.1,0.9,0.3,1,0.8c0.1,0.5-0.3,0.9-0.8,1c-0.1,0-0.1,0-0.2,0c-1.2,0-2.3-0.2-3.5-0.4
				c-1.2-0.2-2.3-0.3-3.5-0.2c-2.3,0.1-4.7,0.8-7,0.7s-4.7-0.9-7-0.8s-4.7,0.6-7,0.6c-0.5,0.1-0.9-0.3-1-0.8s0.3-0.9,0.8-1
				C-44.1,27.8-44,27.8-44,27.8L-44,27.8"/>
			<path class="st1" d="M-35,24.1c2.3,0.1,4.7,0.7,7,0.6s4.7-0.8,7-0.8s4.7,0.6,7,0.7c1.2,0.1,2.4,0,3.5-0.2
				c1.2-0.2,2.3-0.4,3.5-0.4C-6.5,24-6,24.4-6,25c0,0,0,0,0,0c-0.1,0.5-0.5,0.8-0.9,0.9c-1.2,0-2.3-0.2-3.5-0.4
				c-1.2-0.2-2.3-0.3-3.5-0.2c-2.3,0.1-4.7,0.8-7,0.7s-4.7-0.9-7-0.8s-4.7,0.6-7,0.6c-0.5,0-1-0.4-1-0.9C-36,24.4-35.5,24-35,24.1
				C-35,24-35,24-35,24.1L-35,24.1"/>
			<path class="st1" d="M-44,20.5c2.3,0.1,4.7,0.7,7,0.6s4.7-0.8,7-0.8s4.7,0.6,7,0.7c1.2,0.1,2.4,0,3.5-0.2
				c1.2-0.2,2.3-0.4,3.5-0.4c0.5,0,1,0.3,1,0.9c0,0,0,0,0,0c0,0.5-0.5,0.9-1,0.9c-1.2,0-2.4-0.2-3.5-0.4c-1.2-0.2-2.3-0.3-3.5-0.2
				c-2.3,0.1-4.7,0.8-7,0.7s-4.7-0.9-7-0.8s-4.7,0.6-7,0.6c-0.5,0-0.9-0.4-0.9-0.9C-44.9,20.9-44.5,20.5-44,20.5
				C-44,20.5-44,20.5-44,20.5L-44,20.5"/>
			<path class="st1" d="M-25.6,16.9c2.3,0.1,4.7,0.7,7,0.6s4.7-0.8,7-0.8s4.7,0.6,7,0.7c1.2,0.1,2.4,0,3.5-0.2
				c1.2-0.3,2.3-0.4,3.5-0.4c0.5-0.1,0.9,0.3,1,0.8s-0.3,0.9-0.8,1c-0.1,0-0.1,0-0.2,0c-1.2,0-2.4-0.2-3.5-0.4
				c-1.2-0.2-2.3-0.3-3.5-0.2c-2.3,0.1-4.7,0.8-7,0.7s-4.7-0.9-7-0.8s-4.7,0.6-7,0.6c-0.5,0.1-0.9-0.3-1-0.8c-0.1-0.5,0.3-0.9,0.8-1
				C-25.8,16.9-25.7,16.9-25.6,16.9L-25.6,16.9z"/>
			<path class="st1" d="M-35,13.2c2.3,0,4.7,0.7,7,0.6s4.7-0.8,7-0.8s4.7,0.6,7,0.7c1.2,0.1,2.4,0,3.5-0.2c1.2-0.2,2.3-0.4,3.5-0.4
				c0.5,0,0.9,0.4,0.9,0.9c0,0,0,0,0,0C-6.1,14.6-6.5,15-7,15c-1.2,0-2.3-0.2-3.5-0.4c-1.2-0.2-2.3-0.3-3.5-0.2
				c-2.3,0.1-4.7,0.8-7,0.7s-4.7-0.9-7-0.8s-4.7,0.6-7,0.6c-0.5,0-1-0.3-1-0.9C-36,13.6-35.5,13.2-35,13.2C-35,13.2-35,13.2-35,13.2
				L-35,13.2"/>
			<path class="st1" d="M-25.6,9.6c2.3,0.1,4.7,0.7,7,0.6s4.7-0.8,7-0.8s4.7,0.6,7,0.7c1.2,0.1,2.4,0,3.5-0.2C0,9.7,1.2,9.6,2.4,9.6
				c0.5,0,0.9,0.4,0.9,0.9c0,0.5-0.4,0.9-0.9,0.9c0,0,0,0,0,0c-1.2,0-2.4-0.2-3.5-0.4c-1.2-0.2-2.3-0.3-3.5-0.2
				c-2.3,0.1-4.7,0.8-7,0.7s-4.7-0.9-7-0.8s-4.7,0.6-7,0.6c-0.5,0-1-0.3-1-0.9c0,0,0,0,0,0C-26.6,10-26.2,9.6-25.6,9.6
				C-25.7,9.6-25.7,9.6-25.6,9.6L-25.6,9.6"/>
			<path class="st1" d="M-44,46c2.3,0,4.7,0.7,7,0.6s4.7-0.8,7-0.8s4.7,0.6,7,0.7c1.2,0.1,2.4,0,3.5-0.2c1.2-0.2,2.3-0.4,3.5-0.4
				c0.5,0,1,0.3,1,0.9c0,0,0,0,0,0.1c-0.1,0.5-0.5,0.9-1,0.9c-1.2,0-2.4-0.2-3.5-0.4c-1.2-0.2-2.3-0.3-3.5-0.2
				c-2.3,0.1-4.7,0.8-7,0.7s-4.7-0.9-7-0.8s-4.7,0.6-7,0.6c-0.5,0-1-0.4-1-0.9C-45,46.4-44.6,46-44,46C-44,46-44,46-44,46L-44,46"/>
			<path class="st1" d="M-25.6,49.7c2.3,0.1,4.7,0.7,7,0.6s4.7-0.8,7-0.8s4.7,0.6,7,0.7c1.2,0.1,2.4,0,3.5-0.2
				c1.2-0.3,2.3-0.4,3.5-0.4c0.5-0.1,0.9,0.3,1,0.8c0.1,0.5-0.3,0.9-0.8,1c-0.1,0-0.1,0-0.2,0c-1.2,0-2.4-0.2-3.5-0.4
				c-1.2-0.2-2.3-0.3-3.5-0.2c-2.3,0.1-4.7,0.8-7,0.7s-4.7-0.9-7-0.8s-4.7,0.6-7,0.6c-0.5,0-1-0.3-1-0.9
				C-26.6,50-26.2,49.6-25.6,49.7C-25.7,49.6-25.7,49.6-25.6,49.7L-25.6,49.7z"/>
			<path class="st1" d="M-35,53.2c2.3,0.1,4.7,0.7,7,0.6s4.7-0.8,7-0.8s4.7,0.6,7,0.7c1.2,0.1,2.4,0,3.5-0.2
				c1.2-0.2,2.3-0.4,3.5-0.4c0.5-0.1,0.9,0.3,1,0.8c0.1,0.5-0.3,0.9-0.8,1c-0.1,0-0.1,0-0.2,0c-1.2,0-2.4-0.2-3.5-0.4
				c-1.2-0.2-2.3-0.3-3.5-0.2c-2.3,0.1-4.7,0.8-7,0.7s-4.7-0.9-7-0.8s-4.7,0.6-7,0.6c-0.5,0.1-0.9-0.3-1-0.8c-0.1-0.5,0.3-0.9,0.8-1
				C-35.1,53.2-35.1,53.2-35,53.2L-35,53.2"/>
			<path class="st1" d="M-35,36.9c2.3-0.1,4.7-0.7,7-0.6s4.7,0.8,7,0.8s4.7-0.6,7-0.7c1.2-0.1,2.4,0,3.5,0.2
				c1.2,0.3,2.3,0.4,3.5,0.4c0.5,0.1,0.9-0.3,1-0.8c0.1-0.5-0.3-0.9-0.8-1c-0.1,0-0.1,0-0.2,0c-1.2,0-2.4,0.2-3.5,0.4
				c-1.2,0.2-2.3,0.3-3.5,0.2c-2.3-0.1-4.7-0.8-7-0.7s-4.7,0.9-7,0.8s-4.7-0.6-7-0.6c-0.5-0.1-0.9,0.3-1,0.8c-0.1,0.5,0.3,0.9,0.8,1
				C-35.1,36.9-35.1,36.9-35,36.9L-35,36.9"/>
			<path class="st1" d="M-12,27.8c2.3,0.1,4.7,0.7,7,0.6s4.7-0.8,7-0.8s4.7,0.6,7,0.7c1.2,0.1,2.4,0,3.5-0.2
				c1.2-0.3,2.3-0.4,3.5-0.4c0.5-0.1,0.9,0.3,1,0.8c0.1,0.5-0.3,0.9-0.8,1c-0.1,0-0.1,0-0.2,0c-1.2,0-2.4-0.2-3.5-0.4
				C11.4,29,10.2,28.9,9,29c-2.3,0.1-4.7,0.8-7,0.7s-4.7-0.9-7-0.8s-4.7,0.6-7,0.6c-0.5,0.1-0.9-0.3-1-0.8c-0.1-0.5,0.3-0.9,0.8-1
				C-12.1,27.8-12,27.8-12,27.8L-12,27.8"/>
			<path class="st1" d="M15.3,34.2c0.6-0.6,1.3-1.1,2-1.5c-1.8-1.2-3.8-1.7-5.9-1.6c-3.8,0-6.8,3.2-6.8,3.2s3.1,3.2,6.8,3.2
				c2.1,0.1,4.2-0.5,5.9-1.6C16.6,35.3,15.9,34.8,15.3,34.2"/>
			<path class="st1" d="M-3,24.1c2.3,0.1,4.7,0.7,7,0.6s4.7-0.8,7-0.8s4.7,0.6,7,0.7c1.2,0.1,2.4,0,3.5-0.2c1.2-0.2,2.3-0.4,3.5-0.4
				c0.5-0.1,0.9,0.3,1,0.8s-0.3,0.9-0.8,1c-0.1,0-0.1,0-0.2,0c-1.2,0-2.4-0.2-3.5-0.4c-1.2-0.2-2.3-0.3-3.5-0.2
				c-2.3,0.1-4.7,0.8-7,0.7s-4.7-0.9-7-0.8s-4.7,0.6-7,0.6c-0.5,0-0.9-0.4-1-0.9C-3.9,24.4-3.5,24-3,24.1L-3,24.1"/>
			<path class="st1" d="M-12,20.5c2.3,0.1,4.7,0.7,7,0.6s4.7-0.8,7-0.8s4.7,0.6,7,0.7c1.2,0.1,2.4,0,3.5-0.2
				c1.2-0.2,2.3-0.4,3.5-0.4c0.5,0,0.9,0.4,0.9,0.9c0,0.5-0.4,0.9-0.9,0.9c0,0,0,0,0,0c-1.2,0-2.4-0.2-3.5-0.4
				c-1.2-0.2-2.3-0.3-3.5-0.2c-2.3,0.1-4.7,0.8-7,0.7s-4.7-0.9-7-0.8s-4.7,0.6-7,0.6c-0.5,0-1-0.3-1-0.9c0,0,0,0,0,0
				C-13,20.9-12.5,20.5-12,20.5C-12,20.5-12,20.5-12,20.5L-12,20.5"/>
			<path class="st1" d="M6.4,16.9c2.3,0.1,4.7,0.7,7,0.6s4.7-0.8,7-0.8s4.7,0.6,7,0.7c1.2,0.1,2.4,0,3.5-0.2
				c1.2-0.3,2.3-0.4,3.5-0.4c0.5-0.1,0.9,0.3,1,0.8s-0.3,0.9-0.8,1c-0.1,0-0.1,0-0.2,0c-1.2,0-2.4-0.2-3.5-0.4
				c-1.2-0.2-2.3-0.3-3.5-0.2c-2.3,0.1-4.7,0.8-7,0.7s-4.7-0.9-7-0.8s-4.7,0.6-7,0.6c-0.5,0.1-0.9-0.3-1-0.8s0.3-0.9,0.8-1
				C6.3,16.9,6.4,16.9,6.4,16.9L6.4,16.9z"/>
			<path class="st1" d="M-10.5,13.2c2.3,0,4.7,0.7,7,0.6s4.7-0.8,7-0.8s4.7,0.6,7,0.7c1.2,0.1,2.4,0,3.5-0.2
				c1.2-0.2,2.3-0.4,3.5-0.4c0.5,0,0.9,0.4,1,0.9c0,0,0,0.1,0,0.1c0,0.5-0.4,0.9-0.9,0.9c-1.2,0-2.4-0.2-3.5-0.4
				c-1.2-0.2-2.3-0.3-3.5-0.2c-2.3,0.1-4.7,0.8-7,0.7s-4.7-0.9-7-0.8s-4.7,0.6-7,0.6c-0.5,0-0.9-0.4-1-0.9
				C-11.4,13.7-11,13.3-10.5,13.2C-10.5,13.3-10.4,13.3-10.5,13.2L-10.5,13.2"/>
			<path class="st1" d="M25.4,14c0.3-0.3,0.7-0.6,1.1-0.9c-1-0.7-2.2-1.1-3.5-1c-1.5,0.1-2.9,0.8-4,1.9c1.1,1.1,2.5,1.7,4,1.9
				c1.2,0.1,2.4-0.3,3.5-0.9C26.1,14.6,25.7,14.3,25.4,14"/>
			<path class="st1" d="M6.4,9.6c2.3,0.1,4.7,0.7,7,0.6s4.7-0.8,7-0.8s4.7,0.6,7,0.7c1.2,0.1,2.4,0,3.5-0.2c1.2-0.2,2.3-0.4,3.5-0.4
				c0.5,0,0.9,0.4,0.9,0.9c0,0.5-0.4,0.9-0.9,0.9c0,0,0,0,0,0c-1.2,0-2.4-0.2-3.5-0.4c-1.2-0.2-2.3-0.3-3.5-0.2
				c-2.3,0.1-4.7,0.8-7,0.7s-4.7-0.9-7-0.8s-4.7,0.6-7,0.6c-0.5,0-0.9-0.4-0.9-0.9C5.5,10,5.9,9.6,6.4,9.6C6.4,9.6,6.4,9.6,6.4,9.6
				L6.4,9.6"/>
			<path class="st1" d="M7.5,45.5c-0.6,0.6-1.3,1.1-2,1.6c1.8,1.2,3.9,1.7,6,1.6c3.8,0,6.8-3.2,6.8-3.2s-3-3.2-6.8-3.2
				c-2.1-0.1-4.2,0.4-6,1.6C6.2,44.4,6.9,44.9,7.5,45.5"/>
			<path class="st1" d="M6.4,49.7c2.3,0.1,4.7,0.7,7,0.6s4.7-0.8,7-0.8s4.7,0.6,7,0.7c1.2,0.1,2.4,0,3.5-0.2
				c1.2-0.3,2.3-0.4,3.5-0.4c0.5-0.1,0.9,0.3,1,0.8c0.1,0.5-0.3,0.9-0.8,1c-0.1,0-0.1,0-0.2,0c-1.2,0-2.4-0.2-3.5-0.4
				c-1.2-0.2-2.3-0.3-3.5-0.2c-2.3,0.1-4.7,0.8-7,0.7s-4.7-0.9-7-0.8s-4.7,0.6-7,0.6c-0.5,0.1-0.9-0.3-1-0.8c-0.1-0.5,0.3-0.9,0.8-1
				C6.3,49.6,6.4,49.6,6.4,49.7L6.4,49.7z"/>
			<path class="st1" d="M-6.4,52.8c2.3,0,4.7,0.7,7,0.6s4.7-0.8,7-0.8s4.7,0.6,7,0.7c1.2,0.1,2.4,0,3.5-0.2c1.2-0.2,2.3-0.4,3.5-0.4
				c0.5,0,0.9,0.4,0.9,0.9c0,0,0,0,0,0c0,0.5-0.4,0.9-0.9,0.9c-1.2,0-2.4-0.2-3.5-0.4c-1.2-0.2-2.3-0.3-3.5-0.2
				c-2.3,0.1-4.7,0.8-7,0.7s-4.7-0.9-7-0.8s-4.7,0.6-7,0.6c-0.5,0-1-0.3-1-0.9C-7.4,53.2-7,52.8-6.4,52.8
				C-6.5,52.8-6.5,52.8-6.4,52.8L-6.4,52.8"/>
			<path class="st1" d="M31.3,54.3c0.3-0.3,0.7-0.7,1.2-0.9c-1-0.7-2.3-1-3.5-0.9c-1.5,0.1-2.9,0.8-4,1.9c1.1,1.1,2.5,1.7,4,1.9
				c1.2,0.1,2.5-0.3,3.5-0.9C32.1,55,31.7,54.7,31.3,54.3"/>
			<path class="st1" d="M9.7,38.7c2.3,0.1,4.7,0.7,7,0.6s4.7-0.8,7-0.8s4.7,0.6,7,0.7c1.2,0.1,2.4,0,3.5-0.2
				c1.2-0.3,2.3-0.4,3.5-0.4c0.5-0.1,0.9,0.3,1,0.8c0.1,0.5-0.3,0.9-0.8,1c-0.1,0-0.1,0-0.2,0c-1.2,0-2.4-0.2-3.5-0.4
				c-1.2-0.2-2.3-0.3-3.5-0.2c-2.3,0.1-4.7,0.8-7,0.7s-4.7-0.9-7-0.8s-4.7,0.6-7,0.6c-0.5,0.1-0.9-0.3-1-0.8c-0.1-0.5,0.3-0.9,0.8-1
				C9.6,38.7,9.6,38.7,9.7,38.7z"/>
			<path class="st1" d="M42.3,38.7c2.3,0.1,4.7,0.7,7,0.6s4.7-0.8,7-0.8s4.7,0.6,7,0.7c1.2,0.1,2.4,0,3.5-0.2
				c1.2-0.3,2.3-0.4,3.5-0.4c0.5-0.1,0.9,0.3,1,0.8c0.1,0.5-0.3,0.9-0.8,1c-0.1,0-0.1,0-0.2,0c-1.2,0-2.4-0.2-3.5-0.4
				c-1.2-0.2-2.3-0.3-3.5-0.2c-2.3,0.1-4.7,0.8-7,0.7s-4.7-0.9-7-0.8s-4.7,0.6-7,0.6c-0.5,0.1-0.9-0.3-1-0.8c-0.1-0.5,0.3-0.9,0.8-1
				C42.2,38.7,42.3,38.7,42.3,38.7z"/>
			<path class="st1" d="M39.1,42.4c2.3,0,4.7,0.7,7,0.6s4.7-0.8,7-0.8s4.7,0.6,7,0.7c1.2,0.1,2.4,0,3.5-0.2c1.2-0.2,2.3-0.4,3.5-0.4
				c0.5,0,0.9,0.4,0.9,0.9s-0.4,0.9-0.9,0.9c-1.2,0-2.4-0.2-3.5-0.4c-1.2-0.2-2.3-0.3-3.5-0.2c-2.3,0.1-4.7,0.8-7,0.7
				s-4.7-0.9-7-0.8s-4.7,0.6-7,0.6c-0.5,0-1-0.3-1-0.9c0,0,0,0,0,0C38.1,42.8,38.5,42.4,39.1,42.4C39,42.4,39,42.4,39.1,42.4
				L39.1,42.4"/>
			<path class="st1" d="M39.1,31.4c2.3,0,4.7,0.7,7,0.6s4.7-0.8,7-0.8s4.7,0.6,7,0.7c1.2,0.1,2.4,0,3.5-0.2c1.2-0.2,2.3-0.4,3.5-0.4
				c0.5,0,0.9,0.4,0.9,0.9c0,0.5-0.5,0.9-0.9,0.9c-1.2,0-2.4-0.2-3.5-0.4c-1.2-0.2-2.3-0.3-3.5-0.2c-2.3,0.1-4.7,0.8-7,0.7
				s-4.7-0.9-7-0.8s-4.7,0.6-7,0.6c-0.5,0-1-0.3-1-0.9c0,0,0,0,0,0C38.1,31.8,38.5,31.4,39.1,31.4C39,31.4,39,31.4,39.1,31.4
				L39.1,31.4"/>
			<path class="st1" d="M20.7,27.8c2.3,0.1,4.7,0.7,7,0.6s4.7-0.8,7-0.8s4.7,0.6,7,0.7c1.2,0.1,2.4,0,3.5-0.2
				c1.2-0.3,2.3-0.4,3.5-0.4c0.5-0.1,0.9,0.3,1,0.8c0.1,0.5-0.3,0.9-0.8,1c-0.1,0-0.1,0-0.2,0c-1.2,0-2.4-0.2-3.5-0.4
				C44,29,42.9,28.9,41.7,29c-2.3,0.1-4.7,0.8-7,0.7s-4.7-0.9-7-0.8s-4.7,0.6-7,0.6c-0.5,0.1-0.9-0.3-1-0.8c-0.1-0.5,0.3-0.9,0.8-1
				C20.6,27.8,20.6,27.8,20.7,27.8L20.7,27.8"/>
			<path class="st1" d="M29.7,24.1c2.3,0.1,4.7,0.7,7,0.6s4.7-0.8,7-0.8s4.7,0.6,7,0.7c1.2,0.1,2.4,0,3.5-0.2
				c1.2-0.2,2.3-0.4,3.5-0.4c0.5,0,0.9,0.4,0.9,0.9c0,0,0,0,0,0c0,0.5-0.4,0.9-0.9,0.9c-1.2,0-2.4-0.2-3.5-0.4
				c-1.2-0.2-2.3-0.3-3.5-0.2c-2.3,0.1-4.7,0.8-7,0.7s-4.7-0.9-7-0.8s-4.7,0.6-7,0.6c-0.5,0-1-0.3-1-0.9c0,0,0,0,0,0
				C28.7,24.4,29.1,24,29.7,24.1C29.6,24.1,29.6,24.1,29.7,24.1L29.7,24.1"/>
			<path class="st1" d="M20.7,20.5c2.3,0.1,4.7,0.7,7,0.6s4.7-0.8,7-0.8s4.7,0.6,7,0.7c1.2,0.1,2.4,0,3.5-0.2
				c1.2-0.2,2.3-0.4,3.5-0.4c0.5,0,0.9,0.4,0.9,0.9c0,0.5-0.4,0.9-0.9,0.9c0,0,0,0,0,0c-1.2,0-2.4-0.2-3.5-0.4
				c-1.2-0.2-2.3-0.3-3.5-0.2c-2.3,0.1-4.7,0.8-7,0.7s-4.7-0.9-7-0.8s-4.7,0.6-7,0.6c-0.5,0-0.9-0.4-0.9-0.9
				C19.8,20.9,20.2,20.5,20.7,20.5C20.7,20.5,20.7,20.5,20.7,20.5L20.7,20.5"/>
			<path class="st1" d="M39.1,16.9c2.3,0.1,4.7,0.7,7,0.6s4.7-0.8,7-0.8s4.7,0.6,7,0.7c1.2,0.1,2.4,0,3.5-0.2
				c1.2-0.3,2.3-0.4,3.5-0.4c0.5-0.1,0.9,0.3,1,0.8s-0.3,0.9-0.8,1c-0.1,0-0.1,0-0.2,0c-1.2,0-2.4-0.2-3.5-0.4
				c-1.2-0.2-2.3-0.3-3.5-0.2c-2.3,0.1-4.7,0.8-7,0.7s-4.7-0.9-7-0.8s-4.7,0.6-7,0.6c-0.5,0.1-0.9-0.3-1-0.8c-0.1-0.5,0.3-0.9,0.8-1
				C38.9,16.9,39,16.9,39.1,16.9L39.1,16.9z"/>
			<path class="st1" d="M29.7,13.2c2.3,0,4.7,0.7,7,0.6s4.7-0.8,7-0.8s4.7,0.6,7,0.7c1.2,0.1,2.4,0,3.5-0.2c1.2-0.2,2.3-0.4,3.5-0.4
				c0.5,0,0.9,0.4,0.9,0.9c0,0,0,0,0,0c0,0.5-0.4,0.9-0.9,0.9c-1.2,0-2.4-0.2-3.5-0.4c-1.2-0.2-2.3-0.3-3.5-0.2
				c-2.3,0.1-4.7,0.8-7,0.7s-4.7-0.9-7-0.8S32,15,29.7,15c-0.5,0-1-0.3-1-0.9c0,0,0,0,0,0C28.7,13.7,29.1,13.2,29.7,13.2
				C29.6,13.2,29.6,13.2,29.7,13.2L29.7,13.2"/>
			<path class="st1" d="M39.1,9.6c2.3,0.1,4.7,0.7,7,0.6s4.7-0.8,7-0.8s4.7,0.6,7,0.7c1.2,0.1,2.4,0,3.5-0.2
				c1.2-0.2,2.3-0.4,3.5-0.4c0.5,0,0.9,0.4,0.9,0.9c0,0.5-0.4,0.9-0.9,0.9c0,0,0,0,0,0c-1.2,0-2.4-0.2-3.5-0.4
				c-1.2-0.2-2.3-0.3-3.5-0.2c-2.3,0.1-4.7,0.8-7,0.7s-4.7-0.9-7-0.8s-4.7,0.6-7,0.6c-0.5,0-1-0.3-1-0.9c0,0,0,0,0,0
				C38.1,10,38.5,9.6,39.1,9.6C39,9.6,39,9.6,39.1,9.6L39.1,9.6"/>
			<path class="st1" d="M20.7,46c2.3,0,4.7,0.7,7,0.6s4.7-0.8,7-0.8s4.7,0.6,7,0.7c1.2,0.1,2.4,0,3.5-0.2c1.2-0.2,2.3-0.4,3.5-0.4
				c0.5,0,0.9,0.4,0.9,0.9c0,0,0,0,0,0c0,0.5-0.4,0.9-0.9,0.9c-1.2,0-2.4-0.2-3.5-0.4c-1.2-0.2-2.3-0.3-3.5-0.2
				c-2.3,0.1-4.7,0.8-7,0.7s-4.7-0.9-7-0.8s-4.7,0.6-7,0.6c-0.5,0-1-0.3-1-0.9c0,0,0,0,0,0C19.7,46.4,20.1,46,20.7,46
				C20.6,46,20.6,46,20.7,46L20.7,46"/>
			<path class="st1" d="M39.1,49.7c2.3,0.1,4.7,0.7,7,0.6s4.7-0.8,7-0.8s4.7,0.6,7,0.7c1.2,0.1,2.4,0,3.5-0.2
				c1.2-0.3,2.3-0.4,3.5-0.4c0.5-0.1,0.9,0.3,1,0.8c0.1,0.5-0.3,0.9-0.8,1c-0.1,0-0.1,0-0.2,0c-1.2,0-2.4-0.2-3.5-0.4
				c-1.2-0.2-2.3-0.3-3.5-0.2c-2.3,0.1-4.7,0.8-7,0.7s-4.7-0.9-7-0.8s-4.7,0.6-7,0.6c-0.5,0-1-0.3-1-0.9c0,0,0,0,0,0
				C38.1,50.1,38.5,49.6,39.1,49.7C39,49.6,39,49.6,39.1,49.7L39.1,49.7z"/>
			<path class="st1" d="M29.7,36.9c2.3-0.1,4.7-0.7,7-0.6s4.7,0.8,7,0.8s4.7-0.6,7-0.7c1.2-0.1,2.4,0,3.5,0.2
				c1.2,0.3,2.3,0.4,3.5,0.4c0.5,0.1,0.9-0.3,1-0.8c0.1-0.5-0.3-0.9-0.8-1c-0.1,0-0.1,0-0.2,0c-1.2,0-2.4,0.2-3.5,0.4
				c-1.2,0.2-2.3,0.3-3.5,0.2c-2.3-0.1-4.7-0.8-7-0.7s-4.7,0.9-7,0.8s-4.7-0.6-7-0.6c-0.5-0.1-0.9,0.3-1,0.8c-0.1,0.5,0.3,0.9,0.8,1
				C29.6,36.9,29.6,36.9,29.7,36.9L29.7,36.9"/>
		</g>
	</g>
	<path class="st2" d="M35.9,11C24.3,12.8,16.2,23.7,18,35.4c1.4,9.2,8.7,16.5,17.9,17.9c11.7-5.9,16.4-20.1,10.5-31.8
		C44.2,17,40.5,13.3,35.9,11"/>
	<path class="st1" d="M35.9,53.7L35.9,53.7c-11.9-1.9-20.1-13-18.2-24.9c1.5-9.4,8.8-16.7,18.1-18.1c0.1,0,0.1,0,0.2,0
		C47.9,16.6,52.8,31,46.8,42.9c-2.3,4.7-6.1,8.4-10.7,10.7C36,53.6,36,53.6,35.9,53.7 M35.9,11.3C24.4,13,16.5,23.7,18.2,35.2
		c1.4,9.1,8.5,16.3,17.7,17.7C47.3,47,51.9,33,46.1,21.5C43.8,17.1,40.3,13.6,35.9,11.3"/>
	<path class="st1" d="M25.3,56.2c-13.3,0-24-10.7-24-24c0-13.3,10.7-24,24-24s24,10.7,24,24C49.3,45.5,38.5,56.2,25.3,56.2
		 M25.3,8.8C12.3,8.8,1.9,19.3,1.9,32.2s10.5,23.4,23.4,23.4s23.4-10.5,23.4-23.4C48.7,19.3,38.2,8.8,25.3,8.8"/>
	<path class="st1" d="M49.5,34.6L49.5,34.6c2.1-0.7,4.5-3.2,4.2-4.1c-0.2-0.6-2-0.2-2.1-0.7s1.5-1.2,1.3-1.8
		c-0.3-0.9-3.7-1.6-5.9-0.9l0,0c-1.2,0.4-2.4,1.1-3.3,2.1c-0.7,0.7-1.3,1.4-1.8,2.1c0.5-0.8,1-1.5,1.4-2.4c0.6-1.2,1-2.4,1-3.8l0,0
		c0-2.2-1.6-5.3-2.6-5.3c-0.7,0-0.8,1.8-1.3,1.8s-0.6-1.8-1.3-1.8c-1,0-2.6,3.1-2.6,5.3l0,0c0,1.3,0.4,2.6,1,3.7
		c0.4,0.8,0.9,1.6,1.4,2.4c-0.6-0.7-1.2-1.4-1.8-2.1c-0.9-0.9-2-1.7-3.3-2.1l0,0c-2.1-0.7-5.5-0.1-5.8,0.9c-0.2,0.6,1.5,1.3,1.3,1.8
		s-1.9,0-2.1,0.7c-0.3,0.9,2.1,3.4,4.2,4.1l0,0c1.3,0.4,2.6,0.5,3.9,0.2c0.9-0.1,1.8-0.3,2.7-0.6c-0.9,0.3-1.7,0.7-2.5,1.1
		c-1.2,0.6-2.2,1.4-3,2.5l0,0c-1.3,1.8-1.8,5.2-1,5.8c0.5,0.4,1.7-1,2.1-0.7s-0.6,1.8,0,2.2c0.8,0.6,3.9-1,5.2-2.8l0,0
		c0.7-1.1,1.2-2.3,1.4-3.6c0.1-0.9,0.2-1.8,0.3-2.8c0,0.9,0.1,1.8,0.2,2.7c0.2,1.3,0.7,2.5,1.4,3.6l0,0c1.3,1.8,4.4,3.3,5.2,2.8
		c0.5-0.4-0.4-2,0-2.2s1.6,1.1,2.1,0.7c0.8-0.6,0.3-4-1-5.8l0,0c-0.8-1-1.8-1.9-3-2.5c-0.9-0.4-1.7-0.8-2.6-1.1
		c0.9,0.3,1.8,0.5,2.7,0.6C46.9,35.1,48.2,35,49.5,34.6 M47.2,30.8c1.8-0.5,2,0.4,0.3,1c-1.6,0.5-3.2,0.8-4.9,1
		C44.1,32.1,45.6,31.4,47.2,30.8 M45.4,30c1.6-0.9,2.1-0.1,0.5,0.9c-1.5,0.8-3,1.5-4.6,2.1C42.6,31.9,43.9,30.9,45.4,30 M35.5,29.9
		c1.4,0.9,2.7,1.9,4,3c-1.6-0.6-3.1-1.3-4.6-2.1C33.4,29.8,33.9,29.1,35.5,29.9 M33.7,30.8c1.6,0.6,3.1,1.3,4.6,2.1
		c-1.7-0.2-3.3-0.6-4.9-1.1C31.6,31.1,31.9,30.3,33.7,30.8 M34.3,33.5c-1.8-0.2-1.7-1.1,0.1-1c1.7,0.2,3.3,0.5,4.9,1
		C37.7,33.6,36,33.6,34.3,33.5 M35.5,37.1c1.3-1.1,2.6-2,4.1-2.9c-1,1.3-2.2,2.5-3.4,3.7C34.7,39,34.1,38.3,35.5,37.1 M35.7,39.1
		c1-1.3,2.2-2.6,3.4-3.7c-0.7,1.5-1.6,2.9-2.6,4.3C35.4,41.1,34.7,40.6,35.7,39.1 M38.5,39.3c-0.8,1.7-1.6,1.3-0.9-0.4
		c0.7-1.5,1.5-3,2.4-4.4C39.6,36.1,39.1,37.7,38.5,39.3 M38.5,27.7c-0.3-1.8,0.5-2,1-0.2c0.3,1.6,0.5,3.3,0.6,5
		C39.4,31,38.9,29.4,38.5,27.7 M40.4,31.2c-0.3-1.7-0.4-3.3-0.5-5c0.1-1.8,1-1.8,1,0C40.9,27.9,40.7,29.6,40.4,31.2 M41.3,27.5
		c0.5-1.8,1.3-1.6,1,0.2c-0.4,1.6-0.9,3.2-1.6,4.8C40.8,30.7,41,29.1,41.3,27.5 M42.3,39.2c-0.6-1.5-1.1-3.1-1.5-4.8
		c0.9,1.4,1.7,2.9,2.4,4.4C43.9,40.5,43.1,40.9,42.3,39.2 M44.3,39.6c-0.9-1.4-1.8-2.8-2.5-4.4c1.2,1.2,2.3,2.4,3.3,3.8
		C46.1,40.5,45.4,41.1,44.3,39.6 M45.4,37c1.3,1.3,0.7,1.9-0.7,0.8c-1.2-1.1-2.4-2.4-3.4-3.7C42.7,35,44.1,35.9,45.4,37 M41.5,33.5
		c1.6-0.5,3.3-0.8,4.9-1c1.8-0.1,1.9,0.8,0.1,1C44.9,33.6,43.2,33.6,41.5,33.5"/>
	<path class="st1" d="M12.2,11.7L12.2,11.7C13,11,13.6,9.4,13.3,9s-0.9,0.3-1.1,0.1s0.5-0.8,0.2-1.1s-2,0-2.8,0.8l0,0
		c-0.5,0.4-0.8,1-1,1.6c-0.2,0.4-0.3,0.9-0.4,1.3c0.1-0.5,0.2-1,0.2-1.3c0-0.6-0.1-1.3-0.3-1.9l0,0C7.7,7.5,6.4,6.4,6,6.6
		c-0.3,0.1,0,1-0.2,1.1S5.1,7,4.8,7.1S4.2,9,4.7,10l0,0c0.3,0.6,0.7,1.1,1.2,1.5c0.4,0.3,0.7,0.6,1.1,0.8c-0.4-0.2-0.8-0.4-1.2-0.6
		c-0.6-0.2-1.2-0.3-1.9-0.3l0,0c-1.1,0.1-2.5,1-2.4,1.5s0.9,0.3,0.9,0.6s-0.8,0.4-0.8,0.7c0,0.5,1.6,1.1,2.7,1l0,0
		c0.6-0.1,1.2-0.3,1.8-0.6c0.4-0.2,0.8-0.5,1.1-0.8c-0.3,0.3-0.6,0.7-0.9,1c-0.4,0.5-0.7,1.1-0.9,1.7l0,0C5,17.5,5.5,19.1,6,19.2
		c0.3,0.1,0.6-0.8,0.8-0.7s0.1,0.9,0.4,1c0.5,0.1,1.6-1.2,1.8-2.2l0,0c0.1-0.6,0.1-1.3-0.1-1.9c-0.1-0.4-0.3-0.9-0.4-1.3
		C8.7,14.5,9,15,9.1,15.2c0.3,0.5,0.8,1,1.3,1.4l0,0c0.9,0.6,2.6,0.6,2.9,0.2s-0.6-0.8-0.4-1s0.9,0.2,1.1-0.1s-0.6-1.9-1.6-2.4l0,0
		c-0.6-0.3-1.2-0.5-1.8-0.5c-0.4,0-0.9,0-1.3,0c0.4-0.1,0.9-0.1,1.3-0.2C11.2,12.4,11.8,12.1,12.2,11.7"/>
	<path class="st1" d="M29.3,4.9L29.3,4.9c0.6,0.1,1.5-0.1,1.6-0.4S30.4,4.2,30.4,4S31,4,31,3.8s-0.7-0.9-1.3-1l0,0
		c-0.3-0.1-0.7,0-1,0.1C28.5,2.9,28.3,3,28,3.1c0.2-0.1,0.5-0.2,0.7-0.4C29,2.5,29.2,2.3,29.4,2l0,0c0.3-0.5,0.3-1.5,0.1-1.6
		S29.1,0.7,29,0.6s0.1-0.5-0.1-0.6s-1,0.4-1.3,0.9l0,0c-0.2,0.3-0.3,0.7-0.3,1c0,0.3,0,0.5,0,0.8c0-0.3-0.1-0.6-0.1-0.7
		c-0.1-0.3-0.2-0.7-0.5-0.9l0,0c-0.4-0.4-1.3-0.8-1.5-0.6s0.2,0.5,0.1,0.6s-0.5-0.3-0.6-0.1s0,1.1,0.4,1.5l0,0
		C25.3,2.7,25.6,2.9,26,3c0.2,0.1,0.5,0.2,0.7,0.2c-0.2,0-0.5-0.1-0.7-0.1c-0.3,0-0.7,0-1,0.2l0,0c-0.6,0.2-1.1,1-1,1.2
		s0.5,0,0.6,0.1S24.2,5,24.2,5.2s1.1,0.3,1.6,0.1l0,0c0.3-0.2,0.6-0.4,0.8-0.7C26.8,4.4,27,4.2,27.1,4c-0.1,0.2-0.2,0.5-0.3,0.7
		c-0.2,0.3-0.3,0.7-0.3,1.1l0,0c0.1,0.6,0.6,1.4,0.8,1.4s0.2-0.5,0.3-0.5S27.9,7,28.1,7s0.6-0.9,0.6-1.5l0,0c0-0.4-0.2-0.7-0.4-1
		c-0.1-0.2-0.3-0.4-0.4-0.6c0.2,0.2,0.3,0.4,0.5,0.5C28.6,4.6,29,4.8,29.3,4.9"/>
	<path class="st1" d="M29.4,21.6c-0.2,0.5-0.5,1.1-0.8,1.5c1.4,0.2,2.9,0,4.2-0.6c1.6-0.9,2.8-2.3,3.4-3.9c-1.7-0.7-3.5-0.7-5.2-0.1
		c-1.4,0.5-2.5,1.5-3.3,2.7C28.3,21.2,28.8,21.4,29.4,21.6"/>
	<path class="st1" d="M43.8,53.3c0.8-0.2,1.7-0.2,2.5-0.2c-0.9-2-2.3-3.6-4.2-4.7c-3.2-2.1-7.6-1.1-7.6-1.1s0.8,4.4,4,6.5
		c1.7,1.3,3.8,2,6,2C44.3,55,44,54.2,43.8,53.3"/>
	<path class="st1" d="M32.9,58.7c-0.1,0.5-0.2,0.9-0.3,1.3c1.2-0.1,2.3-0.5,3.1-1.3c1.1-1,1.8-2.3,1.9-3.7c-1.4-0.2-2.8,0.1-4.1,0.9
		c-1,0.7-1.7,1.6-2.1,2.7C32,58.6,32.5,58.6,32.9,58.7"/>
</g>
<g>
	<path class="st1" d="M71.1,47.2c0,0.8,0,1.5-0.2,2.3c-0.2,0.6-0.6,1.2-1.1,1.6c-1.3,1.1-3,1.6-4.6,1.5c-2.2,0.1-4.3-0.8-5.7-2.4
		c-0.3,0.1-0.5,0.8-0.8,1.9h-0.7v-6.7h0.7c0.8,4.4,2.8,6.6,6.2,6.6c1.2,0,2.3-0.3,3.2-1c0.9-0.7,1.4-1.8,1.4-3c0-1.6-1-2.9-3-3.9
		l-5.5-2.6c-1.8-1-3-2.9-3-5c-0.1-1.4,0.5-2.8,1.6-3.8c1.1-1,2.5-1.5,3.9-1.4c1.2,0,2.4,0.3,3.4,0.9c1.3,0.7,2,1.6,2,2.6
		c0,0.3-0.1,0.6-0.3,0.8c-0.1,0.2-0.4,0.4-0.6,0.4c-0.4,0-0.6-0.2-0.6-0.7c0-0.2,0-0.4,0.1-0.5c0-0.2,0.1-0.4,0.1-0.5
		c0-0.2-0.1-0.5-0.2-0.6c-0.9-1.1-2.3-1.6-3.6-1.5c-0.9,0-1.8,0.2-2.5,0.8c-0.4,0.4-0.7,0.8-1,1.3c-0.3,0.5-0.5,1-0.5,1.6
		c0,1.5,1,2.7,3,3.7l5.6,2.7C69.9,43.2,71,45.1,71.1,47.2"/>
	<path class="st1" d="M94.7,52.1h-7.8v-0.6c0.4,0,0.9,0,1.4,0c0.8-0.1,1.2-0.5,1.2-1c0-0.4-0.1-0.6-0.2-0.8
		c-0.1-0.3-0.2-0.6-0.3-0.8c-0.6-1.9-1.6-3.7-3.1-5.1c-1.4-1.5-3-2.6-4.8-3.5l-1.8,4.2c-1.2,2.8-1.8,4.5-1.8,5.2
		c0,0.6,0.2,1.1,0.6,1.4c0.5,0.3,1,0.5,1.6,0.5v0.6h-6.2v-0.6c1.3-0.2,2.5-1,3-2.3c0.6-1.5,1-2.6,1.3-3.4c0.2-0.4,1-2.3,2.5-5.8
		c-1.1-0.6-2.4-0.9-3.7-0.7c-1.4,0-2.7,0.3-4,0.8c0.7-1.2,2.3-1.8,4.6-1.8c1.2,0,2.3,0.2,3.5,0.5l3.2-7.6h0.2l1.6,3.7
		c0.5,1.2,1.6,3.9,3.3,8.1c1,2.6,2.2,5.1,3.4,7.6c0.3,0.5,0.9,0.8,2,1L94.7,52.1z M85.7,40.9L83.2,35l-1.6,3.9
		C83.1,39.4,84.5,40,85.7,40.9"/>
	<path class="st1" d="M126.1,52.2h-10.6v-0.7c0.5,0,1.1,0,1.7-0.1c0.9,0,1.4-0.4,1.4-0.9c0-0.4-0.4-1-1.4-2l-6.9-7l-1.5,1.3v6.6
		c0,1.3,0.8,2,2.4,2h0.7v0.7h-9v-0.6c0.9,0.1,1.8-0.1,2.5-0.5c0.6-0.6,0.9-1.5,0.8-2.4V34.5c0-0.7-0.1-1.3-0.4-1.9
		c-0.4-0.5-1.1-0.8-1.7-0.7c-1.6-0.1-3.1,0.5-4.3,1.6c-1.1,1.2-1.6,2.8-1.5,4.4c0,1.7,0.4,3.4,1.3,4.8c0.9,1.4,2.4,2.4,4,2.9
		c-1.8,0-3.6-0.7-5-1.9c-1.1-1.1-1.6-2.7-1.6-5v-2c0.2-1.6,1.3-3,3.1-4.1c1.3-0.9,2.9-1.4,4.5-1.4h7.2v0.8c-0.7,0-1.5,0-2.2,0.2
		c-0.7,0.3-1.1,1-1,1.7v8l4.7-4.2c2.6-2.3,3.9-3.8,3.9-4.5s-0.8-1.2-2.2-1.3v-0.7h7.9v0.7c-1.3,0-2.6,0.5-3.6,1.3
		c-1.3,1-2.4,2-3.5,3.2c-0.7,0.7-1.4,1.3-2.3,1.9l-1.7,1.2l5.8,6c1.8,1.9,3.7,3.7,5.8,5.4c0.8,0.4,1.6,0.6,2.4,0.5L126.1,52.2z"/>
	<path class="st1" d="M157.2,31.8c-2,0.2-2.9,1.1-2.9,2.6v10c0,5.1-2.8,7.6-8.3,7.6c-1.8,0.1-3.7-0.5-5.2-1.5
		c-1.7-1.2-2.6-3.1-2.5-5.2V34c0-1.1-0.3-1.7-0.9-2c-0.6-0.1-1.3-0.2-1.9-0.1c-4.2,0-6.3,1.8-6.3,5.4c0,2.5,0.9,4.2,2.8,5.2
		c-1.2-0.2-2.3-0.8-3.1-1.7c-0.8-0.9-1.2-2.1-1.1-3.3c0-2.1,1.1-4,2.9-5c1.5-1,3.2-1.5,5-1.5h8.5v0.7c-0.8-0.1-1.7,0-2.4,0.3
		c-0.5,0.3-0.7,0.9-0.7,1.9v11.3c0,4,2,5.9,5.9,5.9c1.7,0.1,3.4-0.5,4.8-1.5c1.3-1.1,2.1-2.7,2-4.5V34.4c0-1.6-1-2.5-3.1-2.6v-0.7
		h6.8L157.2,31.8z"/>
	<path class="st1" d="M187.6,52.2h-5c-0.1,0-0.5-0.4-1.2-1c-0.4-0.4-0.8-0.8-1.1-1.3l-2.6-3.7c-0.9-1.3-2-2.5-3.1-3.6
		c-0.3-0.2-0.8-0.3-1.2-0.2c1.7-0.2,3.3-0.8,4.8-1.7c1.1-0.9,1.7-2.3,1.6-3.8c0-2-0.6-3.3-1.7-4c-1.2-0.6-2.6-0.9-4-0.8h-1.3v16.3
		c0,0.6,0.1,1.2,0.1,1.9c0.1,0.7,0.8,1.3,1.5,1.3h1.9v0.6h-9.4v-0.7c1.4,0.1,2.4-0.1,2.8-0.7c0.4-0.7,0.6-1.5,0.5-2.4V35.1
		c0-0.7,0-1.4-0.2-2c-0.4-0.6-1.1-1-1.8-0.9c-1.9-0.1-3.8,0.3-5.6,1c-1.8,0.8-2.9,2.6-2.8,4.5c0,3.5,2,6.1,5.9,7.7
		c-1.9,0.2-3.8-0.5-5.3-1.8c-1.4-1.3-2.1-3.2-2-5.1c0-4.1,2.6-6.4,7.8-7c2.3-0.3,4-0.4,5.2-0.4l2.5-0.1c3-0.1,5.2,0.3,6.6,1.2
		c1.4,0.9,2.2,2.5,2.1,4.2c0,1.5-0.6,2.9-1.8,3.7c-1,0.8-2.2,1.4-3.5,1.5c0.5,0.4,0.9,0.8,1.2,1.3c0.9,1.3,1.4,2,1.5,2.1
		c1,1.4,2.1,2.7,3.2,3.9c0.7,0.7,1.4,1.3,2.3,1.7c0.6,0.3,1.3,0.5,2,0.6c0,0,0,0-0.1,0h0.1L187.6,52.2z"/>
	<path class="st1" d="M210.8,52.1H203v-0.6c0.5,0,0.9,0,1.4,0c0.8-0.1,1.2-0.5,1.2-1c0-0.8-0.1-0.3-0.2-0.8s-0.2-0.7-0.3-0.8
		c-0.6-1.9-1.6-3.7-3-5.1c-1.3-1.5-3-2.6-4.8-3.5l-1.8,4.2c-1.2,2.8-1.8,4.5-1.8,5.2c0,0.6,0.2,1.1,0.7,1.4c0.5,0.3,1,0.5,1.6,0.5
		v0.6h-6.2v-0.6c1.3-0.2,2.5-1,3-2.3c0.6-1.5,1-2.6,1.3-3.4c0.1-0.4,1-2.3,2.5-5.8c-1.1-0.6-2.4-0.9-3.7-0.7c-1.4,0-2.7,0.3-4,0.8
		c0.7-1.2,2.3-1.8,4.6-1.8c1.2,0,2.3,0.2,3.5,0.5l3.3-7.6h0.2l1.6,3.7c0.5,1.2,1.6,3.9,3.3,8.1c1,2.6,2.2,5.1,3.4,7.6
		c0.3,0.5,0.9,0.8,2,1L210.8,52.1z M201.7,40.9l-2.4-5.9l-1.6,3.9C199.2,39.3,200.5,40,201.7,40.9"/>
</g>
<g>
	<path class="st1" d="M225.6,47.4c0,1-0.3,2.1-1,2.8c-0.7,0.8-1.7,1.2-2.7,1.2c-1,0-1.9-0.5-2.5-1.3c-0.1,0.1-0.5,0.5-1,1.1
		c-0.2,0.3-0.5,0.5-0.9,0.6c-0.3,0-0.6-0.2-0.6-0.4c0,0,0-0.1,0-0.2c0-0.5,0.4-0.8,1.2-0.7V36.9c0-0.2-0.2-0.5-0.4-0.5
		c-0.2-0.1-0.5-0.2-0.8-0.1v-0.4c0.8,0,1.6-0.1,2.3-0.4h0.2v13c0,0.6,0.1,1.3,0.5,1.8c0.4,0.5,1,0.8,1.6,0.7c1.6,0,2.5-1.2,2.5-3.7
		s-0.9-3.5-2.7-3.5c-0.3,0-0.7,0-1,0.1c0.5-0.3,1.1-0.5,1.7-0.5c1,0,2,0.4,2.6,1.1C225.3,45.4,225.7,46.4,225.6,47.4"/>
	<path class="st1" d="M234.6,46.3h-5.2v0.9c0,2.5,0.8,3.8,2.5,3.8c1,0.1,2.1-0.4,2.6-1.2c-0.2,0.6-0.7,1-1.2,1.3
		c-0.5,0.3-1.1,0.5-1.7,0.5c-1,0-2-0.4-2.7-1.1c-0.7-0.8-1-1.8-1-2.8c0-1,0.3-2,1-2.8c0.6-0.8,1.6-1.3,2.6-1.2
		c0.8,0,1.5,0.3,2.1,0.7c0.6,0.4,1,1.1,1,1.9L234.6,46.3z M233.1,45.9v-0.8c0-0.4-0.2-0.7-0.5-0.8c-0.3-0.2-0.7-0.3-1.1-0.3
		c-0.5,0-1,0.2-1.3,0.6c-0.4,0.3-0.6,0.8-0.6,1.3v0.1L233.1,45.9z"/>
	<path class="st1" d="M245,50.2c0,0.4-0.2,0.7-0.5,0.9c-0.3,0.2-0.6,0.4-1,0.4c-0.8,0-1.4-0.6-1.5-1.3c-0.8,0.7-1.9,1.2-3,1.3
		c-0.5,0-0.9-0.2-1.3-0.5c-0.4-0.3-0.6-0.7-0.5-1.2c0.1-1,0.7-1.8,1.7-2.1l2.4-1.1c-1.7,1-2.6,2-2.6,3c0,0.3,0.1,0.6,0.3,0.9
		c0.2,0.2,0.5,0.4,0.8,0.4c0.9-0.1,1.7-0.5,2.3-1.2v-4.3c0-1-0.6-1.5-1.8-1.5c-0.5-0.1-1,0.1-1.3,0.5c0,0-0.1,0.3-0.3,0.9
		c-0.1,0.3-0.3,0.5-0.6,0.5c-0.3,0-0.5-0.2-0.6-0.4c0,0,0-0.1,0-0.1c0-0.7,0.5-1.1,1.4-1.5c0.5-0.2,1.1-0.3,1.7-0.3
		c2,0,2.9,0.7,2.9,2.2v4.4c0,0.5,0.2,0.7,0.6,0.7s0.7-0.3,0.7-0.9h0.3L245,50.2z"/>
	<path class="st1" d="M253.6,49.9c-0.5,1-1.6,1.6-2.7,1.5c-0.6,0-1.2-0.2-1.7-0.6c-0.5-0.4-0.7-1-0.7-1.5V45c0-0.3-0.1-0.6-0.3-0.8
		c-0.3-0.1-0.6-0.2-0.9-0.2v-0.4h2.6v5.8c-0.1,0.8,0.4,1.5,1.2,1.6c0.1,0,0.3,0,0.4,0C252.2,50.8,253,50.5,253.6,49.9 M257,50.5
		c0,0.3-0.2,0.6-0.5,0.6c-0.3,0.1-0.6,0.1-0.9,0.1c-0.8,0.1-1.3,0.2-1.4,0.2c-0.3-0.8-0.4-1.6-0.3-2.4v-4.3c0-0.6-0.4-0.9-1.1-0.9
		h-0.3v-0.4h2.7v6c0,0.4,0.1,0.9,0.3,1.3c0.2-0.2,0.3-0.4,0.4-0.6c0.1-0.2,0.2-0.4,0.4-0.4c0.2,0,0.3,0.1,0.4,0.2
		C256.9,50.2,257,50.4,257,50.5"/>
	<path class="st1" d="M264.7,50.1c-0.1,0.4-0.4,0.8-0.8,1c-0.4,0.2-0.8,0.4-1.3,0.4c-0.5,0-1.1-0.2-1.4-0.6c-0.4-0.4-0.6-1-0.5-1.5
		v-5.7h-1.1v-0.4c0.6,0,1.2-0.3,1.5-0.8c0.4-0.5,0.6-1.1,0.7-1.7h0.3v8.6c0,0.4,0.1,0.7,0.3,1c0.2,0.3,0.5,0.4,0.9,0.4
		c0.4,0,0.8-0.3,1.2-0.8L264.7,50.1 M264.6,43.9c0,0.2-0.2,0.4-0.7,0.4c-0.5-0.1-1-0.2-1.4-0.3c0.5-0.2,1-0.3,1.5-0.4
		C264.4,43.5,264.6,43.6,264.6,43.9"/>
	<path class="st1" d="M275.1,44.2c-0.8,0.7-1.5,1.7-1.8,2.7c-0.2,0.6-1,2.4-2.3,5.5l-1.3,2.9c-1.3,3.1-2.4,4.6-3.3,4.6
		c-0.4,0-0.7-0.2-0.7-0.6s0.3-0.8,0.9-1.1c0.5-0.2,0.9-0.5,1.2-0.9l2.9-6.5c1-2,1.8-4.1,2.5-6.2c0-0.3-0.4-0.5-1.1-0.5v-0.5h2.9
		L275.1,44.2z M271.1,49.4l-0.6,1.5c0-0.5-0.1-1-0.2-1.5c-0.2-0.9-0.5-1.7-0.9-2.5c-0.7-1.5-1.2-2.3-1.7-2.3s-0.5,0.6-0.5,1.9
		c-0.1-0.4-0.2-0.9-0.3-1.3c0-0.9,0.3-1.4,1-1.4s1.6,0.9,2.3,2.7C270.6,47.4,270.9,48.4,271.1,49.4"/>
	<path class="st1" d="M289.4,49.3c0,0.6-0.2,1.2-0.6,1.5c-0.4,0.4-1,0.6-1.6,0.6c-0.7,0-1.4-0.3-1.8-0.8c-0.2,0.3-0.3,0.5-0.4,0.8
		h-0.3V49h0.3c0.4,1.4,1.1,2,2.1,2c0.6,0.1,1.2-0.3,1.3-1c0-0.1,0-0.2,0-0.3c0-0.6-0.4-1.2-1-1.4l-1.8-1c-1-0.5-1.3-1.8-0.8-2.7
		c0.1-0.2,0.2-0.3,0.3-0.4c0.4-0.4,0.9-0.6,1.4-0.6c0.5,0,1,0.2,1.4,0.5c0.4,0.2,0.7,0.7,0.7,1.2c0,0.1,0,0.3-0.1,0.4
		c-0.1,0.1-0.2,0.2-0.3,0.2c-0.1,0-0.2-0.1-0.3-0.5c0-0.3-0.1-0.6-0.2-0.9c-0.3-0.3-0.7-0.5-1.1-0.5c-0.8,0-1.2,0.4-1.2,1.1
		c0,0.5,0.4,0.9,1.1,1.4l1.8,0.9C289,47.8,289.4,48.5,289.4,49.3"/>
	<path class="st1" d="M296.8,50.1c-0.1,0.4-0.4,0.8-0.8,1c-0.4,0.2-0.8,0.4-1.3,0.4c-0.5,0-1.1-0.2-1.4-0.6c-0.4-0.4-0.6-1-0.5-1.5
		v-5.7h-1.1v-0.4c0.6,0,1.2-0.3,1.5-0.8c0.4-0.5,0.6-1.1,0.7-1.7h0.3v8.6c0,0.4,0.1,0.7,0.3,1c0.2,0.3,0.5,0.4,0.9,0.4
		c0.4,0,0.8-0.3,1.2-0.8L296.8,50.1 M296.7,43.9c0,0.2-0.2,0.4-0.7,0.4c-0.5-0.1-1-0.2-1.4-0.3c0.5-0.2,1-0.3,1.5-0.4
		C296.5,43.5,296.7,43.6,296.7,43.9"/>
	<path class="st1" d="M305.3,49.9c-0.6,1-1.6,1.6-2.7,1.5c-0.6,0-1.2-0.2-1.7-0.6c-0.5-0.4-0.7-1-0.7-1.5V45c0-0.3-0.1-0.6-0.3-0.8
		c-0.3-0.1-0.6-0.2-0.9-0.2v-0.4h2.5v5.8c-0.1,0.8,0.4,1.5,1.2,1.6c0.1,0,0.3,0,0.4,0C303.9,50.8,304.7,50.5,305.3,49.9 M308.8,50.5
		c0,0.3-0.2,0.6-0.5,0.6c-0.3,0.1-0.6,0.1-0.9,0.1c-0.8,0.1-1.2,0.2-1.4,0.2c-0.3-0.8-0.4-1.6-0.3-2.4v-4.3c0-0.6-0.4-0.9-1.1-0.9
		h-0.3v-0.4h2.7v6c0,0.4,0.1,0.9,0.3,1.3c0.2-0.2,0.3-0.4,0.4-0.6c0.1-0.2,0.2-0.4,0.4-0.4c0.2,0,0.3,0.1,0.5,0.2
		C308.7,50.2,308.7,50.4,308.8,50.5"/>
	<path class="st1" d="M320.7,50.7c0,0.2-0.1,0.4-0.2,0.5c-0.1,0.1-0.3,0.2-0.5,0.2h-1.2c-0.3,0-0.7,0.1-1,0.2
		c-0.1-0.4-0.1-0.9-0.2-1.3c-0.7,0.8-1.7,1.3-2.8,1.3c-1,0-1.9-0.5-2.5-1.2c-1.3-1.6-1.3-3.9,0-5.5c0.7-0.8,1.6-1.2,2.7-1.2
		c0.5,0,0.9,0.1,1.3,0.3c-2.3-0.1-3.4,1.1-3.4,3.7c0,2.3,0.8,3.4,2.4,3.4c0.9,0,1.8-0.5,2.3-1.2V36.8c0-0.3-0.2-0.4-0.6-0.5
		c-0.2,0-0.4,0-0.6,0v-0.4l2.2-0.4h0.3v14.8c0,0.4,0.1,0.5,0.3,0.5s0.2-0.1,0.4-0.3c0.1-0.2,0.3-0.3,0.5-0.3c0.2,0,0.3,0.1,0.4,0.2
		C320.7,50.5,320.8,50.6,320.7,50.7"/>
	<path class="st1" d="M327.9,48.6c-0.1,0.6-0.3,1.1-0.5,1.7c-0.4,0.8-0.9,1.2-1.5,1.2c-0.9,0-1.3-0.6-1.3-1.7v-4.8
		c0-0.5-0.1-0.8-0.4-0.8s-0.5,0.3-0.9,0.9v-0.2c0-0.4,0.1-0.7,0.4-1c0.2-0.3,0.5-0.4,0.9-0.4c0.4,0,0.7,0.2,0.9,0.6
		c0.2,0.3,0.3,0.7,0.3,1.1v4.3c0,0.9,0.2,1.3,0.6,1.3s0.8-0.3,1.1-1C327.7,49.3,327.8,48.9,327.9,48.6"/>
	<path class="st1" d="M338.3,47.5c0,1.1-0.4,2.2-1.1,3c-0.8,0.8-1.9,1.2-3,1.1c-2.3,0-4.1-1.9-4.1-4.2c0-1,0.4-2,1.1-2.8
		c1.6-1.6,4.2-1.6,5.8,0.1C337.8,45.4,338.2,46.5,338.3,47.5 M336.7,47.5c0-2.5-0.8-3.7-2.5-3.7s-2.5,1.2-2.5,3.7
		c0,0.8,0.1,1.6,0.4,2.4c0.4,0.8,1.2,1.3,2.1,1.2C335.8,51.2,336.7,50,336.7,47.5"/>
</g>
<g>
	<path class="st3" d="M71.1,22.5h-5.4c0.9,1.7,2.8,2.5,5.6,2.8c-0.2,0.3-0.4,0.6-0.6,0.9c-3.1-0.4-5-1.5-6-3.7h-0.1
		c-0.7,1.8-2.2,3.1-6,3.7c-0.1-0.3-0.3-0.6-0.5-0.9c3.3-0.5,4.7-1.4,5.4-2.8h-5.2v-0.9h5.5c0.1-0.5,0.2-0.9,0.3-1.4h-5.7v-0.9h5.8
		v-1.3h-4.4v-0.8h4.4v-1.2h-5.2v-0.9h3c-0.3-0.6-0.7-1.2-1.1-1.7l0.8-0.3c0.5,0.5,1,1.1,1.3,1.8l-0.5,0.2h4.2
		c-0.1-0.1-0.2-0.1-0.4-0.2c0.5-0.6,1-1.2,1.4-1.8l1.1,0.4c0,0.1-0.1,0.1-0.3,0.1c-0.4,0.5-0.8,1-1.2,1.5h3.3v0.9h-5.2v1.2h4.5v0.8
		h-4.5v1.3H71v0.9h-5.7c-0.1,0.1-0.2,0.1-0.3,0.2c-0.1,0.4-0.1,0.8-0.2,1.2h6.3V22.5z"/>
	<path class="st3" d="M75.1,22c-0.6,0.4-1.3,0.8-2,1.1c-0.2-0.3-0.3-0.5-0.5-0.8c2.3-1.1,4.4-2.7,6-4.7l1.4,0.1
		c-0.1,0.1-0.2,0.2-0.3,0.2c1.7,1.8,3.7,3.3,6,4.3c-0.2,0.3-0.4,0.5-0.6,0.8c-0.7-0.4-1.4-0.7-2.1-1.2v4.2h-1v-0.4h-6v0.5h-0.9
		L75.1,22z M74.1,15.4v1.6h-0.9v-2.5h5.3v-1.4l1.2,0.1c0,0.1-0.1,0.2-0.3,0.2v1.2h5.4v2.5h-1v-1.6L74.1,15.4z M77.8,16.6
		c-0.1,0.1-0.2,0.1-0.3,0.1c-1,1.2-2.2,2.1-3.6,2.9c-0.2-0.2-0.4-0.5-0.6-0.7c1.3-0.7,2.5-1.6,3.4-2.8L77.8,16.6z M82.3,21.4
		c-1.2-0.8-2.3-1.7-3.2-2.8c-0.9,1.1-1.9,2-3,2.8H82.3z M76.1,24.8h6v-2.5h-6V24.8z M84.1,19.6c-1.1-1.1-2.4-2.1-3.7-2.9l0.6-0.6
		c1.4,0.8,2.6,1.7,3.8,2.8L84.1,19.6z"/>
	<path class="st3" d="M90.9,17.7c0.6,0.9,1.2,1.8,1.6,2.9l-0.7,0.4c-0.1-0.3-0.2-0.5-0.3-0.8c-0.5,0-0.9,0.1-1.4,0.1v6h-0.8v-6
		l-2,0.1c0,0.1-0.1,0.2-0.2,0.2l-0.3-1h1c0.3-0.4,0.6-0.8,1-1.3c-0.5-0.8-1.1-1.5-1.8-2.1l0.5-0.6l0.4,0.4c0.5-0.9,0.9-1.8,1.3-2.7
		l1,0.4c0,0.1-0.1,0.1-0.3,0.1c-0.5,0.9-1,1.9-1.5,2.7c0.3,0.3,0.6,0.6,0.8,1c0.6-0.9,1.2-1.9,1.6-2.7l1,0.5
		c-0.1,0.1-0.2,0.1-0.3,0.1c-0.9,1.4-1.8,2.8-2.8,4.1h2.5c-0.3-0.5-0.5-0.9-0.9-1.4L90.9,17.7z M88.6,21.5c0,0.1-0.1,0.2-0.3,0.2
		c-0.2,1.2-0.5,2.3-0.9,3.3c-0.2-0.1-0.5-0.2-0.7-0.4c0.5-1.1,0.8-2.2,0.9-3.4L88.6,21.5z M91.5,24.2c-0.2-0.9-0.5-1.9-0.9-2.7
		l0.7-0.2c0.4,0.9,0.7,1.8,0.9,2.7L91.5,24.2z M93.6,22.4c-0.1,1.2-0.5,2.3-1.3,3.2l-0.7-0.4c0.7-0.8,1.1-1.8,1.2-2.9L93.6,22.4z
		 M95.2,13.5c-0.1,0.1-0.2,0.1-0.3,0.1c-0.5,1.4-1.4,2.6-2.4,3.7c-0.2-0.2-0.4-0.4-0.7-0.6c1.1-1,1.8-2.2,2.3-3.6L95.2,13.5z
		 M93.7,19c0.5-1.1,1-2.2,1.3-3.4l1.1,0.4c-0.1,0.1-0.2,0.2-0.3,0.1c-0.4,1-0.8,1.9-1.3,2.9l3.1-0.1c-0.3-0.5-0.7-0.9-1.1-1.4
		l0.7-0.4c0.8,0.9,1.6,1.8,2.2,2.9l-0.7,0.5c-0.2-0.3-0.3-0.6-0.5-0.9c-1.9,0.1-3.8,0.2-5.1,0.3c0,0.1-0.1,0.2-0.2,0.2l-0.4-1
		L93.7,19z M95.1,24.9c0,0.3,0.1,0.4,0.5,0.4h1.3c0.3,0,0.4-0.2,0.4-1.5c0.2,0.2,0.5,0.3,0.8,0.3C98,25.6,97.8,26,97,26h-1.5
		c-1,0-1.2-0.2-1.2-1.1v-3l1.1,0.1c0,0.1-0.1,0.2-0.3,0.2V24.9z M96.7,22.3c-0.7-0.7-1.4-1.3-2.3-1.7l0.6-0.5c0.9,0.4,1.7,1,2.4,1.7
		L96.7,22.3z M97.5,13.2c0.6,1.3,1.5,2.5,2.7,3.3c-0.2,0.2-0.5,0.4-0.7,0.7c-1.2-1-2.2-2.3-2.8-3.7L97.5,13.2z M99.3,25.7
		c-0.4-1.2-0.9-2.3-1.7-3.2l0.7-0.4c0.8,0.9,1.3,2,1.7,3.2L99.3,25.7z"/>
	<path class="st3" d="M108.5,13.2c0,0.1-0.1,0.2-0.3,0.2c1.7,2.1,3.8,3.7,6.1,4.9c-0.2,0.2-0.5,0.5-0.6,0.8c-2.4-1.2-4.4-2.9-6.1-5
		c-1.6,2.1-3.7,3.9-6,5.1c-0.2-0.3-0.4-0.5-0.6-0.8c2.4-1.3,4.5-3.1,6.1-5.4L108.5,13.2z M103.4,26.2v-5.7h8.6v5.7h-1v-0.6h-6.8v0.6
		H103.4z M104.1,17.8h7.2v0.9h-7.2V17.8z M111.1,21.4h-6.8v3.4h6.8V21.4z"/>
	<path class="st3" d="M127.9,17.8h-2.9v1c0.2,3.1-1.6,5.9-4.5,7c-0.2-0.3-0.5-0.5-0.7-0.7c2.7-0.9,4.4-3.5,4.2-6.3v-1h-4.5v3.5h-1
		v-3.5h-2.7v-1h2.7v-3l1.4,0.1c0,0.2-0.2,0.3-0.4,0.3v2.7h4.5v-3.2l1.4,0.1c0,0.1-0.1,0.2-0.4,0.3v2.9h2.9V17.8z"/>
	<path class="st3" d="M140.2,15.5v9.2h-1v-0.9h-7.7v0.9h-1v-9.3H140.2z M139.2,22.9v-6.5h-7.7v6.5H139.2z"/>
	<path class="st3" d="M143.2,14.7c1.5,0.4,2.9,1.1,4.2,1.9l-0.5,0.9c-1.3-0.8-2.6-1.5-4.1-1.9L143.2,14.7z M143.1,24.4
		c5-1.5,8.3-4.3,10-8.2c0.3,0.2,0.6,0.4,0.9,0.6c-2,4.1-5.6,7.1-9.9,8.4c0,0.1-0.1,0.2-0.2,0.3L143.1,24.4z"/>
</g>
</svg>
